M48
;Layer_Color=9474304
;FILE_FORMAT=4:4
METRIC,LZ
;TYPE=PLATED
T01F00S00C0.2000
T02F00S00C0.3000
T03F00S00C0.4000
T04F00S00C0.6000
T05F00S00C0.8890
T06F00S00C1.1000
;TYPE=NON_PLATED
T07F00S00C1.2500
T08F00S00C1.7000
T09F00S00C1.8000
T10F00S00C2.0000
%
T01
X0020033Y00260305
Y00266305
Y00272305
X0020633Y00266305
X0019433
T02
X00056691Y00020191
X00076691
X00096691
X00106691Y00080191
X00096691Y00100191
X00076691
X0008001Y0008763
X00056691Y00100191
X00066691Y00120191
X00086691
X00106691
X00096691Y00140191
X00076691
X0006858Y0013843
X00066691Y00160191
X00086691
X00116691Y00140191
X00136691
X00146691Y00120191
X00126691
X00136691Y00100191
X00156691
X00146691Y00080191
X00166691
X00186691
X00206691
X00226691
X00246691
X00266691
X00286691
X00306691
X00296691Y00060191
X00276691
X00256691
X00236691
X00216691
X00196691
X00176691
X00156691
X00136691
X00116691
X00126691Y00080191
X00116691Y00100191
X00166691Y00120191
X00176691Y00140191
X00206691Y00120191
X00216691Y00100191
X00196691
Y00020191
X00176691
X00156691
X00136691
X00116691
X00216691
X00236691
X00256691
X00276691
X00296691
X00316691
X00336691
X00356691
X00376691
X00396691
X00416691
X00436691
X00456691
X00476691
X00496691
X00486691Y00040191
X00466691
X00446691
X00426691
X00406177Y00039723
X00386691Y00040191
X0037719Y0004318
X00366691Y00040191
X00346691
X00326691
X00306691
X00336691Y00060191
X00416691
X00436691
X00456691
X00476691
X00496691
X00486691Y00080191
X00466691
X0044831Y001143
X0043942Y0012319
X0042545Y00127
X0040986Y001337
X0040005Y001143
X00381017Y0011557
X0032766Y0013932
Y0014986
X0032893Y0017018
X0029926Y0013156
X0046482Y0015748
X0046752Y0016423
X0052705Y0014986
Y0010922
X005334Y0011303
X00506691Y00080191
Y00040191
X00526691
X00546691
X00566691
X00586691
X00606691
X00626691
X00646691
X00666691
X00686691
X00706691
X00726691
X00736691Y00060191
X00756691
X00746691Y00080191
X00726691
X00706691
X00686691
X00666691
X00646691
X00626691
X00606691
X00586691
X00596691Y00060191
X00616691
X00636691
X00656691
X00676691
X00696691
X00716691
Y00100191
X00736691
X00746691Y00120191
X00766691
X00756691Y00140191
X00736691
X00716691
X00696691
X00676691
X00666691Y00120191
X00686691
X00706691
X00696691Y00100191
X00676691
X00656691
X00636691
Y00020191
X00656691
X00676691
X00696691
X00716691
X00616691
X00596691
X00576691
X00556691
X00536691
X00516691
X00686691Y00160191
X006985Y0017018
X00746691Y00160191
X00766691
X00756691Y00180191
X00766691Y00200191
X00746691
X00756691Y00220191
X00766691Y00240191
X00746691
X00756691Y00260191
X00766691Y00280191
Y00320191
X0074295Y0032258
Y0031242
X00756691Y00420191
Y00460191
X00736691Y00500191
X00716691
X00696691
X00676691
X00656691
X00676691Y00460191
X00696691
X00706691Y00440191
X00696691Y00420191
X00676691
X00666691Y00440191
X00576691Y00460191
X00556691
X00536691
X00516691
X00526691Y00480191
X00536691Y00500191
X0054503Y0049911
Y0050927
X0055519
Y0049911
X0056662
Y0050927
X00566691Y00520191
X00586691
X00576691Y00540191
X00586691Y00560191
X00646691
X00666691
X00706691
X00726691
X00746691
X00736691Y00540191
X00746691Y00520191
X00766691
X00706691
X00586691Y00480191
X00546691Y00520191
X00526691
X00516691Y00540191
X00526691Y00560191
X00516691Y00500191
X00508Y0038989
X0054356Y0036957
Y0035941
X0055499
Y0036957
X0056515
Y0035941
X0054229Y0030226
X0052324Y0027051
X00513455Y00264535
X0053213Y002159
X0052705Y0020828
X0051308Y0019431
X005715Y0022241
X00572037Y002297
X005715Y0023695
X0061976Y0021463
X0064135Y002159
X0070485Y00212395
Y00219665
X0069977Y0022606
Y0020701
X006985Y0018669
X0070612Y00181565
Y00174295
X0060452Y0018161
X0059944Y0017145
X0062141Y0030188
X00462157Y00290147
X0047117Y0023749
X0046609Y0023114
X0046355Y0020701
X0046101Y0018269
X0043202Y0017123
X0037719Y0017526
X00375495Y00187147
X0034544Y00193595
Y00200865
X0033655Y0021971
X0032512Y0018796
X0027686Y0019593
Y002032
Y002159
X0026416Y0022352
X0025654
Y0023114
X0026416
X0025527Y0020574
X0021971Y0020447
X0021336
Y0021209
X0021971
X0021336Y002413
X001905Y0024257
X0017145Y0023114
X0016129Y0022098
X0015494
Y0021209
X0016129
X00146817Y00231154
X0012954Y002286
Y0022225
X0012065
Y002286
X00126691Y00200191
X00116691Y00180191
X0016637Y0026162
X00198361Y0028829
X002159Y0031115
X002032Y003302
X0020447Y0034671
Y0035306
X0019685
Y0034671
X0018923
Y0035306
X0022352Y0037592
Y0038481
X0023622
Y0037592
X0024892
Y0038481
X00256691Y00380191
X00276691Y00420191
X00296691
X00316691
Y00460191
X00336691
X00356691
X00346691Y00480191
X00326691
X00316691Y00500191
X00306691Y00520191
X00286691
X00296691Y00540191
X00316691
X00326123Y00546316
X00336283
Y00537426
Y00555206
X00346443Y00546316
X00356691Y00540191
X00376691
X00386691Y00560191
X00406691
X00416691Y00540191
X00406691Y00520191
X00416691Y00500191
X00396691
X00376691
X00356691
X00366691Y00520191
Y00560191
X00306691
X00286691
X00266691
X00276691Y00540191
X00256691
X00236691
X00216691
X00196691
X00176691
X00186691Y00520191
X00166691
X00176691Y00500191
X00156691
X00136691
X0012446Y0050038
X001143
Y0051181
Y0052197
X0012446
Y0051181
X00126691Y00480191
X00146691
X00166691
X00186691
X00196691Y00500191
X002032Y0043688
X0018923
X0019685Y0042672
X002032Y0041529
X001905
X0017145Y0039751
X0015875
X00136691Y00420191
X00146691Y00440191
X00126691
X00136691Y00460191
X00116691
X00156691
X00136691Y00540191
X00116691
X0024892Y0043307
X002286Y0033401
X0023749Y0029337
X0023876Y0028321
X00222315Y00268274
X0036449Y0024892
X0037338
X00389913Y00250213
X00405675
X0041529Y0025019
X00425647Y00248723
X0038481Y0026289
X0038608Y0032004
Y0032766
Y0033528
X0039624
X00395973Y00327876
X0039624Y0032004
X0049022Y0038989
X0049911
X00476691Y00460191
X00466691Y00480191
X00476691Y00500191
X00466691Y00520191
X00476691Y00540191
X00466691Y00560191
X00406691Y00480191
X00386691
X00366691
X00106691
X00086691
X00066691
X00076691Y00500191
X00056691
X00066691Y00520191
X00076691Y00540191
X00096691
X00056691
X00016691
X00026691Y00560191
Y00520191
X00016691Y00500191
X00026691Y00480191
X00016691Y00460191
X00026691Y00440191
X00036691Y00420191
X00016691
X0004445Y0035433
X0006477Y0033655
X0006858Y0031242
Y0030353
X000762Y0030861
X0008382Y0031242
Y0030353
X00094535Y00293577
X0010414Y0031369
X0009271Y0036068
X0005842Y0029337
X0004445Y0028956
X00036691Y00260191
X00056691Y00220191
X0006731Y0019812
X00076691Y00180191
X00096691
Y00220191
X0009017Y0022606
X00056691Y00180191
X00076691Y00460191
X00096691
X00056691Y00620191
X00016691Y00580191
X00276691
X00296691
X00316691
X00326691Y00600191
X00346691
X00366691
X00386691
X00406691
X00416691Y00620191
X00436691
X00456691
X00476691
X00496691
X00486691Y00600191
X00466691
X00476691Y00580191
X00496691
X00416691
X00376691
X00356691
Y00620191
X00336691
X00316691
X00296691
X00276691
X00286691Y00600191
X00306691
X00376691Y00620191
X00396691
X00516691
X00526691Y00600191
X00536691Y00580191
X00556691
X00576691
X00586691Y00600191
X00576691Y00620191
X00626691Y00600191
X00646691
X00666691
X00656691Y00580191
X00636691
X00616691
X00676691
X00716691
X00736691
X00756691
X00726691Y00600191
X00706691
X00716691Y00620191
X00696691
X00516691Y00580191
T03
X0009017Y0007366
X0026475Y0011938
X0027559Y0014478
X0028575Y0009906
X0036957Y0008382
X0035814Y00057
X0041656Y0007237
X004318
X0044704
X0044831Y0014732
X0051054
X00704915Y00158815
X0070485Y0019685
Y0023495
Y0029845
X0068326Y0033782
X0067056
X0065659
X0066167Y0038862
Y0040513
X0070231Y0039751
X0074549Y0040132
Y0038862
Y0037465
X00744545Y00362145
Y00349445
Y00336745
X0074676Y004191
X00744545Y00438345
X0074295Y0046355
Y0047625
X0070485Y0045085
X0065659Y0053213
X0061468Y00508
X0060325
X0058928
X0054356Y0053213
X0065786Y0027559
X0043648Y0027472
X004064Y0028575
X0037338Y0028702
X003556
X0028575Y0027686
X0027813Y0024003
X0029718Y0021971
X0027686Y0017272
X0038989Y0017526
X0041783
Y002032
X0040386Y0018923
X0038989Y002032
X00491029Y00217631
X0049784Y0018288
X0028702Y003556
X0024892Y0040132
X0022606Y0046863
X0017145
X0015367Y0052451
X0015494Y0035687
Y0034798
X001651
Y0035687
X0007679Y00280965
X0004826Y0026035
X0009925Y0024638
X0051562Y0056896
Y0059055
Y0061087
T04
X000447Y0005715
Y0007747
Y0009779
Y0011811
Y0013843
Y0015875
Y0017907
Y0019939
Y0021971
Y0024003
T05
X0006731Y0039751
Y0042291
Y0044831
T06
X0051943Y0006858
X0054483
X0057023
T07
X0072073Y0011763
Y0051763
T08
X0039116Y0057749
T09
X0039116Y0053249
T10
X0002754Y0002754
X0033528Y0011811
X0047117Y0011938
X0076073Y0008763
X0075438Y0002754
X0076073Y0054763
X0047206Y0026124
X0002754Y006096
X0075438Y0060873
M30
