G04*
G04 #@! TF.GenerationSoftware,Altium Limited,Altium Designer,24.9.1 (31)*
G04*
G04 Layer_Color=16711935*
%FSLAX44Y44*%
%MOMM*%
G71*
G04*
G04 #@! TF.SameCoordinates,DBAFCBE9-9C6E-486A-AB20-CA00A55F4774*
G04*
G04*
G04 #@! TF.FilePolarity,Positive*
G04*
G01*
G75*
%ADD11C,0.2000*%
%ADD141C,0.0254*%
%ADD142C,0.1016*%
D11*
X754380Y2540D02*
G03*
X779780Y27940I0J25400D01*
G01*
X2540Y24039D02*
G03*
X24039Y2540I21499J-0D01*
G01*
X22002Y633730D02*
G03*
X2540Y614268I0J-19462D01*
G01*
X779780Y614268D02*
G03*
X760318Y633730I-19462J0D01*
G01*
X24039Y2540D02*
X754380D01*
X779780Y27940D02*
Y614268D01*
X22002Y633730D02*
X760318D01*
X2540Y614268D02*
X2540Y24039D01*
D141*
X64511Y205740D02*
X62819D01*
X62480Y206078D01*
Y206756D01*
X62819Y207094D01*
X64511D01*
X64173Y207771D02*
X64511Y208110D01*
Y208787D01*
X64173Y209125D01*
X63834D01*
X63496Y208787D01*
X63157Y209125D01*
X62819D01*
X62480Y208787D01*
Y208110D01*
X62819Y207771D01*
X63157D01*
X63496Y208110D01*
X63834Y207771D01*
X64173D01*
X63496Y208110D02*
Y208787D01*
X69341Y91440D02*
X67649D01*
X67310Y91102D01*
Y90424D01*
X67649Y90086D01*
X69341D01*
Y88055D02*
X69003Y88732D01*
X68326Y89409D01*
X67649D01*
X67310Y89070D01*
Y88393D01*
X67649Y88055D01*
X67987D01*
X68326Y88393D01*
Y89409D01*
X65091Y144780D02*
X63399D01*
X63060Y145119D01*
Y145796D01*
X63399Y146134D01*
X65091D01*
Y146811D02*
Y148166D01*
X64753D01*
X63399Y146811D01*
X63060D01*
D142*
X204678Y277805D02*
X199388D01*
X198330Y276747D01*
Y274631D01*
X199388Y273573D01*
X204678D01*
Y267225D02*
Y271457D01*
X201504D01*
X202562Y269341D01*
Y268283D01*
X201504Y267225D01*
X199388D01*
X198330Y268283D01*
Y270399D01*
X199388Y271457D01*
M02*
