G04*
G04 #@! TF.GenerationSoftware,Altium Limited,Altium Designer,24.9.1 (31)*
G04*
G04 Layer_Color=16711935*
%FSLAX44Y44*%
%MOMM*%
G71*
G04*
G04 #@! TF.SameCoordinates,DBAFCBE9-9C6E-486A-AB20-CA00A55F4774*
G04*
G04*
G04 #@! TF.FilePolarity,Positive*
G04*
G01*
G75*
%ADD11C,0.2000*%
%ADD12C,0.1270*%
%ADD13C,0.1000*%
D11*
X637350Y160370D02*
G03*
X637350Y160370I-1000J0D01*
G01*
X409038Y70925D02*
G03*
X409038Y70925I-1000J0D01*
G01*
X291830Y473760D02*
G03*
X291830Y473760I-1000J0D01*
G01*
X516910Y418560D02*
Y452660D01*
X468610D02*
X516910D01*
X468610Y418560D02*
Y452660D01*
Y418560D02*
X516910D01*
X338660Y352630D02*
Y457630D01*
X443660D01*
Y352630D02*
Y457630D01*
X338660Y352630D02*
X443660D01*
X80010Y386207D02*
Y459613D01*
X54610Y386207D02*
X80010D01*
X54610D02*
Y459613D01*
X80010D01*
X438860Y154230D02*
Y224230D01*
X368860D02*
X438860D01*
X368860Y154230D02*
Y224230D01*
Y154230D02*
X438860D01*
X61200Y323610D02*
X91200D01*
X61200Y293610D02*
Y323610D01*
Y293610D02*
X91200D01*
Y323610D01*
X177350Y402220D02*
Y451220D01*
Y402220D02*
X216350D01*
Y451220D01*
X177350D02*
X216350D01*
D12*
X557200Y158420D02*
X611200D01*
X557200Y212420D02*
X611200D01*
Y158420D02*
Y212420D01*
X557200Y158420D02*
Y212420D01*
X393188Y48651D02*
X407330Y62793D01*
X375511Y66328D02*
X393188Y48651D01*
X375511Y66328D02*
X389653Y80471D01*
X407330Y62793D01*
X261330Y457285D02*
X320330D01*
X261330Y388535D02*
X320330D01*
Y457285D01*
X261330Y388535D02*
Y457285D01*
D13*
X212348Y276805D02*
G03*
X212348Y276805I-1768J0D01*
G01*
X184830Y250805D02*
Y281805D01*
Y250805D02*
X215830D01*
Y281805D01*
X184830D02*
X215830D01*
X346160Y627490D02*
X436160D01*
X346160D02*
X346160Y479490D01*
X436160D01*
X436160Y627490D02*
X436160Y479490D01*
X156280Y236095D02*
Y241295D01*
X145980Y236095D02*
Y241295D01*
Y236095D02*
X156280D01*
X145980Y241295D02*
X156280D01*
X174200Y239795D02*
Y250295D01*
X168700Y239795D02*
Y250295D01*
X174200D01*
X168700Y239795D02*
X174200D01*
X156960Y248645D02*
Y254145D01*
X146460Y248645D02*
Y254145D01*
Y248645D02*
X156960D01*
X146460Y254145D02*
X156960D01*
X103810Y255410D02*
Y272910D01*
X94310Y255410D02*
Y272910D01*
X103810D01*
X94310Y255410D02*
X103810D01*
X116730Y238270D02*
X134730D01*
X116730Y272270D02*
X134730D01*
X116730Y238270D02*
Y272270D01*
X134730Y238270D02*
Y272270D01*
X67640Y40780D02*
X77140D01*
X67640Y58280D02*
X77140D01*
X67640Y40780D02*
Y58280D01*
X77140Y40780D02*
Y58280D01*
X64330Y82380D02*
X72830D01*
Y92880D01*
X64330Y82380D02*
Y92880D01*
X72830D01*
X85420Y59550D02*
X94920D01*
X85420Y42050D02*
X94920D01*
Y59550D01*
X85420Y42050D02*
Y59550D01*
X78920Y200720D02*
X89220D01*
X78920Y195520D02*
X89220D01*
X78920D02*
Y200720D01*
X89220Y195520D02*
Y200720D01*
Y215840D02*
Y221040D01*
X78920Y215840D02*
Y221040D01*
Y215840D02*
X89220D01*
X78920Y221040D02*
X89220D01*
X170430Y206835D02*
X204430D01*
X170430Y224835D02*
X204430D01*
Y206835D02*
Y224835D01*
X170430Y206835D02*
Y224835D01*
X285800Y136510D02*
X307800D01*
X285800Y150510D02*
X307800D01*
Y136510D02*
Y150510D01*
X285800Y136510D02*
Y150510D01*
X227470Y200990D02*
X244970D01*
X227470Y210490D02*
X244970D01*
Y200990D02*
Y210490D01*
X227470Y200990D02*
Y210490D01*
X227220Y225040D02*
X245220D01*
X227220Y259040D02*
X245220D01*
X227220Y225040D02*
Y259040D01*
X245220Y225040D02*
Y259040D01*
X520190Y244860D02*
X525690D01*
X520190Y255360D02*
X525690D01*
X520190Y244860D02*
Y255360D01*
X525690Y244860D02*
Y255360D01*
X510680Y174320D02*
X528180D01*
X510680Y183820D02*
X528180D01*
Y174320D02*
Y183820D01*
X510680Y174320D02*
Y183820D01*
X507640Y244960D02*
Y255260D01*
X512840Y244960D02*
Y255260D01*
X507640Y244960D02*
X512840D01*
X507640Y255260D02*
X512840D01*
X81712Y255410D02*
Y272910D01*
X72212Y255410D02*
Y272910D01*
X81712D01*
X72212Y255410D02*
X81712D01*
X61170Y261450D02*
Y271950D01*
X55670Y261450D02*
Y271950D01*
X61170D01*
X55670Y261450D02*
X61170D01*
X542720Y575710D02*
X564720D01*
X542720Y562210D02*
X564720D01*
X542720D02*
Y575710D01*
X564720Y562210D02*
Y575710D01*
X584110Y566210D02*
Y571710D01*
X594610Y566210D02*
Y571710D01*
X584110D02*
X594610D01*
X584110Y566210D02*
X594610D01*
X542720Y597300D02*
X564720D01*
X542720Y583800D02*
X564720D01*
X542720D02*
Y597300D01*
X564720Y583800D02*
Y597300D01*
X584030Y587800D02*
Y593300D01*
X594530Y587800D02*
Y593300D01*
X584030D02*
X594530D01*
X584030Y587800D02*
X594530D01*
X542720Y618890D02*
X564720D01*
X542720Y605390D02*
X564720D01*
X542720D02*
Y618890D01*
X564720Y605390D02*
Y618890D01*
X584030Y609390D02*
Y614890D01*
X594530Y609390D02*
Y614890D01*
X584030D02*
X594530D01*
X584030Y609390D02*
X594530D01*
X420510Y283540D02*
Y293040D01*
X438010Y283540D02*
Y293040D01*
X420510D02*
X438010D01*
X420510Y283540D02*
X438010D01*
X564720Y540620D02*
Y554120D01*
X542720Y540620D02*
Y554120D01*
Y540620D02*
X564720D01*
X542720Y554120D02*
X564720D01*
X584030Y544620D02*
X594530D01*
X584030Y550120D02*
X594530D01*
Y544620D02*
Y550120D01*
X584030Y544620D02*
Y550120D01*
X617390Y544620D02*
Y550120D01*
X606890Y544620D02*
Y550120D01*
Y544620D02*
X617390D01*
X606890Y550120D02*
X617390D01*
X635430Y540620D02*
Y554120D01*
X657430Y540620D02*
Y554120D01*
X635430D02*
X657430D01*
X635430Y540620D02*
X657430D01*
X635430Y562210D02*
Y575710D01*
X657430Y562210D02*
Y575710D01*
X635430D02*
X657430D01*
X635430Y562210D02*
X657430D01*
X606810Y571710D02*
X617310D01*
X606810Y566210D02*
X617310D01*
X606810D02*
Y571710D01*
X617310Y566210D02*
Y571710D01*
X619590Y439830D02*
X634590Y454830D01*
X551590Y439830D02*
X619590D01*
X551590D02*
Y522830D01*
X619590D01*
X634590Y507830D01*
Y454830D02*
Y507830D01*
X617310Y587800D02*
Y593300D01*
X606810Y587800D02*
Y593300D01*
Y587800D02*
X617310D01*
X606810Y593300D02*
X617310D01*
X617390Y609390D02*
Y614890D01*
X606890Y609390D02*
Y614890D01*
Y609390D02*
X617390D01*
X606890Y614890D02*
X617390D01*
X635430Y583800D02*
X657430D01*
X635430Y597300D02*
X657430D01*
Y583800D02*
Y597300D01*
X635430Y583800D02*
Y597300D01*
Y605390D02*
X657430D01*
X635430Y618890D02*
X657430D01*
Y605390D02*
Y618890D01*
X635430Y605390D02*
Y618890D01*
X511080Y157810D02*
X528580D01*
X511080Y167310D02*
X528580D01*
Y157810D02*
Y167310D01*
X511080Y157810D02*
Y167310D01*
X551660Y237970D02*
Y297970D01*
Y237970D02*
X611660D01*
Y297970D01*
X551660D02*
X611660D01*
X634590Y360850D02*
Y413850D01*
X619590Y428850D02*
X634590Y413850D01*
X551590Y428850D02*
X619590D01*
X551590Y345850D02*
Y428850D01*
Y345850D02*
X619590D01*
X634590Y360850D01*
X690950Y206950D02*
Y212150D01*
X680650Y206950D02*
Y212150D01*
Y206950D02*
X690950D01*
X680650Y212150D02*
X690950D01*
X680060Y174050D02*
X690360D01*
X680060Y168850D02*
X690360D01*
X680060D02*
Y174050D01*
X690360Y168850D02*
Y174050D01*
X636600Y208140D02*
X646100D01*
X636600Y190640D02*
X646100D01*
Y208140D01*
X636600Y190640D02*
Y208140D01*
X690360Y181550D02*
Y186750D01*
X680060Y181550D02*
Y186750D01*
Y181550D02*
X690360D01*
X680060Y186750D02*
X690360D01*
X690950Y219650D02*
Y224850D01*
X680650Y219650D02*
Y224850D01*
Y219650D02*
X690950D01*
X680650Y224850D02*
X690950D01*
X648860Y292880D02*
X666860D01*
X648860Y326880D02*
X666860D01*
X648860Y292880D02*
Y326880D01*
X666860Y292880D02*
Y326880D01*
X675010Y293630D02*
Y326130D01*
X691510Y293630D02*
Y326130D01*
X675010Y293630D02*
X691510D01*
X675010Y326130D02*
X691510D01*
X675010Y366020D02*
Y398520D01*
X691510Y366020D02*
Y398520D01*
X675010Y366020D02*
X691510D01*
X675010Y398520D02*
X691510D01*
X675010Y446030D02*
Y478530D01*
X691510Y446030D02*
Y478530D01*
X675010Y446030D02*
X691510D01*
X675010Y478530D02*
X691510D01*
X403637Y47762D02*
X410708Y54833D01*
X407172Y44227D02*
X414243Y51298D01*
X403637Y47762D02*
X407172Y44227D01*
X410708Y54833D02*
X414243Y51298D01*
X369347Y55108D02*
X376418Y48037D01*
X372882Y58643D02*
X379953Y51572D01*
X376418Y48037D02*
X379953Y51572D01*
X369347Y55108D02*
X372882Y58643D01*
X395401Y88481D02*
Y93981D01*
X384901Y88481D02*
Y93981D01*
Y88481D02*
X395401D01*
X384901Y93981D02*
X395401D01*
X106890Y293200D02*
Y303700D01*
X101390Y293200D02*
Y303700D01*
X106890D01*
X101390Y293200D02*
X106890D01*
X49200Y299860D02*
Y317360D01*
X39700Y299860D02*
Y317360D01*
X49200D01*
X39700Y299860D02*
X49200D01*
X149520Y281575D02*
X170520D01*
Y307575D01*
X149520D02*
X170520D01*
X149520Y281575D02*
Y307575D01*
X199720Y295180D02*
Y312680D01*
X209220Y295180D02*
Y312680D01*
X199720Y295180D02*
X209220D01*
X199720Y312680D02*
X209220D01*
X192260Y323740D02*
Y341740D01*
X158260Y323740D02*
Y341740D01*
Y323740D02*
X192260D01*
X158260Y341740D02*
X192260D01*
X49200Y329070D02*
Y346570D01*
X39700Y329070D02*
Y346570D01*
X49200D01*
X39700Y329070D02*
X49200D01*
X76740Y352730D02*
X94240D01*
X76740Y343230D02*
X94240D01*
X76740D02*
Y352730D01*
X94240Y343230D02*
Y352730D01*
X68750Y591410D02*
X121750D01*
X53750Y576410D02*
X68750Y591410D01*
X53750Y508410D02*
Y576410D01*
Y508410D02*
X136750D01*
Y576410D01*
X121750Y591410D02*
X136750Y576410D01*
X170950Y616450D02*
X298950D01*
X170950Y488450D02*
X298950D01*
Y616450D01*
X170950Y488450D02*
Y616450D01*
X146670Y538910D02*
X160670D01*
X146670Y560910D02*
X160670D01*
X146670Y538910D02*
Y560910D01*
X160670Y538910D02*
Y560910D01*
X231350Y282975D02*
Y293475D01*
X225850Y282975D02*
Y293475D01*
X231350D01*
X225850Y282975D02*
X231350D01*
X249400Y346230D02*
X309400D01*
X249400Y286230D02*
Y346230D01*
Y286230D02*
X309400D01*
Y346230D01*
X225850Y345270D02*
X231350D01*
X225850Y355770D02*
X231350D01*
X225850Y345270D02*
Y355770D01*
X231350Y345270D02*
Y355770D01*
M02*
