G04*
G04 #@! TF.GenerationSoftware,Altium Limited,Altium Designer,24.9.1 (31)*
G04*
G04 Layer_Physical_Order=3*
G04 Layer_Color=128*
%FSLAX44Y44*%
%MOMM*%
G71*
G04*
G04 #@! TF.SameCoordinates,DBAFCBE9-9C6E-486A-AB20-CA00A55F4774*
G04*
G04*
G04 #@! TF.FilePolarity,Negative*
G04*
G01*
G75*
%ADD12C,0.1270*%
%ADD111C,0.4000*%
%ADD124C,2.5080*%
%ADD125C,1.7580*%
%ADD126C,1.1080*%
%ADD127C,1.6080*%
%ADD128C,1.3970*%
%ADD129C,2.2080*%
%ADD130C,2.3080*%
%ADD131C,0.8080*%
%ADD132C,0.9080*%
%ADD133C,0.7080*%
D12*
X454660Y106680D02*
X459740Y111760D01*
X391160D02*
X396240Y106680D01*
X454660D01*
X214630Y337820D02*
X222250Y345440D01*
X238760D01*
X245110Y339090D01*
X149860Y246380D02*
Y261620D01*
X185420Y297180D01*
X203200Y314960D01*
X358140Y259080D02*
X373380D01*
X381000Y251460D01*
X436880Y243840D02*
Y259080D01*
X408940Y256540D02*
X411480Y259080D01*
X436880D01*
X459740Y111760D02*
Y134620D01*
Y142240D01*
Y154940D01*
X448310Y166370D02*
X459740Y154940D01*
X448310Y166370D02*
Y187960D01*
X455930Y195580D01*
X469900D01*
X472440Y198120D01*
Y208280D01*
X444500Y236220D02*
X472440Y208280D01*
X436880Y243840D02*
X444500Y236220D01*
X472440Y93980D02*
X579520D01*
X759460Y273920D01*
X486410Y378460D02*
X617220D01*
X695960D01*
X704850Y411480D02*
X753110D01*
X759460Y273920D02*
Y378460D01*
Y325120D02*
Y378460D01*
X695960D02*
X759460D01*
Y405130D01*
X753110Y411480D02*
X759460Y405130D01*
X11430Y293370D02*
Y383540D01*
Y293370D02*
X38100Y266700D01*
X34290Y342900D02*
X49530Y327660D01*
X38100Y266700D02*
X104140D01*
X49530Y327660D02*
X104140Y273050D01*
Y228600D02*
X200660Y132080D01*
X154940Y241300D02*
X182880D01*
X193040Y231140D01*
X11430Y383540D02*
X39370Y411480D01*
X34290Y342900D02*
Y361950D01*
X50800Y378460D01*
X71120D01*
X149860D01*
X226060D01*
X104140Y228600D02*
Y273050D01*
X149860Y246380D02*
X154940Y241300D01*
X314960Y121920D02*
X325120Y132080D01*
X320040Y137160D02*
Y175260D01*
Y137160D02*
X325120Y132080D01*
X347980D01*
X373380D01*
X355600Y190500D02*
Y256540D01*
X200660Y132080D02*
X238760Y93980D01*
X241300Y157480D02*
Y208280D01*
Y157480D02*
X276860Y121920D01*
X264160Y187960D02*
Y213360D01*
Y187960D02*
X266700Y185420D01*
X297180D01*
X276860Y121920D02*
X314960D01*
X193040Y231140D02*
X200660D01*
X219710D01*
X232410Y243840D01*
X241300Y208280D02*
X248920Y215900D01*
X261620D01*
X264160Y213360D01*
X373380Y132080D02*
X386080D01*
X391160Y127000D01*
Y111760D02*
Y127000D01*
X381000Y238760D02*
Y251460D01*
Y238760D02*
X386080Y233680D01*
X403860D01*
X408940Y238760D01*
Y256540D01*
X203200Y314960D02*
X214630Y326390D01*
Y337820D01*
X224790Y283210D02*
Y303530D01*
Y283210D02*
X232410Y275590D01*
Y243840D02*
Y275590D01*
X224790Y303530D02*
X245110Y323850D01*
Y339090D01*
X355600Y256540D02*
X358140Y259080D01*
X320040Y175260D02*
X323850Y179070D01*
X297180Y185420D02*
X320040Y208280D01*
Y220980D01*
X327660Y228600D01*
X323850Y179070D02*
X344170D01*
X327660Y228600D02*
X355600D01*
X344170Y179070D02*
X355600Y190500D01*
X226060Y378460D02*
X486410D01*
X39370Y411480D02*
X704850D01*
X238760Y93980D02*
X472440D01*
D111*
X2540Y24039D02*
G03*
X24039Y2540I21499J-0D01*
G01*
X779780Y614268D02*
G03*
X760318Y633730I-19462J0D01*
G01*
X22002D02*
G03*
X2540Y614268I0J-19462D01*
G01*
X754380Y2540D02*
G03*
X779780Y27940I0J25400D01*
G01*
X24039Y2540D02*
X754380D01*
X779780Y27940D02*
Y614268D01*
X22002Y633730D02*
X760318D01*
X2540Y614268D02*
X2540Y24039D01*
D124*
X27540Y27540D02*
D03*
X760730Y547630D02*
D03*
Y87630D02*
D03*
X754380Y27540D02*
D03*
X27540Y609600D02*
D03*
X754380Y608730D02*
D03*
X335280Y118110D02*
D03*
X471170Y119380D02*
D03*
X472060Y261240D02*
D03*
D125*
X720730Y517630D02*
D03*
Y117630D02*
D03*
D126*
X44700Y138430D02*
D03*
Y219710D02*
D03*
Y199390D02*
D03*
Y158750D02*
D03*
Y97790D02*
D03*
Y77470D02*
D03*
Y57150D02*
D03*
Y240030D02*
D03*
D127*
X544830Y68580D02*
D03*
X519430D02*
D03*
D128*
X67310Y448310D02*
D03*
Y422910D02*
D03*
Y397510D02*
D03*
D129*
X391160Y577490D02*
D03*
D130*
Y532490D02*
D03*
D131*
X256691Y380191D02*
D03*
X513455Y264535D02*
D03*
X83820Y312420D02*
D03*
X68580D02*
D03*
X76200Y308610D02*
D03*
X83820Y303530D02*
D03*
X68580D02*
D03*
X171450Y231140D02*
D03*
X190500Y242570D02*
D03*
X120650Y222250D02*
D03*
Y228600D02*
D03*
X129540D02*
D03*
Y222250D02*
D03*
X146817Y231154D02*
D03*
X154940Y220980D02*
D03*
Y212090D02*
D03*
X161290Y220980D02*
D03*
Y212090D02*
D03*
X256540Y231140D02*
D03*
Y223520D02*
D03*
X264160D02*
D03*
Y231140D02*
D03*
X276860Y195930D02*
D03*
Y203200D02*
D03*
Y215900D02*
D03*
X527050Y109220D02*
D03*
X533400Y113030D02*
D03*
X439420Y123190D02*
D03*
X345440Y193595D02*
D03*
Y200865D02*
D03*
X377190Y175260D02*
D03*
X409860Y133700D02*
D03*
X532130Y215900D02*
D03*
X527050Y208280D02*
D03*
X44450Y289560D02*
D03*
X58420Y293370D02*
D03*
X94535Y293577D02*
D03*
X64770Y336550D02*
D03*
X92710Y360680D02*
D03*
X158750Y397510D02*
D03*
X171450D02*
D03*
X189230Y346710D02*
D03*
Y353060D02*
D03*
X196850Y346710D02*
D03*
Y353060D02*
D03*
X203200Y330200D02*
D03*
X204470Y346710D02*
D03*
Y353060D02*
D03*
X215900Y311150D02*
D03*
X238760Y283210D02*
D03*
X384810Y262890D02*
D03*
X386080Y320040D02*
D03*
Y327660D02*
D03*
Y335280D02*
D03*
X395973Y327876D02*
D03*
X396240Y320040D02*
D03*
Y335280D02*
D03*
X405675Y250213D02*
D03*
X415290Y250190D02*
D03*
X462157Y290147D02*
D03*
X223520Y375920D02*
D03*
Y384810D02*
D03*
X236220Y375920D02*
D03*
Y384810D02*
D03*
X248920Y375920D02*
D03*
Y384810D02*
D03*
Y433070D02*
D03*
X490220Y389890D02*
D03*
X499110D02*
D03*
X508000D02*
D03*
X543560Y369570D02*
D03*
X432020Y171230D02*
D03*
X464820Y157480D02*
D03*
X466090Y231140D02*
D03*
X467520Y164230D02*
D03*
X471170Y237490D02*
D03*
X599440Y171450D02*
D03*
X604520Y181610D02*
D03*
X619760Y214630D02*
D03*
X621410Y301880D02*
D03*
X699770Y226060D02*
D03*
X704850Y212395D02*
D03*
Y219665D02*
D03*
X706120Y174295D02*
D03*
Y181565D02*
D03*
X543560Y359410D02*
D03*
X554990D02*
D03*
Y369570D02*
D03*
X565150Y359410D02*
D03*
Y369570D02*
D03*
X542290Y302260D02*
D03*
X571500Y222410D02*
D03*
Y236950D02*
D03*
X572037Y229700D02*
D03*
D132*
X417830Y203200D02*
D03*
Y175260D02*
D03*
X403860Y189230D02*
D03*
X389890Y203200D02*
D03*
Y175260D02*
D03*
X373380Y287020D02*
D03*
X355600D02*
D03*
X285750Y99060D02*
D03*
X264750Y119380D02*
D03*
X275590Y144780D02*
D03*
X276860Y172720D02*
D03*
X278130Y240030D02*
D03*
X297180Y219710D02*
D03*
X491029Y217631D02*
D03*
X497840Y182880D02*
D03*
X510540Y147320D02*
D03*
X154940Y347980D02*
D03*
Y356870D02*
D03*
X165100Y347980D02*
D03*
Y356870D02*
D03*
X171450Y468630D02*
D03*
X285750Y276860D02*
D03*
X287020Y355600D02*
D03*
X406400Y285750D02*
D03*
X436480Y274720D02*
D03*
X226060Y468630D02*
D03*
X248920Y401320D02*
D03*
X515620Y590550D02*
D03*
Y610870D02*
D03*
Y568960D02*
D03*
X657860Y275590D02*
D03*
X704850Y234950D02*
D03*
Y298450D02*
D03*
X744545Y336745D02*
D03*
X543560Y532130D02*
D03*
X589280Y508000D02*
D03*
X603250D02*
D03*
X614680D02*
D03*
X656590Y532130D02*
D03*
X704850Y450850D02*
D03*
X742950Y463550D02*
D03*
Y476250D02*
D03*
X744545Y349445D02*
D03*
Y362145D02*
D03*
X745490Y374650D02*
D03*
D133*
X200330Y272305D02*
D03*
D03*
Y260305D02*
D03*
D03*
Y266305D02*
D03*
X206330D02*
D03*
X194330D02*
D03*
M02*
