G04*
G04 #@! TF.GenerationSoftware,Altium Limited,Altium Designer,24.9.1 (31)*
G04*
G04 Layer_Color=32768*
%FSLAX44Y44*%
%MOMM*%
G71*
G04*
G04 #@! TF.SameCoordinates,DBAFCBE9-9C6E-486A-AB20-CA00A55F4774*
G04*
G04*
G04 #@! TF.FilePolarity,Positive*
G04*
G01*
G75*
%ADD11C,0.2000*%
%ADD13C,0.1000*%
%ADD145C,0.0500*%
D11*
X526060Y417560D02*
Y453660D01*
X459460D02*
X526060D01*
X459460Y417560D02*
Y453660D01*
Y417560D02*
X526060D01*
X336160Y338630D02*
Y471630D01*
X446160D01*
Y338630D02*
Y471630D01*
X336160Y338630D02*
X446160D01*
X502130Y16580D02*
X587530D01*
X502130Y84580D02*
X587130D01*
X502130Y16580D02*
Y84580D01*
X587530Y16580D02*
Y84580D01*
X81010Y385207D02*
Y460613D01*
X53610Y385207D02*
X81010D01*
X53610D02*
Y460613D01*
X81010D01*
X460391Y132699D02*
Y245761D01*
X347329D02*
X460391D01*
X347329Y132699D02*
Y245761D01*
Y132699D02*
X460391D01*
X56200Y333171D02*
X96200D01*
X56200Y284049D02*
Y333171D01*
Y284049D02*
X96200D01*
Y333171D01*
X155319Y397220D02*
Y456220D01*
Y397220D02*
X238381D01*
Y456220D01*
X155319D02*
X238381D01*
D13*
X386160Y554990D02*
X396160D01*
X391160Y549990D02*
Y559990D01*
X148530Y238695D02*
X153730D01*
X151130Y236095D02*
Y241295D01*
X168700Y245045D02*
X174200D01*
X171450Y242295D02*
Y247795D01*
X176950Y232795D02*
Y257295D01*
X165950Y232795D02*
Y257295D01*
X176950D01*
X165950Y232795D02*
X176950D01*
X159710Y247395D02*
Y255395D01*
X143710Y247395D02*
Y255395D01*
Y247395D02*
X159710D01*
X143710Y255395D02*
X159710D01*
X148960Y251395D02*
X154460D01*
X151710Y248645D02*
Y254145D01*
X94310Y264160D02*
X103810D01*
X99060Y259410D02*
Y268910D01*
X125730Y250270D02*
Y260270D01*
X120730Y255270D02*
X130730D01*
X72390Y44780D02*
Y54280D01*
X67640Y49530D02*
X77140D01*
X90170Y46050D02*
Y55550D01*
X85420Y50800D02*
X94920D01*
X84070Y195520D02*
Y200720D01*
X81470Y198120D02*
X86670D01*
X81470Y218440D02*
X86670D01*
X84070Y215840D02*
Y221040D01*
X187430Y210835D02*
Y220835D01*
X182430Y215835D02*
X192430D01*
X296800Y138510D02*
Y148510D01*
X291800Y143510D02*
X301800D01*
X236220Y200990D02*
Y210490D01*
X231470Y205740D02*
X240970D01*
X236220Y237040D02*
Y247040D01*
X231220Y242040D02*
X241220D01*
X517440Y240110D02*
X528440D01*
X517440Y260110D02*
X528440D01*
X517440Y240110D02*
Y260110D01*
X528440Y240110D02*
Y260110D01*
X522940Y247360D02*
Y252860D01*
X520190Y250110D02*
X525690D01*
X519430Y174320D02*
Y183820D01*
X514680Y179070D02*
X524180D01*
X507640Y250110D02*
X512840D01*
X510240Y247510D02*
Y252710D01*
X72212Y264160D02*
X81712D01*
X76962Y259410D02*
Y268910D01*
X55670Y266700D02*
X61170D01*
X58420Y263950D02*
Y269450D01*
X63920Y254450D02*
Y278950D01*
X52920Y254450D02*
Y278950D01*
X63920D01*
X52920Y254450D02*
X63920D01*
X553720Y563960D02*
Y573960D01*
X548720Y568960D02*
X558720D01*
X579360Y563460D02*
Y574460D01*
X599360Y563460D02*
Y574460D01*
X579360D02*
X599360D01*
X579360Y563460D02*
X599360D01*
X586610Y568960D02*
X592110D01*
X589360Y566210D02*
Y571710D01*
X553720Y585550D02*
Y595550D01*
X548720Y590550D02*
X558720D01*
X579280Y585050D02*
Y596050D01*
X599280Y585050D02*
Y596050D01*
X579280D02*
X599280D01*
X579280Y585050D02*
X599280D01*
X586530Y590550D02*
X592030D01*
X589280Y587800D02*
Y593300D01*
X553720Y607140D02*
Y617140D01*
X548720Y612140D02*
X558720D01*
X579280Y606640D02*
Y617640D01*
X599280Y606640D02*
Y617640D01*
X579280D02*
X599280D01*
X579280Y606640D02*
X599280D01*
X586530Y612140D02*
X592030D01*
X589280Y609390D02*
Y614890D01*
X424510Y288290D02*
X434010D01*
X429260Y283540D02*
Y293040D01*
X548720Y547370D02*
X558720D01*
X553720Y542370D02*
Y552370D01*
X589280Y544620D02*
Y550120D01*
X586530Y547370D02*
X592030D01*
X579280Y541870D02*
X599280D01*
X579280Y552870D02*
X599280D01*
Y541870D02*
Y552870D01*
X579280Y541870D02*
Y552870D01*
X622140Y541870D02*
Y552870D01*
X602140Y541870D02*
Y552870D01*
Y541870D02*
X622140D01*
X602140Y552870D02*
X622140D01*
X609390Y547370D02*
X614890D01*
X612140Y544620D02*
Y550120D01*
X641430Y547370D02*
X651430D01*
X646430Y542370D02*
Y552370D01*
X641430Y568960D02*
X651430D01*
X646430Y563960D02*
Y573960D01*
X612060Y566210D02*
Y571710D01*
X609310Y568960D02*
X614810D01*
X602060Y574460D02*
X622060D01*
X602060Y563460D02*
X622060D01*
X602060D02*
Y574460D01*
X622060Y563460D02*
Y574460D01*
X588090Y481330D02*
X598090D01*
X593090Y476330D02*
Y486330D01*
X622060Y585050D02*
Y596050D01*
X602060Y585050D02*
Y596050D01*
Y585050D02*
X622060D01*
X602060Y596050D02*
X622060D01*
X609310Y590550D02*
X614810D01*
X612060Y587800D02*
Y593300D01*
X622140Y606640D02*
Y617640D01*
X602140Y606640D02*
Y617640D01*
Y606640D02*
X622140D01*
X602140Y617640D02*
X622140D01*
X609390Y612140D02*
X614890D01*
X612140Y609390D02*
Y614890D01*
X646430Y585550D02*
Y595550D01*
X641430Y590550D02*
X651430D01*
X646430Y607140D02*
Y617140D01*
X641430Y612140D02*
X651430D01*
X519830Y157810D02*
Y167310D01*
X515080Y162560D02*
X524580D01*
X578660Y267970D02*
X584660D01*
X581660Y264970D02*
Y270970D01*
X593090Y382350D02*
Y392350D01*
X588090Y387350D02*
X598090D01*
X683200Y209550D02*
X688400D01*
X685800Y206950D02*
Y212150D01*
X685210Y168850D02*
Y174050D01*
X682610Y171450D02*
X687810D01*
X641350Y194640D02*
Y204140D01*
X636600Y199390D02*
X646100D01*
X682610Y184150D02*
X687810D01*
X685210Y181550D02*
Y186750D01*
X683200Y222250D02*
X688400D01*
X685800Y219650D02*
Y224850D01*
X657860Y304880D02*
Y314880D01*
X652860Y309880D02*
X662860D01*
X678260D02*
X688260D01*
X683260Y304880D02*
Y314880D01*
X678260Y382270D02*
X688260D01*
X683260Y377270D02*
Y387270D01*
X678260Y462280D02*
X688260D01*
X683260Y457280D02*
Y467280D01*
X407172Y51298D02*
X410708Y47762D01*
X405581Y46171D02*
X412299Y52889D01*
X372882Y51572D02*
X376418Y55108D01*
X371291Y56699D02*
X378009Y49981D01*
X400150Y85731D02*
Y96731D01*
X380150Y85731D02*
Y96731D01*
Y85731D02*
X400150D01*
X380150Y96731D02*
X400150D01*
X387401Y91231D02*
X392901D01*
X390150Y88481D02*
Y93981D01*
X101390Y298450D02*
X106890D01*
X104140Y295700D02*
Y301200D01*
X109640Y288450D02*
Y308450D01*
X98640Y288450D02*
Y308450D01*
X109640D01*
X98640Y288450D02*
X109640D01*
X39700Y308610D02*
X49200D01*
X44450Y303860D02*
Y313360D01*
X155020Y294575D02*
X165020D01*
X160020Y289575D02*
Y299575D01*
X199720Y303930D02*
X209220D01*
X204470Y299180D02*
Y308680D01*
X170260Y332740D02*
X180260D01*
X175260Y327740D02*
Y337740D01*
X39700Y337820D02*
X49200D01*
X44450Y333070D02*
Y342570D01*
X85490Y343230D02*
Y352730D01*
X80740Y347980D02*
X90240D01*
X90250Y549910D02*
X100250D01*
X95250Y544910D02*
Y554910D01*
X234950Y547450D02*
Y557450D01*
X229950Y552450D02*
X239950D01*
X153670Y544910D02*
Y554910D01*
X148670Y549910D02*
X158670D01*
X225850Y288225D02*
X231350D01*
X228600Y285475D02*
Y290975D01*
X234100Y278225D02*
Y298225D01*
X223100Y278225D02*
Y298225D01*
X234100D01*
X223100Y278225D02*
X234100D01*
X279400Y313230D02*
Y319230D01*
X276400Y316230D02*
X282400D01*
X223100Y340520D02*
X234100D01*
X223100Y360520D02*
X234100D01*
X223100Y340520D02*
Y360520D01*
X234100Y340520D02*
Y360520D01*
X228600Y347770D02*
Y353270D01*
X225850Y350520D02*
X231350D01*
D145*
X537600Y155920D02*
X630800D01*
X537600Y214920D02*
X630800D01*
Y155920D02*
Y214920D01*
X537600Y155920D02*
Y214920D01*
X35810Y45686D02*
Y251430D01*
X53590D01*
Y45686D02*
Y251430D01*
X35810Y45686D02*
X53590D01*
X218330Y248305D02*
Y284305D01*
X182330D02*
X218330D01*
X182330Y248305D02*
Y284305D01*
Y248305D02*
X218330D01*
X320160Y476990D02*
Y629990D01*
X462160D01*
Y476990D02*
Y629990D01*
X320160Y476990D02*
X462160D01*
X160630Y233695D02*
Y243695D01*
X141630Y233695D02*
Y243695D01*
Y233695D02*
X160630D01*
X141630Y243695D02*
X160630D01*
X106560Y250660D02*
Y277660D01*
X91560Y250660D02*
Y277660D01*
X106560D01*
X91560Y250660D02*
X106560D01*
X114230Y231770D02*
X137230D01*
X114230Y278770D02*
X137230D01*
X114230Y231770D02*
Y278770D01*
X137230Y231770D02*
Y278770D01*
X64890Y36030D02*
X79890D01*
X64890Y63030D02*
X79890D01*
X64890Y36030D02*
Y63030D01*
X79890Y36030D02*
Y63030D01*
X68580Y85980D02*
Y89280D01*
X66930Y87630D02*
X70230D01*
X61830Y81130D02*
Y94130D01*
X75330Y81130D02*
Y94130D01*
X61830D02*
X75330D01*
X61830Y81130D02*
X75330D01*
X83170Y65800D02*
X97170D01*
X83170Y35800D02*
X97170D01*
Y65800D01*
X83170Y35800D02*
Y65800D01*
X74570Y203120D02*
X93570D01*
X74570Y193120D02*
X93570D01*
X74570D02*
Y203120D01*
X93570Y193120D02*
Y203120D01*
Y213440D02*
Y223440D01*
X74570Y213440D02*
Y223440D01*
Y213440D02*
X93570D01*
X74570Y223440D02*
X93570D01*
X163930Y204335D02*
X210930D01*
X163930Y227335D02*
X210930D01*
Y204335D02*
Y227335D01*
X163930Y204335D02*
Y227335D01*
X279800Y134010D02*
X313800D01*
X279800Y153010D02*
X313800D01*
Y134010D02*
Y153010D01*
X279800Y134010D02*
Y153010D01*
X222720Y198240D02*
X249720D01*
X222720Y213240D02*
X249720D01*
Y198240D02*
Y213240D01*
X222720Y198240D02*
Y213240D01*
X224720Y218540D02*
X247720D01*
X224720Y265540D02*
X247720D01*
X224720Y218540D02*
Y265540D01*
X247720Y218540D02*
Y265540D01*
X505930Y171570D02*
X532930D01*
X505930Y186570D02*
X532930D01*
Y171570D02*
Y186570D01*
X505930Y171570D02*
Y186570D01*
X505240Y240610D02*
Y259610D01*
X515240Y240610D02*
Y259610D01*
X505240Y240610D02*
X515240D01*
X505240Y259610D02*
X515240D01*
X84462Y250660D02*
Y277660D01*
X69462Y250660D02*
Y277660D01*
X84462D01*
X69462Y250660D02*
X84462D01*
X534670Y578460D02*
X572770D01*
X534670Y559460D02*
X572770D01*
X534670D02*
Y578460D01*
X572770Y559460D02*
Y578460D01*
X534670Y600050D02*
X572770D01*
X534670Y581050D02*
X572770D01*
X534670D02*
Y600050D01*
X572770Y581050D02*
Y600050D01*
X534670Y621640D02*
X572770D01*
X534670Y602640D02*
X572770D01*
X534670D02*
Y621640D01*
X572770Y602640D02*
Y621640D01*
X415760Y280790D02*
Y295790D01*
X442760Y280790D02*
Y295790D01*
X415760D02*
X442760D01*
X415760Y280790D02*
X442760D01*
X572770Y537870D02*
Y556870D01*
X534670Y537870D02*
Y556870D01*
Y537870D02*
X572770D01*
X534670Y556870D02*
X572770D01*
X627380Y537870D02*
Y556870D01*
X665480Y537870D02*
Y556870D01*
X627380D02*
X665480D01*
X627380Y537870D02*
X665480D01*
X627380Y559460D02*
Y578460D01*
X665480Y559460D02*
Y578460D01*
X627380D02*
X665480D01*
X627380Y559460D02*
X665480D01*
X657090Y437330D02*
Y525330D01*
X529090Y437330D02*
Y525330D01*
Y437330D02*
X657090D01*
X529090Y525330D02*
X657090D01*
X627380Y581050D02*
X665480D01*
X627380Y600050D02*
X665480D01*
Y581050D02*
Y600050D01*
X627380Y581050D02*
Y600050D01*
Y602640D02*
X665480D01*
X627380Y621640D02*
X665480D01*
Y602640D02*
Y621640D01*
X627380Y602640D02*
Y621640D01*
X506330Y155060D02*
X533330D01*
X506330Y170060D02*
X533330D01*
Y155060D02*
Y170060D01*
X506330Y155060D02*
Y170060D01*
X531160Y235970D02*
Y299970D01*
Y235970D02*
X632160D01*
Y299970D01*
X531160D02*
X632160D01*
X529090Y431350D02*
X657090D01*
X529090Y343350D02*
X657090D01*
X529090D02*
Y431350D01*
X657090Y343350D02*
Y431350D01*
X695300Y204550D02*
Y214550D01*
X676300Y204550D02*
Y214550D01*
Y204550D02*
X695300D01*
X676300Y214550D02*
X695300D01*
X675710Y176450D02*
X694710D01*
X675710Y166450D02*
X694710D01*
X675710D02*
Y176450D01*
X694710Y166450D02*
Y176450D01*
X633850Y212890D02*
X648850D01*
X633850Y185890D02*
X648850D01*
Y212890D01*
X633850Y185890D02*
Y212890D01*
X694710Y179150D02*
Y189150D01*
X675710Y179150D02*
Y189150D01*
Y179150D02*
X694710D01*
X675710Y189150D02*
X694710D01*
X695300Y217250D02*
Y227250D01*
X676300Y217250D02*
Y227250D01*
Y217250D02*
X695300D01*
X676300Y227250D02*
X695300D01*
X646360Y286380D02*
X669360D01*
X646360Y333380D02*
X669360D01*
X646360Y286380D02*
Y333380D01*
X669360Y286380D02*
Y333380D01*
X672260Y287380D02*
Y332380D01*
X694260Y287380D02*
Y332380D01*
X672260Y287380D02*
X694260D01*
X672260Y332380D02*
X694260D01*
X672260Y359770D02*
Y404770D01*
X694260Y359770D02*
Y404770D01*
X672260Y359770D02*
X694260D01*
X672260Y404770D02*
X694260D01*
X672260Y439780D02*
Y484780D01*
X694260Y439780D02*
Y484780D01*
X672260Y439780D02*
X694260D01*
X672260Y484780D02*
X694260D01*
X400455Y46702D02*
X411768Y58015D01*
X406112Y41045D02*
X417425Y52358D01*
X400455Y46702D02*
X406112Y41045D01*
X411768Y58015D02*
X417425Y52358D01*
X393012Y44938D02*
X411043Y62970D01*
X371798Y66152D02*
X393012Y44938D01*
X371798Y66152D02*
X389829Y84183D01*
X411043Y62970D01*
X366165Y56168D02*
X377478Y44855D01*
X371822Y61825D02*
X383135Y50512D01*
X377478Y44855D02*
X383135Y50512D01*
X366165Y56168D02*
X371822Y61825D01*
X51950Y295110D02*
Y322110D01*
X36950Y295110D02*
Y322110D01*
X51950D01*
X36950Y295110D02*
X51950D01*
X172020Y273575D02*
Y315575D01*
X148020D02*
X172020D01*
X148020Y273575D02*
Y315575D01*
Y273575D02*
X172020D01*
X196970Y290430D02*
Y317430D01*
X211970Y290430D02*
Y317430D01*
X196970Y290430D02*
X211970D01*
X196970Y317430D02*
X211970D01*
X198760Y321240D02*
Y344240D01*
X151760Y321240D02*
Y344240D01*
Y321240D02*
X198760D01*
X151760Y344240D02*
X198760D01*
X51950Y324320D02*
Y351320D01*
X36950Y324320D02*
Y351320D01*
X51950D01*
X36950Y324320D02*
X51950D01*
X71990Y355480D02*
X98990D01*
X71990Y340480D02*
X98990D01*
X71990D02*
Y355480D01*
X98990Y340480D02*
Y355480D01*
X51250Y485910D02*
Y613910D01*
X139250Y485910D02*
Y613910D01*
X51250Y485910D02*
X139250D01*
X51250Y613910D02*
X139250D01*
X168450Y624700D02*
X301450D01*
X168450Y480200D02*
X301450D01*
Y624700D01*
X168450Y480200D02*
Y624700D01*
X144170Y532910D02*
X163170D01*
X144170Y566910D02*
X163170D01*
X144170Y532910D02*
Y566910D01*
X163170Y532910D02*
Y566910D01*
X247400Y366730D02*
X311400D01*
X247400Y265730D02*
Y366730D01*
Y265730D02*
X311400D01*
Y366730D01*
X258830Y471260D02*
X322830D01*
X258830Y374560D02*
Y471260D01*
Y374560D02*
X322830D01*
Y471260D01*
M02*
