G04*
G04 #@! TF.GenerationSoftware,Altium Limited,Altium Designer,24.9.1 (31)*
G04*
G04 Layer_Color=16711935*
%FSLAX44Y44*%
%MOMM*%
G71*
G04*
G04 #@! TF.SameCoordinates,DBAFCBE9-9C6E-486A-AB20-CA00A55F4774*
G04*
G04*
G04 #@! TF.FilePolarity,Positive*
G04*
G01*
G75*
%ADD11C,0.2000*%
%ADD13C,0.1000*%
G36*
X492760Y429212D02*
X488433D01*
Y429970D01*
X491909D01*
Y431949D01*
X488905D01*
Y432707D01*
X491909D01*
Y435610D01*
X492760D01*
Y429212D01*
D02*
G37*
G36*
X485484Y430608D02*
X485493Y430617D01*
X485539Y430654D01*
X485595Y430710D01*
X485687Y430775D01*
X485789Y430858D01*
X485918Y430950D01*
X486066Y431052D01*
X486233Y431154D01*
X486242D01*
X486251Y431163D01*
X486307Y431200D01*
X486399Y431246D01*
X486510Y431302D01*
X486640Y431366D01*
X486778Y431431D01*
X486917Y431496D01*
X487056Y431551D01*
Y430793D01*
X487046D01*
X487028Y430775D01*
X486991Y430765D01*
X486945Y430738D01*
X486889Y430710D01*
X486824Y430673D01*
X486667Y430580D01*
X486482Y430479D01*
X486297Y430349D01*
X486103Y430201D01*
X485909Y430044D01*
X485900Y430035D01*
X485891Y430026D01*
X485863Y429998D01*
X485826Y429970D01*
X485743Y429878D01*
X485632Y429767D01*
X485521Y429637D01*
X485401Y429490D01*
X485299Y429342D01*
X485206Y429184D01*
X484698D01*
Y435610D01*
X485484D01*
Y430608D01*
D02*
G37*
G36*
X389514Y419784D02*
X391049D01*
Y418998D01*
X389514D01*
Y416215D01*
X388793D01*
X384651Y419146D01*
Y419784D01*
X388793D01*
Y420653D01*
X389514D01*
Y419784D01*
D02*
G37*
G36*
X391049Y413682D02*
X386047D01*
X386057Y413673D01*
X386093Y413627D01*
X386149Y413571D01*
X386214Y413479D01*
X386297Y413377D01*
X386389Y413247D01*
X386491Y413100D01*
X386593Y412933D01*
Y412924D01*
X386602Y412915D01*
X386639Y412859D01*
X386685Y412767D01*
X386741Y412656D01*
X386805Y412526D01*
X386870Y412388D01*
X386935Y412249D01*
X386990Y412110D01*
X386232D01*
Y412119D01*
X386214Y412138D01*
X386204Y412175D01*
X386177Y412221D01*
X386149Y412277D01*
X386112Y412341D01*
X386020Y412499D01*
X385918Y412683D01*
X385788Y412868D01*
X385640Y413063D01*
X385483Y413257D01*
X385474Y413266D01*
X385465Y413275D01*
X385437Y413303D01*
X385409Y413340D01*
X385317Y413423D01*
X385206Y413534D01*
X385076Y413645D01*
X384929Y413765D01*
X384781Y413867D01*
X384623Y413959D01*
Y414468D01*
X391049D01*
Y413682D01*
D02*
G37*
G36*
X389071Y410779D02*
X389126Y410760D01*
X389200Y410733D01*
X389283Y410705D01*
X389385Y410668D01*
X389496Y410622D01*
X389616Y410566D01*
X389875Y410437D01*
X390134Y410270D01*
X390263Y410169D01*
X390393Y410067D01*
X390504Y409956D01*
X390615Y409827D01*
X390624Y409817D01*
X390642Y409799D01*
X390661Y409753D01*
X390698Y409706D01*
X390744Y409632D01*
X390790Y409558D01*
X390836Y409457D01*
X390883Y409355D01*
X390938Y409235D01*
X390984Y409105D01*
X391031Y408967D01*
X391077Y408819D01*
X391114Y408662D01*
X391132Y408495D01*
X391151Y408320D01*
X391160Y408135D01*
Y408033D01*
X391151Y407959D01*
Y407876D01*
X391142Y407774D01*
X391123Y407663D01*
X391105Y407534D01*
X391058Y407266D01*
X390984Y406988D01*
X390883Y406711D01*
X390818Y406581D01*
X390744Y406452D01*
X390735Y406443D01*
X390726Y406424D01*
X390698Y406387D01*
X390661Y406350D01*
X390624Y406295D01*
X390568Y406230D01*
X390504Y406156D01*
X390430Y406082D01*
X390346Y406008D01*
X390263Y405925D01*
X390051Y405759D01*
X389801Y405601D01*
X389524Y405463D01*
X389514D01*
X389487Y405444D01*
X389440Y405435D01*
X389385Y405407D01*
X389311Y405389D01*
X389218Y405361D01*
X389117Y405324D01*
X389006Y405296D01*
X388886Y405269D01*
X388747Y405232D01*
X388460Y405185D01*
X388137Y405148D01*
X387804Y405130D01*
X387795D01*
X387758D01*
X387702D01*
X387637Y405139D01*
X387545D01*
X387453Y405148D01*
X387332Y405158D01*
X387212Y405176D01*
X386944Y405222D01*
X386648Y405287D01*
X386352Y405379D01*
X386066Y405509D01*
X386057Y405518D01*
X386029Y405527D01*
X385992Y405546D01*
X385946Y405583D01*
X385881Y405620D01*
X385807Y405666D01*
X385640Y405786D01*
X385456Y405943D01*
X385271Y406128D01*
X385086Y406341D01*
X384929Y406591D01*
X384919Y406600D01*
X384910Y406628D01*
X384892Y406665D01*
X384864Y406711D01*
X384836Y406785D01*
X384808Y406859D01*
X384771Y406951D01*
X384734Y407053D01*
X384697Y407164D01*
X384660Y407284D01*
X384605Y407543D01*
X384559Y407839D01*
X384540Y408144D01*
Y408236D01*
X384549Y408301D01*
X384559Y408384D01*
X384568Y408486D01*
X384577Y408588D01*
X384605Y408708D01*
X384660Y408958D01*
X384744Y409235D01*
X384799Y409374D01*
X384864Y409503D01*
X384947Y409632D01*
X385030Y409762D01*
X385039Y409771D01*
X385049Y409790D01*
X385076Y409827D01*
X385123Y409873D01*
X385169Y409919D01*
X385234Y409984D01*
X385308Y410048D01*
X385382Y410122D01*
X385474Y410196D01*
X385585Y410270D01*
X385696Y410354D01*
X385816Y410428D01*
X385955Y410492D01*
X386093Y410566D01*
X386241Y410622D01*
X386408Y410677D01*
X386602Y409845D01*
X386593D01*
X386574Y409836D01*
X386537Y409817D01*
X386491Y409799D01*
X386436Y409780D01*
X386362Y409753D01*
X386214Y409679D01*
X386047Y409586D01*
X385881Y409475D01*
X385724Y409337D01*
X385585Y409189D01*
X385566Y409170D01*
X385530Y409115D01*
X385483Y409022D01*
X385419Y408902D01*
X385363Y408745D01*
X385308Y408569D01*
X385271Y408357D01*
X385261Y408125D01*
Y408051D01*
X385271Y408005D01*
Y407940D01*
X385280Y407867D01*
X385308Y407691D01*
X385345Y407497D01*
X385409Y407293D01*
X385502Y407081D01*
X385622Y406886D01*
Y406877D01*
X385640Y406868D01*
X385687Y406803D01*
X385761Y406720D01*
X385872Y406618D01*
X386010Y406498D01*
X386167Y406387D01*
X386362Y406286D01*
X386574Y406193D01*
X386584D01*
X386602Y406184D01*
X386630Y406175D01*
X386676Y406165D01*
X386731Y406147D01*
X386796Y406128D01*
X386953Y406101D01*
X387138Y406064D01*
X387342Y406027D01*
X387564Y406008D01*
X387804Y405999D01*
X387813D01*
X387841D01*
X387887D01*
X387943D01*
X388007Y406008D01*
X388091D01*
X388183Y406017D01*
X388285Y406027D01*
X388507Y406054D01*
X388747Y406101D01*
X388987Y406156D01*
X389228Y406230D01*
X389237D01*
X389255Y406239D01*
X389283Y406258D01*
X389329Y406276D01*
X389440Y406332D01*
X389570Y406415D01*
X389718Y406517D01*
X389875Y406646D01*
X390014Y406794D01*
X390143Y406970D01*
Y406979D01*
X390152Y406997D01*
X390171Y407025D01*
X390189Y407062D01*
X390208Y407108D01*
X390235Y407164D01*
X390291Y407293D01*
X390346Y407460D01*
X390393Y407645D01*
X390430Y407848D01*
X390439Y408061D01*
Y408125D01*
X390430Y408181D01*
Y408246D01*
X390420Y408310D01*
X390383Y408477D01*
X390337Y408671D01*
X390263Y408865D01*
X390162Y409068D01*
X390106Y409170D01*
X390032Y409263D01*
X390023Y409272D01*
X390014Y409281D01*
X389986Y409309D01*
X389958Y409346D01*
X389912Y409383D01*
X389856Y409429D01*
X389801Y409485D01*
X389727Y409531D01*
X389644Y409586D01*
X389551Y409651D01*
X389459Y409706D01*
X389348Y409762D01*
X389228Y409808D01*
X389098Y409854D01*
X388960Y409901D01*
X388812Y409938D01*
X389024Y410788D01*
X389034D01*
X389071Y410779D01*
D02*
G37*
G36*
X43119Y148581D02*
X43193Y148572D01*
X43267Y148562D01*
X43461Y148525D01*
X43664Y148470D01*
X43877Y148387D01*
X43988Y148331D01*
X44090Y148266D01*
X44182Y148192D01*
X44275Y148109D01*
X44284Y148100D01*
X44293Y148091D01*
X44312Y148054D01*
X44339Y148017D01*
X44376Y147971D01*
X44413Y147906D01*
X44450Y147832D01*
X44497Y147749D01*
X44534Y147656D01*
X44571Y147545D01*
X44608Y147434D01*
X44644Y147305D01*
X44663Y147166D01*
X44691Y147009D01*
X44700Y146852D01*
Y146676D01*
X43933Y146565D01*
Y146574D01*
Y146593D01*
Y146630D01*
X43923Y146685D01*
X43914Y146741D01*
Y146806D01*
X43886Y146963D01*
X43859Y147129D01*
X43803Y147296D01*
X43748Y147444D01*
X43711Y147508D01*
X43664Y147564D01*
X43655Y147573D01*
X43618Y147601D01*
X43563Y147647D01*
X43489Y147693D01*
X43387Y147749D01*
X43276Y147786D01*
X43137Y147823D01*
X42990Y147832D01*
X42934D01*
X42879Y147823D01*
X42795Y147813D01*
X42712Y147795D01*
X42620Y147776D01*
X42527Y147739D01*
X42435Y147693D01*
X42426Y147684D01*
X42398Y147665D01*
X42361Y147628D01*
X42305Y147591D01*
X42259Y147527D01*
X42204Y147462D01*
X42158Y147388D01*
X42120Y147296D01*
Y147286D01*
X42102Y147249D01*
X42093Y147185D01*
X42074Y147101D01*
X42056Y146990D01*
X42046Y146852D01*
X42028Y146685D01*
Y146491D01*
Y142081D01*
X41177D01*
Y146445D01*
Y146454D01*
Y146482D01*
Y146519D01*
Y146574D01*
X41187Y146648D01*
Y146722D01*
X41205Y146898D01*
X41224Y147101D01*
X41261Y147314D01*
X41316Y147508D01*
X41381Y147693D01*
Y147702D01*
X41390Y147712D01*
X41418Y147767D01*
X41464Y147841D01*
X41529Y147943D01*
X41621Y148045D01*
X41723Y148155D01*
X41852Y148266D01*
X42000Y148359D01*
X42019Y148368D01*
X42074Y148396D01*
X42158Y148433D01*
X42278Y148470D01*
X42426Y148516D01*
X42592Y148553D01*
X42777Y148581D01*
X42980Y148590D01*
X43064D01*
X43119Y148581D01*
D02*
G37*
G36*
X37942Y143477D02*
X37951Y143486D01*
X37997Y143523D01*
X38052Y143579D01*
X38145Y143644D01*
X38247Y143727D01*
X38376Y143819D01*
X38524Y143921D01*
X38690Y144023D01*
X38700D01*
X38709Y144032D01*
X38764Y144069D01*
X38857Y144115D01*
X38968Y144171D01*
X39097Y144235D01*
X39236Y144300D01*
X39374Y144365D01*
X39513Y144420D01*
Y143662D01*
X39504D01*
X39485Y143644D01*
X39448Y143634D01*
X39402Y143607D01*
X39347Y143579D01*
X39282Y143542D01*
X39125Y143449D01*
X38940Y143348D01*
X38755Y143218D01*
X38561Y143070D01*
X38367Y142913D01*
X38358Y142904D01*
X38348Y142895D01*
X38321Y142867D01*
X38284Y142839D01*
X38200Y142747D01*
X38089Y142636D01*
X37978Y142506D01*
X37858Y142359D01*
X37757Y142211D01*
X37664Y142053D01*
X37156D01*
Y148479D01*
X37942D01*
Y143477D01*
D02*
G37*
G36*
X67452Y422143D02*
X67443D01*
X67425D01*
X67388D01*
X67332Y422133D01*
X67277Y422124D01*
X67212D01*
X67055Y422096D01*
X66888Y422069D01*
X66722Y422013D01*
X66574Y421958D01*
X66509Y421921D01*
X66454Y421875D01*
X66445Y421865D01*
X66417Y421828D01*
X66371Y421773D01*
X66324Y421699D01*
X66269Y421597D01*
X66232Y421486D01*
X66195Y421348D01*
X66186Y421200D01*
Y421144D01*
X66195Y421089D01*
X66204Y421005D01*
X66223Y420922D01*
X66241Y420830D01*
X66278Y420737D01*
X66324Y420645D01*
X66334Y420636D01*
X66352Y420608D01*
X66389Y420571D01*
X66426Y420515D01*
X66491Y420469D01*
X66556Y420414D01*
X66630Y420368D01*
X66722Y420331D01*
X66731D01*
X66768Y420312D01*
X66833Y420303D01*
X66916Y420284D01*
X67027Y420266D01*
X67166Y420257D01*
X67332Y420238D01*
X67526D01*
X71936D01*
Y419387D01*
X67572D01*
X67563D01*
X67536D01*
X67499D01*
X67443D01*
X67369Y419397D01*
X67295D01*
X67119Y419415D01*
X66916Y419434D01*
X66703Y419471D01*
X66509Y419526D01*
X66324Y419591D01*
X66315D01*
X66306Y419600D01*
X66250Y419628D01*
X66176Y419674D01*
X66075Y419739D01*
X65973Y419831D01*
X65862Y419933D01*
X65751Y420062D01*
X65659Y420210D01*
X65649Y420229D01*
X65622Y420284D01*
X65585Y420368D01*
X65548Y420488D01*
X65501Y420636D01*
X65465Y420802D01*
X65437Y420987D01*
X65428Y421190D01*
Y421273D01*
X65437Y421329D01*
X65446Y421403D01*
X65455Y421477D01*
X65492Y421671D01*
X65548Y421875D01*
X65631Y422087D01*
X65686Y422198D01*
X65751Y422300D01*
X65825Y422392D01*
X65908Y422485D01*
X65918Y422494D01*
X65927Y422503D01*
X65964Y422522D01*
X66001Y422549D01*
X66047Y422586D01*
X66112Y422623D01*
X66186Y422660D01*
X66269Y422707D01*
X66361Y422744D01*
X66472Y422781D01*
X66583Y422817D01*
X66713Y422854D01*
X66851Y422873D01*
X67009Y422901D01*
X67166Y422910D01*
X67341D01*
X67452Y422143D01*
D02*
G37*
G36*
X71936Y415661D02*
Y415023D01*
X67794D01*
Y414154D01*
X67073D01*
Y415023D01*
X65539D01*
Y415809D01*
X67073D01*
Y418592D01*
X67794D01*
X71936Y415661D01*
D02*
G37*
G36*
X401484Y189221D02*
X401558D01*
X401650Y189212D01*
X401752Y189202D01*
X401854Y189193D01*
X402085Y189156D01*
X402335Y189101D01*
X402575Y189027D01*
X402806Y188925D01*
X402815D01*
X402834Y188906D01*
X402862Y188888D01*
X402898Y188869D01*
X403000Y188796D01*
X403120Y188694D01*
X403259Y188564D01*
X403389Y188417D01*
X403518Y188232D01*
X403620Y188028D01*
Y188019D01*
X403629Y188001D01*
X403638Y187964D01*
X403657Y187917D01*
X403675Y187862D01*
X403694Y187788D01*
X403721Y187705D01*
X403740Y187603D01*
X403758Y187492D01*
X403786Y187372D01*
X403805Y187242D01*
X403823Y187104D01*
X403842Y186947D01*
X403851Y186780D01*
X403860Y186604D01*
Y186420D01*
Y182721D01*
X403009D01*
Y186420D01*
Y186429D01*
Y186456D01*
Y186503D01*
Y186558D01*
X403000Y186623D01*
Y186706D01*
X402991Y186882D01*
X402972Y187085D01*
X402945Y187289D01*
X402908Y187483D01*
X402889Y187566D01*
X402862Y187649D01*
X402852Y187668D01*
X402834Y187714D01*
X402788Y187779D01*
X402732Y187871D01*
X402667Y187964D01*
X402575Y188065D01*
X402464Y188167D01*
X402335Y188250D01*
X402316Y188259D01*
X402270Y188287D01*
X402187Y188315D01*
X402076Y188352D01*
X401946Y188398D01*
X401780Y188426D01*
X401604Y188454D01*
X401410Y188463D01*
X401317D01*
X401262Y188454D01*
X401179D01*
X401096Y188444D01*
X400892Y188407D01*
X400670Y188361D01*
X400458Y188287D01*
X400254Y188185D01*
X400162Y188121D01*
X400079Y188047D01*
X400069Y188037D01*
X400060Y188028D01*
X400042Y188001D01*
X400014Y187964D01*
X399986Y187908D01*
X399949Y187852D01*
X399912Y187769D01*
X399875Y187686D01*
X399838Y187584D01*
X399810Y187464D01*
X399773Y187325D01*
X399746Y187178D01*
X399718Y187011D01*
X399700Y186835D01*
X399681Y186632D01*
Y186420D01*
Y182721D01*
X398830D01*
Y186420D01*
Y186429D01*
Y186466D01*
Y186512D01*
Y186577D01*
X398840Y186660D01*
Y186752D01*
X398849Y186863D01*
X398858Y186974D01*
X398886Y187224D01*
X398923Y187483D01*
X398978Y187732D01*
X399015Y187852D01*
X399052Y187964D01*
Y187973D01*
X399062Y187991D01*
X399080Y188019D01*
X399099Y188056D01*
X399154Y188158D01*
X399237Y188287D01*
X399348Y188435D01*
X399478Y188583D01*
X399644Y188740D01*
X399847Y188879D01*
X399857D01*
X399875Y188897D01*
X399903Y188906D01*
X399949Y188934D01*
X400005Y188962D01*
X400079Y188990D01*
X400153Y189018D01*
X400245Y189055D01*
X400347Y189091D01*
X400458Y189119D01*
X400578Y189147D01*
X400717Y189175D01*
X400855Y189193D01*
X401003Y189212D01*
X401336Y189230D01*
X401419D01*
X401484Y189221D01*
D02*
G37*
G36*
X395567Y184117D02*
X395576Y184127D01*
X395622Y184163D01*
X395678Y184219D01*
X395770Y184284D01*
X395872Y184367D01*
X396001Y184459D01*
X396149Y184561D01*
X396316Y184663D01*
X396325D01*
X396334Y184672D01*
X396390Y184709D01*
X396482Y184755D01*
X396593Y184811D01*
X396722Y184875D01*
X396861Y184940D01*
X397000Y185005D01*
X397138Y185060D01*
Y184302D01*
X397129D01*
X397111Y184284D01*
X397074Y184275D01*
X397028Y184247D01*
X396972Y184219D01*
X396907Y184182D01*
X396750Y184090D01*
X396565Y183988D01*
X396380Y183858D01*
X396186Y183710D01*
X395992Y183553D01*
X395983Y183544D01*
X395974Y183535D01*
X395946Y183507D01*
X395909Y183479D01*
X395826Y183387D01*
X395715Y183276D01*
X395604Y183146D01*
X395484Y182999D01*
X395382Y182851D01*
X395289Y182694D01*
X394781D01*
Y189119D01*
X395567D01*
Y184117D01*
D02*
G37*
G36*
X80827Y307759D02*
X77128D01*
X77119D01*
X77091D01*
X77045D01*
X76989D01*
X76925Y307750D01*
X76842D01*
X76666Y307741D01*
X76462Y307722D01*
X76259Y307695D01*
X76065Y307658D01*
X75982Y307639D01*
X75899Y307612D01*
X75880Y307602D01*
X75834Y307584D01*
X75769Y307537D01*
X75677Y307482D01*
X75584Y307417D01*
X75483Y307325D01*
X75381Y307214D01*
X75298Y307085D01*
X75288Y307066D01*
X75261Y307020D01*
X75233Y306936D01*
X75196Y306826D01*
X75150Y306696D01*
X75122Y306530D01*
X75094Y306354D01*
X75085Y306160D01*
Y306068D01*
X75094Y306012D01*
Y305929D01*
X75103Y305846D01*
X75140Y305642D01*
X75187Y305420D01*
X75261Y305208D01*
X75362Y305004D01*
X75427Y304912D01*
X75501Y304828D01*
X75510Y304819D01*
X75519Y304810D01*
X75547Y304792D01*
X75584Y304764D01*
X75640Y304736D01*
X75695Y304699D01*
X75778Y304662D01*
X75862Y304625D01*
X75963Y304588D01*
X76083Y304560D01*
X76222Y304523D01*
X76370Y304496D01*
X76536Y304468D01*
X76712Y304450D01*
X76916Y304431D01*
X77128D01*
X80827D01*
Y303580D01*
X77128D01*
X77119D01*
X77082D01*
X77036D01*
X76971D01*
X76888Y303590D01*
X76795D01*
X76684Y303599D01*
X76574Y303608D01*
X76324Y303636D01*
X76065Y303673D01*
X75815Y303728D01*
X75695Y303765D01*
X75584Y303802D01*
X75575D01*
X75557Y303811D01*
X75529Y303830D01*
X75492Y303848D01*
X75390Y303904D01*
X75261Y303987D01*
X75113Y304098D01*
X74965Y304228D01*
X74808Y304394D01*
X74669Y304597D01*
Y304607D01*
X74650Y304625D01*
X74641Y304653D01*
X74613Y304699D01*
X74586Y304755D01*
X74558Y304828D01*
X74530Y304902D01*
X74493Y304995D01*
X74456Y305097D01*
X74429Y305208D01*
X74401Y305328D01*
X74373Y305466D01*
X74355Y305605D01*
X74336Y305753D01*
X74318Y306086D01*
Y306169D01*
X74327Y306234D01*
Y306308D01*
X74336Y306400D01*
X74345Y306502D01*
X74355Y306604D01*
X74391Y306835D01*
X74447Y307085D01*
X74521Y307325D01*
X74623Y307556D01*
Y307565D01*
X74641Y307584D01*
X74660Y307612D01*
X74678Y307649D01*
X74752Y307750D01*
X74854Y307870D01*
X74983Y308009D01*
X75131Y308139D01*
X75316Y308268D01*
X75519Y308370D01*
X75529D01*
X75547Y308379D01*
X75584Y308388D01*
X75630Y308407D01*
X75686Y308425D01*
X75760Y308444D01*
X75843Y308471D01*
X75945Y308490D01*
X76056Y308508D01*
X76176Y308536D01*
X76305Y308554D01*
X76444Y308573D01*
X76601Y308591D01*
X76768Y308601D01*
X76943Y308610D01*
X77128D01*
X80827D01*
Y307759D01*
D02*
G37*
G36*
Y299827D02*
Y299189D01*
X76684D01*
Y298320D01*
X75963D01*
Y299189D01*
X74429D01*
Y299975D01*
X75963D01*
Y302757D01*
X76684D01*
X80827Y299827D01*
D02*
G37*
G36*
X205171Y431365D02*
X205291Y431347D01*
X205439Y431319D01*
X205606Y431273D01*
X205772Y431217D01*
X205938Y431143D01*
X205948D01*
X205957Y431134D01*
X206012Y431106D01*
X206096Y431051D01*
X206188Y430986D01*
X206299Y430893D01*
X206410Y430792D01*
X206521Y430672D01*
X206613Y430533D01*
X206623Y430514D01*
X206650Y430468D01*
X206687Y430385D01*
X206733Y430283D01*
X206780Y430163D01*
X206817Y430024D01*
X206845Y429867D01*
X206854Y429710D01*
Y429692D01*
Y429636D01*
X206845Y429562D01*
X206826Y429460D01*
X206798Y429340D01*
X206752Y429211D01*
X206697Y429081D01*
X206623Y428952D01*
X206613Y428933D01*
X206586Y428896D01*
X206530Y428832D01*
X206456Y428758D01*
X206364Y428675D01*
X206253Y428582D01*
X206123Y428499D01*
X205966Y428416D01*
X205975D01*
X205994Y428406D01*
X206022Y428397D01*
X206059Y428388D01*
X206160Y428351D01*
X206290Y428295D01*
X206438Y428221D01*
X206586Y428129D01*
X206724Y428009D01*
X206854Y427870D01*
X206863Y427852D01*
X206900Y427796D01*
X206955Y427704D01*
X207011Y427584D01*
X207066Y427436D01*
X207122Y427260D01*
X207159Y427057D01*
X207168Y426835D01*
Y426825D01*
Y426798D01*
Y426751D01*
X207159Y426696D01*
X207150Y426622D01*
X207131Y426539D01*
X207113Y426446D01*
X207094Y426345D01*
X207020Y426123D01*
X206965Y426003D01*
X206909Y425892D01*
X206835Y425771D01*
X206752Y425651D01*
X206660Y425531D01*
X206549Y425420D01*
X206539Y425411D01*
X206521Y425392D01*
X206484Y425365D01*
X206438Y425328D01*
X206382Y425281D01*
X206308Y425235D01*
X206225Y425180D01*
X206123Y425133D01*
X206022Y425078D01*
X205901Y425023D01*
X205781Y424976D01*
X205643Y424930D01*
X205495Y424893D01*
X205338Y424865D01*
X205180Y424847D01*
X205005Y424838D01*
X204921D01*
X204866Y424847D01*
X204792Y424856D01*
X204709Y424865D01*
X204616Y424884D01*
X204515Y424902D01*
X204293Y424958D01*
X204062Y425050D01*
X203941Y425106D01*
X203830Y425170D01*
X203720Y425254D01*
X203608Y425337D01*
X203599Y425346D01*
X203581Y425365D01*
X203553Y425392D01*
X203525Y425429D01*
X203479Y425476D01*
X203433Y425540D01*
X203377Y425605D01*
X203322Y425688D01*
X203266Y425781D01*
X203211Y425873D01*
X203109Y426095D01*
X203026Y426354D01*
X202998Y426493D01*
X202980Y426640D01*
X203766Y426742D01*
Y426733D01*
X203775Y426714D01*
X203784Y426677D01*
X203793Y426631D01*
X203803Y426576D01*
X203821Y426511D01*
X203867Y426372D01*
X203932Y426206D01*
X204015Y426049D01*
X204108Y425901D01*
X204219Y425771D01*
X204237Y425762D01*
X204274Y425725D01*
X204348Y425679D01*
X204441Y425633D01*
X204552Y425577D01*
X204690Y425531D01*
X204847Y425494D01*
X205014Y425485D01*
X205069D01*
X205106Y425494D01*
X205208Y425503D01*
X205338Y425531D01*
X205485Y425577D01*
X205643Y425642D01*
X205800Y425734D01*
X205948Y425864D01*
X205966Y425882D01*
X206012Y425938D01*
X206068Y426021D01*
X206142Y426132D01*
X206216Y426271D01*
X206271Y426428D01*
X206318Y426613D01*
X206336Y426816D01*
Y426825D01*
Y426844D01*
Y426872D01*
X206327Y426909D01*
X206318Y427010D01*
X206290Y427131D01*
X206253Y427278D01*
X206188Y427426D01*
X206096Y427574D01*
X205975Y427713D01*
X205957Y427731D01*
X205911Y427768D01*
X205837Y427824D01*
X205735Y427889D01*
X205606Y427953D01*
X205448Y428009D01*
X205273Y428046D01*
X205079Y428064D01*
X204995D01*
X204931Y428055D01*
X204847Y428046D01*
X204755Y428027D01*
X204644Y428009D01*
X204524Y427981D01*
X204616Y428675D01*
X204662D01*
X204699Y428665D01*
X204820D01*
X204921Y428684D01*
X205042Y428702D01*
X205180Y428730D01*
X205338Y428776D01*
X205485Y428841D01*
X205643Y428924D01*
X205652D01*
X205661Y428933D01*
X205707Y428970D01*
X205772Y429035D01*
X205846Y429118D01*
X205920Y429239D01*
X205985Y429377D01*
X206031Y429534D01*
X206049Y429627D01*
Y429729D01*
Y429738D01*
Y429747D01*
Y429802D01*
X206031Y429876D01*
X206012Y429978D01*
X205975Y430089D01*
X205929Y430209D01*
X205855Y430329D01*
X205753Y430440D01*
X205744Y430450D01*
X205698Y430487D01*
X205633Y430533D01*
X205550Y430588D01*
X205439Y430634D01*
X205310Y430681D01*
X205162Y430718D01*
X204995Y430727D01*
X204921D01*
X204838Y430709D01*
X204727Y430690D01*
X204607Y430653D01*
X204487Y430607D01*
X204357Y430533D01*
X204237Y430440D01*
X204228Y430431D01*
X204191Y430385D01*
X204135Y430320D01*
X204071Y430228D01*
X204006Y430107D01*
X203941Y429960D01*
X203886Y429784D01*
X203849Y429580D01*
X203063Y429719D01*
Y429729D01*
X203072Y429756D01*
X203081Y429793D01*
X203091Y429849D01*
X203109Y429913D01*
X203137Y429987D01*
X203193Y430163D01*
X203285Y430366D01*
X203396Y430570D01*
X203535Y430764D01*
X203710Y430940D01*
X203720Y430949D01*
X203738Y430958D01*
X203766Y430977D01*
X203803Y431004D01*
X203849Y431041D01*
X203914Y431078D01*
X203978Y431115D01*
X204062Y431161D01*
X204247Y431236D01*
X204459Y431310D01*
X204709Y431356D01*
X204838Y431374D01*
X205069D01*
X205171Y431365D01*
D02*
G37*
G36*
X201880Y427648D02*
Y427639D01*
Y427602D01*
Y427556D01*
Y427491D01*
X201870Y427408D01*
Y427315D01*
X201861Y427204D01*
X201852Y427094D01*
X201824Y426844D01*
X201787Y426585D01*
X201732Y426335D01*
X201695Y426215D01*
X201658Y426104D01*
Y426095D01*
X201649Y426077D01*
X201630Y426049D01*
X201611Y426012D01*
X201556Y425910D01*
X201473Y425781D01*
X201362Y425633D01*
X201232Y425485D01*
X201066Y425328D01*
X200863Y425189D01*
X200853D01*
X200835Y425170D01*
X200807Y425161D01*
X200761Y425133D01*
X200705Y425106D01*
X200632Y425078D01*
X200557Y425050D01*
X200465Y425013D01*
X200363Y424976D01*
X200252Y424949D01*
X200132Y424921D01*
X199993Y424893D01*
X199855Y424874D01*
X199707Y424856D01*
X199374Y424838D01*
X199291D01*
X199226Y424847D01*
X199152D01*
X199060Y424856D01*
X198958Y424865D01*
X198856Y424874D01*
X198625Y424911D01*
X198375Y424967D01*
X198135Y425041D01*
X197904Y425143D01*
X197895D01*
X197876Y425161D01*
X197848Y425180D01*
X197812Y425198D01*
X197710Y425272D01*
X197590Y425374D01*
X197451Y425503D01*
X197321Y425651D01*
X197192Y425836D01*
X197090Y426040D01*
Y426049D01*
X197081Y426067D01*
X197072Y426104D01*
X197053Y426150D01*
X197035Y426206D01*
X197016Y426280D01*
X196989Y426363D01*
X196970Y426465D01*
X196952Y426576D01*
X196924Y426696D01*
X196905Y426825D01*
X196887Y426964D01*
X196868Y427121D01*
X196859Y427288D01*
X196850Y427463D01*
Y427648D01*
Y431347D01*
X197701D01*
Y427648D01*
Y427639D01*
Y427611D01*
Y427565D01*
Y427509D01*
X197710Y427445D01*
Y427362D01*
X197719Y427186D01*
X197738Y426982D01*
X197765Y426779D01*
X197802Y426585D01*
X197821Y426502D01*
X197848Y426419D01*
X197858Y426400D01*
X197876Y426354D01*
X197922Y426289D01*
X197978Y426197D01*
X198043Y426104D01*
X198135Y426003D01*
X198246Y425901D01*
X198375Y425818D01*
X198394Y425808D01*
X198440Y425781D01*
X198524Y425753D01*
X198634Y425716D01*
X198764Y425670D01*
X198930Y425642D01*
X199106Y425614D01*
X199300Y425605D01*
X199393D01*
X199448Y425614D01*
X199531D01*
X199614Y425623D01*
X199818Y425660D01*
X200040Y425707D01*
X200252Y425781D01*
X200456Y425882D01*
X200548Y425947D01*
X200632Y426021D01*
X200641Y426030D01*
X200650Y426040D01*
X200668Y426067D01*
X200696Y426104D01*
X200724Y426160D01*
X200761Y426215D01*
X200798Y426298D01*
X200835Y426382D01*
X200872Y426483D01*
X200900Y426604D01*
X200937Y426742D01*
X200964Y426890D01*
X200992Y427057D01*
X201010Y427232D01*
X201029Y427436D01*
Y427648D01*
Y431347D01*
X201880D01*
Y427648D01*
D02*
G37*
%LPC*%
G36*
X388793Y418998D02*
X385927D01*
X388793Y416983D01*
Y418998D01*
D02*
G37*
G36*
X67794Y417825D02*
Y415809D01*
X70661D01*
X67794Y417825D01*
D02*
G37*
G36*
X76684Y301990D02*
Y299975D01*
X79551D01*
X76684Y301990D01*
D02*
G37*
%LPD*%
D11*
X526060Y417560D02*
Y453660D01*
X459460D02*
X526060D01*
X459460Y417560D02*
Y453660D01*
Y417560D02*
X526060D01*
X336160Y338630D02*
Y471630D01*
X446160D01*
Y338630D02*
Y471630D01*
X336160Y338630D02*
X446160D01*
X516890Y45720D02*
Y55880D01*
X572770Y45720D02*
Y55880D01*
X567690Y-40640D02*
X572770D01*
X542290D02*
X547370D01*
X516890D02*
X521970D01*
X572770D02*
Y20320D01*
X567690Y-40640D02*
Y20320D01*
X547370Y-40640D02*
Y20320D01*
X542290Y-40640D02*
Y20320D01*
X521970Y-40640D02*
Y20320D01*
X516890Y-40640D02*
Y20320D01*
X572770D02*
X582930D01*
X547370D02*
X567690D01*
X521970D02*
X542290D01*
X506730D02*
X516890D01*
X582930D02*
Y40640D01*
X506730Y20320D02*
Y40640D01*
X577850D02*
X582930D01*
X506730D02*
X511810D01*
X577850D02*
Y45720D01*
X511810Y40640D02*
Y45720D01*
X572770D02*
X577850D01*
X511810D02*
X516890D01*
X505130Y81280D02*
X584530D01*
X505130Y55880D02*
Y81280D01*
X584530Y55880D02*
Y81280D01*
X505130Y55880D02*
X584530D01*
X539830Y68580D02*
X549830D01*
X544830Y63580D02*
Y73580D01*
X81010Y385207D02*
Y460613D01*
X53610Y385207D02*
X81010D01*
X53610D02*
Y460613D01*
X81010D01*
X460391Y132699D02*
Y245761D01*
X347329D02*
X460391D01*
X347329Y132699D02*
Y245761D01*
Y132699D02*
X460391D01*
X56200Y333171D02*
X96200D01*
X56200Y284049D02*
Y333171D01*
Y284049D02*
X96200D01*
Y333171D01*
X155319Y397220D02*
Y456220D01*
Y397220D02*
X238381D01*
Y456220D01*
X155319D02*
X238381D01*
D13*
X37080Y250190D02*
X52320D01*
Y46990D02*
Y250190D01*
X37080Y46990D02*
Y250190D01*
Y46990D02*
X52320D01*
M02*
