G04*
G04 #@! TF.GenerationSoftware,Altium Limited,Altium Designer,24.9.1 (31)*
G04*
G04 Layer_Color=16711935*
%FSLAX44Y44*%
%MOMM*%
G71*
G04*
G04 #@! TF.SameCoordinates,DBAFCBE9-9C6E-486A-AB20-CA00A55F4774*
G04*
G04*
G04 #@! TF.FilePolarity,Negative*
G04*
G01*
G75*
%ADD71R,1.2032X1.1032*%
%ADD72R,2.0032X1.5032*%
G04:AMPARAMS|DCode=74|XSize=0.5032mm|YSize=0.5032mm|CornerRadius=0.1511mm|HoleSize=0mm|Usage=FLASHONLY|Rotation=270.000|XOffset=0mm|YOffset=0mm|HoleType=Round|Shape=RoundedRectangle|*
%AMROUNDEDRECTD74*
21,1,0.5032,0.2010,0,0,270.0*
21,1,0.2010,0.5032,0,0,270.0*
1,1,0.3022,-0.1005,-0.1005*
1,1,0.3022,-0.1005,0.1005*
1,1,0.3022,0.1005,0.1005*
1,1,0.3022,0.1005,-0.1005*
%
%ADD74ROUNDEDRECTD74*%
%ADD76R,1.5032X2.0032*%
%ADD77R,1.5032X1.6032*%
%ADD78R,1.1032X1.2032*%
%ADD79R,0.8032X0.7032*%
%ADD80R,1.0532X1.1532*%
%ADD96R,1.6032X1.5032*%
%ADD99C,3.7032*%
%ADD100C,2.2032*%
%ADD101C,1.4532*%
%ADD102C,1.3032*%
G04:AMPARAMS|DCode=103|XSize=1.3032mm|YSize=1.3032mm|CornerRadius=0.3766mm|HoleSize=0mm|Usage=FLASHONLY|Rotation=180.000|XOffset=0mm|YOffset=0mm|HoleType=Round|Shape=RoundedRectangle|*
%AMROUNDEDRECTD103*
21,1,1.3032,0.5500,0,0,180.0*
21,1,0.5500,1.3032,0,0,180.0*
1,1,0.7532,-0.2750,0.2750*
1,1,0.7532,0.2750,0.2750*
1,1,0.7532,0.2750,-0.2750*
1,1,0.7532,-0.2750,-0.2750*
%
%ADD103ROUNDEDRECTD103*%
%ADD104R,1.3890X1.3890*%
%ADD105C,1.3890*%
%ADD106C,0.2032*%
%ADD138R,2.1032X0.8532*%
%ADD139R,1.1032X1.0032*%
%ADD140R,0.6032X0.7032*%
D71*
X406400Y261220D02*
D03*
Y274720D02*
D03*
X425450D02*
D03*
Y261220D02*
D03*
X373380Y274720D02*
D03*
Y261220D02*
D03*
X355600Y274720D02*
D03*
Y261220D02*
D03*
X431800Y87230D02*
D03*
Y100730D02*
D03*
X447040Y87230D02*
D03*
Y100730D02*
D03*
X401320Y87230D02*
D03*
Y100730D02*
D03*
X416560Y87230D02*
D03*
Y100730D02*
D03*
D72*
X358140Y71860D02*
D03*
Y100860D02*
D03*
D74*
X59500Y213050D02*
D03*
X68000Y209550D02*
D03*
X59500Y206050D02*
D03*
X60080Y145090D02*
D03*
X68580Y148590D02*
D03*
X60080Y152090D02*
D03*
D76*
X308610Y119380D02*
D03*
X279610D02*
D03*
X290300Y240030D02*
D03*
X319300D02*
D03*
D77*
X188850Y468630D02*
D03*
X204850D02*
D03*
X310260Y170180D02*
D03*
X294260D02*
D03*
X309880Y144780D02*
D03*
X293880D02*
D03*
D78*
X476250Y207010D02*
D03*
X489750D02*
D03*
X486810Y147320D02*
D03*
X473310D02*
D03*
Y182880D02*
D03*
X486810D02*
D03*
X295510Y99060D02*
D03*
X309010D02*
D03*
X298050Y187960D02*
D03*
X311550D02*
D03*
X306940Y219710D02*
D03*
X320440D02*
D03*
D79*
X335280Y191850D02*
D03*
Y201850D02*
D03*
D80*
X171600Y383540D02*
D03*
X158600D02*
D03*
X68280Y240030D02*
D03*
X81280D02*
D03*
D96*
X248920Y432180D02*
D03*
Y416180D02*
D03*
X382270Y99440D02*
D03*
Y83440D02*
D03*
D99*
X27540Y27540D02*
D03*
X754380D02*
D03*
X27540Y609600D02*
D03*
X754380Y608730D02*
D03*
D100*
X760730Y547630D02*
D03*
Y87630D02*
D03*
X544830Y68580D02*
D03*
X519430D02*
D03*
X570230D02*
D03*
X335280Y118110D02*
D03*
X471170Y119380D02*
D03*
X472060Y261240D02*
D03*
D101*
X720730Y517630D02*
D03*
Y117630D02*
D03*
D102*
X44700Y138430D02*
D03*
Y219710D02*
D03*
Y199390D02*
D03*
Y179070D02*
D03*
Y158750D02*
D03*
Y118110D02*
D03*
Y97790D02*
D03*
Y77470D02*
D03*
Y240030D02*
D03*
D103*
Y57150D02*
D03*
D104*
X67310Y448310D02*
D03*
D105*
Y422910D02*
D03*
Y397510D02*
D03*
D106*
X391160Y577490D02*
D03*
Y532490D02*
D03*
D138*
X724730Y158880D02*
D03*
Y171580D02*
D03*
Y184280D02*
D03*
Y196980D02*
D03*
Y209680D02*
D03*
Y222380D02*
D03*
Y235080D02*
D03*
Y298580D02*
D03*
Y311280D02*
D03*
Y323980D02*
D03*
Y336680D02*
D03*
Y349380D02*
D03*
Y362080D02*
D03*
Y374780D02*
D03*
Y387480D02*
D03*
Y400180D02*
D03*
Y412880D02*
D03*
Y425580D02*
D03*
Y438280D02*
D03*
Y450980D02*
D03*
Y463680D02*
D03*
Y476380D02*
D03*
D139*
X156600Y368300D02*
D03*
X173600D02*
D03*
D140*
X70930Y226060D02*
D03*
X78930D02*
D03*
M02*
