G04*
G04 #@! TF.GenerationSoftware,Altium Limited,Altium Designer,24.9.1 (31)*
G04*
G04 Layer_Color=8388736*
%FSLAX44Y44*%
%MOMM*%
G71*
G04*
G04 #@! TF.SameCoordinates,DBAFCBE9-9C6E-486A-AB20-CA00A55F4774*
G04*
G04*
G04 #@! TF.FilePolarity,Negative*
G04*
G01*
G75*
%ADD20R,1.6800X3.1500*%
%ADD21R,2.0000X4.1000*%
G04:AMPARAMS|DCode=40|XSize=0.2427mm|YSize=1.9552mm|CornerRadius=0.1214mm|HoleSize=0mm|Usage=FLASHONLY|Rotation=180.000|XOffset=0mm|YOffset=0mm|HoleType=Round|Shape=RoundedRectangle|*
%AMROUNDEDRECTD40*
21,1,0.2427,1.7125,0,0,180.0*
21,1,0.0000,1.9552,0,0,180.0*
1,1,0.2427,0.0000,0.8563*
1,1,0.2427,0.0000,0.8563*
1,1,0.2427,0.0000,-0.8563*
1,1,0.2427,0.0000,-0.8563*
%
%ADD40ROUNDEDRECTD40*%
G04:AMPARAMS|DCode=41|XSize=1.9552mm|YSize=0.2427mm|CornerRadius=0.1214mm|HoleSize=0mm|Usage=FLASHONLY|Rotation=180.000|XOffset=0mm|YOffset=0mm|HoleType=Round|Shape=RoundedRectangle|*
%AMROUNDEDRECTD41*
21,1,1.9552,0.0000,0,0,180.0*
21,1,1.7125,0.2427,0,0,180.0*
1,1,0.2427,-0.8563,0.0000*
1,1,0.2427,0.8563,0.0000*
1,1,0.2427,0.8563,0.0000*
1,1,0.2427,-0.8563,0.0000*
%
%ADD41ROUNDEDRECTD41*%
%ADD42R,1.9552X0.2427*%
G04:AMPARAMS|DCode=51|XSize=0.9311mm|YSize=0.2393mm|CornerRadius=0.1196mm|HoleSize=0mm|Usage=FLASHONLY|Rotation=270.000|XOffset=0mm|YOffset=0mm|HoleType=Round|Shape=RoundedRectangle|*
%AMROUNDEDRECTD51*
21,1,0.9311,0.0000,0,0,270.0*
21,1,0.6918,0.2393,0,0,270.0*
1,1,0.2393,0.0000,-0.3459*
1,1,0.2393,0.0000,0.3459*
1,1,0.2393,0.0000,0.3459*
1,1,0.2393,0.0000,-0.3459*
%
%ADD51ROUNDEDRECTD51*%
%ADD52R,0.2393X0.9311*%
G04:AMPARAMS|DCode=55|XSize=2.3531mm|YSize=0.6221mm|CornerRadius=0.3111mm|HoleSize=0mm|Usage=FLASHONLY|Rotation=0.000|XOffset=0mm|YOffset=0mm|HoleType=Round|Shape=RoundedRectangle|*
%AMROUNDEDRECTD55*
21,1,2.3531,0.0000,0,0,0.0*
21,1,1.7310,0.6221,0,0,0.0*
1,1,0.6221,0.8655,0.0000*
1,1,0.6221,-0.8655,0.0000*
1,1,0.6221,-0.8655,0.0000*
1,1,0.6221,0.8655,0.0000*
%
%ADD55ROUNDEDRECTD55*%
%ADD56R,2.3531X0.6221*%
%ADD62C,3.0000*%
G04:AMPARAMS|DCode=63|XSize=1.8132mm|YSize=0.8032mm|CornerRadius=0.1766mm|HoleSize=0mm|Usage=FLASHONLY|Rotation=180.000|XOffset=0mm|YOffset=0mm|HoleType=Round|Shape=RoundedRectangle|*
%AMROUNDEDRECTD63*
21,1,1.8132,0.4500,0,0,180.0*
21,1,1.4600,0.8032,0,0,180.0*
1,1,0.3532,-0.7300,0.2250*
1,1,0.3532,0.7300,0.2250*
1,1,0.3532,0.7300,-0.2250*
1,1,0.3532,-0.7300,-0.2250*
%
%ADD63ROUNDEDRECTD63*%
G04:AMPARAMS|DCode=64|XSize=0.4032mm|YSize=0.8032mm|CornerRadius=0.1516mm|HoleSize=0mm|Usage=FLASHONLY|Rotation=180.000|XOffset=0mm|YOffset=0mm|HoleType=Round|Shape=RoundedRectangle|*
%AMROUNDEDRECTD64*
21,1,0.4032,0.5000,0,0,180.0*
21,1,0.1000,0.8032,0,0,180.0*
1,1,0.3032,-0.0500,0.2500*
1,1,0.3032,0.0500,0.2500*
1,1,0.3032,0.0500,-0.2500*
1,1,0.3032,-0.0500,-0.2500*
%
%ADD64ROUNDEDRECTD64*%
G04:AMPARAMS|DCode=65|XSize=0.4032mm|YSize=0.8032mm|CornerRadius=0.1516mm|HoleSize=0mm|Usage=FLASHONLY|Rotation=90.000|XOffset=0mm|YOffset=0mm|HoleType=Round|Shape=RoundedRectangle|*
%AMROUNDEDRECTD65*
21,1,0.4032,0.5000,0,0,90.0*
21,1,0.1000,0.8032,0,0,90.0*
1,1,0.3032,0.2500,0.0500*
1,1,0.3032,0.2500,-0.0500*
1,1,0.3032,-0.2500,-0.0500*
1,1,0.3032,-0.2500,0.0500*
%
%ADD65ROUNDEDRECTD65*%
G04:AMPARAMS|DCode=66|XSize=1.9032mm|YSize=1.9032mm|CornerRadius=0.1526mm|HoleSize=0mm|Usage=FLASHONLY|Rotation=270.000|XOffset=0mm|YOffset=0mm|HoleType=Round|Shape=RoundedRectangle|*
%AMROUNDEDRECTD66*
21,1,1.9032,1.5980,0,0,270.0*
21,1,1.5980,1.9032,0,0,270.0*
1,1,0.3052,-0.7990,-0.7990*
1,1,0.3052,-0.7990,0.7990*
1,1,0.3052,0.7990,0.7990*
1,1,0.3052,0.7990,-0.7990*
%
%ADD66ROUNDEDRECTD66*%
%ADD67R,3.0032X3.0032*%
%ADD68R,0.8032X0.8432*%
%ADD69R,0.8032X0.9532*%
%ADD70R,0.6032X0.5032*%
%ADD71R,1.2032X1.1032*%
%ADD72R,2.0032X1.5032*%
%ADD73R,1.1532X1.0532*%
G04:AMPARAMS|DCode=74|XSize=0.5032mm|YSize=0.5032mm|CornerRadius=0.1511mm|HoleSize=0mm|Usage=FLASHONLY|Rotation=270.000|XOffset=0mm|YOffset=0mm|HoleType=Round|Shape=RoundedRectangle|*
%AMROUNDEDRECTD74*
21,1,0.5032,0.2010,0,0,270.0*
21,1,0.2010,0.5032,0,0,270.0*
1,1,0.3022,-0.1005,-0.1005*
1,1,0.3022,-0.1005,0.1005*
1,1,0.3022,0.1005,0.1005*
1,1,0.3022,0.1005,-0.1005*
%
%ADD74ROUNDEDRECTD74*%
%ADD75R,1.0032X1.1032*%
%ADD76R,1.5032X2.0032*%
%ADD77R,1.5032X1.6032*%
%ADD78R,1.1032X1.2032*%
%ADD79R,0.8032X0.7032*%
%ADD80R,1.0532X1.1532*%
%ADD81R,0.8432X0.8032*%
%ADD82R,3.9000X3.9000*%
%ADD83R,1.4032X1.4032*%
%ADD84R,0.7032X0.8032*%
%ADD85R,4.7532X2.5032*%
%ADD86R,1.7500X1.5000*%
%ADD87R,1.8532X1.4032*%
G04:AMPARAMS|DCode=88|XSize=0.6032mm|YSize=0.7032mm|CornerRadius=0mm|HoleSize=0mm|Usage=FLASHONLY|Rotation=225.000|XOffset=0mm|YOffset=0mm|HoleType=Round|Shape=Rectangle|*
%AMROTATEDRECTD88*
4,1,4,-0.0354,0.4619,0.4619,-0.0354,0.0354,-0.4619,-0.4619,0.0354,-0.0354,0.4619,0.0*
%
%ADD88ROTATEDRECTD88*%

G04:AMPARAMS|DCode=89|XSize=1.0032mm|YSize=1.1032mm|CornerRadius=0mm|HoleSize=0mm|Usage=FLASHONLY|Rotation=225.000|XOffset=0mm|YOffset=0mm|HoleType=Round|Shape=Rectangle|*
%AMROTATEDRECTD89*
4,1,4,-0.0354,0.7447,0.7447,-0.0354,0.0354,-0.7447,-0.7447,0.0354,-0.0354,0.7447,0.0*
%
%ADD89ROTATEDRECTD89*%

G04:AMPARAMS|DCode=90|XSize=0.6032mm|YSize=0.7032mm|CornerRadius=0mm|HoleSize=0mm|Usage=FLASHONLY|Rotation=315.000|XOffset=0mm|YOffset=0mm|HoleType=Round|Shape=Rectangle|*
%AMROTATEDRECTD90*
4,1,4,-0.4619,-0.0354,0.0354,0.4619,0.4619,0.0354,-0.0354,-0.4619,-0.4619,-0.0354,0.0*
%
%ADD90ROTATEDRECTD90*%

%ADD91R,2.5000X1.7500*%
%ADD92R,1.9532X1.4032*%
%ADD93R,2.5032X4.7532*%
%ADD94R,2.3000X3.1000*%
%ADD95R,5.6032X3.1032*%
%ADD96R,1.6032X1.5032*%
%ADD97R,1.5000X1.7500*%
%ADD98R,3.3132X2.4532*%
%ADD99C,3.7032*%
%ADD100C,2.2032*%
%ADD101C,1.4532*%
%ADD102C,1.3032*%
G04:AMPARAMS|DCode=103|XSize=1.3032mm|YSize=1.3032mm|CornerRadius=0.3766mm|HoleSize=0mm|Usage=FLASHONLY|Rotation=180.000|XOffset=0mm|YOffset=0mm|HoleType=Round|Shape=RoundedRectangle|*
%AMROUNDEDRECTD103*
21,1,1.3032,0.5500,0,0,180.0*
21,1,0.5500,1.3032,0,0,180.0*
1,1,0.7532,-0.2750,0.2750*
1,1,0.7532,0.2750,0.2750*
1,1,0.7532,0.2750,-0.2750*
1,1,0.7532,-0.2750,-0.2750*
%
%ADD103ROUNDEDRECTD103*%
%ADD104R,1.3890X1.3890*%
%ADD105C,1.3890*%
%ADD106C,0.2032*%
D20*
X468860Y435610D02*
D03*
X516660D02*
D03*
D21*
X391160Y361630D02*
D03*
Y448630D02*
D03*
D40*
X433860Y147475D02*
D03*
X429860D02*
D03*
X425860D02*
D03*
X421860D02*
D03*
X417860D02*
D03*
X413860D02*
D03*
X409860D02*
D03*
X405860D02*
D03*
X401860D02*
D03*
X397860D02*
D03*
X393860D02*
D03*
X389860D02*
D03*
X385860D02*
D03*
X381860D02*
D03*
X377860D02*
D03*
X373860D02*
D03*
Y230985D02*
D03*
X377860D02*
D03*
X381860D02*
D03*
X385860D02*
D03*
X389860D02*
D03*
X393860D02*
D03*
X397860D02*
D03*
X401860D02*
D03*
X405860D02*
D03*
X409860D02*
D03*
X413860D02*
D03*
X417860D02*
D03*
X421860D02*
D03*
X425860D02*
D03*
X429860D02*
D03*
X433860D02*
D03*
D41*
X362105Y159230D02*
D03*
Y163230D02*
D03*
Y167230D02*
D03*
Y171230D02*
D03*
Y175230D02*
D03*
Y179230D02*
D03*
Y183230D02*
D03*
Y187230D02*
D03*
Y191230D02*
D03*
Y195230D02*
D03*
Y199230D02*
D03*
Y203230D02*
D03*
Y207230D02*
D03*
Y211230D02*
D03*
Y215230D02*
D03*
Y219230D02*
D03*
X445615D02*
D03*
Y215230D02*
D03*
Y211230D02*
D03*
Y207230D02*
D03*
Y203230D02*
D03*
Y199230D02*
D03*
Y195230D02*
D03*
Y191230D02*
D03*
Y187230D02*
D03*
Y183230D02*
D03*
Y179230D02*
D03*
Y175230D02*
D03*
Y171230D02*
D03*
Y167230D02*
D03*
Y163230D02*
D03*
D42*
Y159230D02*
D03*
D51*
X86200Y293705D02*
D03*
X81200D02*
D03*
X76200D02*
D03*
X71200D02*
D03*
X66200D02*
D03*
Y323515D02*
D03*
X71200D02*
D03*
X76200D02*
D03*
X81200D02*
D03*
D52*
X86200D02*
D03*
D55*
X221616Y445770D02*
D03*
Y433070D02*
D03*
Y420370D02*
D03*
Y407670D02*
D03*
X172084D02*
D03*
Y420370D02*
D03*
Y433070D02*
D03*
D56*
Y445770D02*
D03*
D62*
X571500Y127000D02*
D03*
D63*
X620250Y166370D02*
D03*
Y179070D02*
D03*
Y191770D02*
D03*
Y204470D02*
D03*
X548150D02*
D03*
Y191770D02*
D03*
Y179070D02*
D03*
Y166370D02*
D03*
D64*
X208330Y280305D02*
D03*
X204330D02*
D03*
X200330D02*
D03*
X196330D02*
D03*
X192330D02*
D03*
Y252305D02*
D03*
X196330D02*
D03*
X200330D02*
D03*
X204330D02*
D03*
X208330D02*
D03*
D65*
X186330Y274305D02*
D03*
Y270305D02*
D03*
Y266305D02*
D03*
Y262305D02*
D03*
Y258305D02*
D03*
X214330D02*
D03*
Y262305D02*
D03*
Y266305D02*
D03*
Y270305D02*
D03*
Y274305D02*
D03*
D66*
X200330Y266305D02*
D03*
D67*
X336160Y577490D02*
D03*
X446160D02*
D03*
Y516490D02*
D03*
X336160D02*
D03*
D68*
X155530Y238695D02*
D03*
X146730D02*
D03*
X79670Y198120D02*
D03*
X88470D02*
D03*
Y218440D02*
D03*
X79670D02*
D03*
X690200Y209550D02*
D03*
X681400D02*
D03*
X680810Y171450D02*
D03*
X689610D02*
D03*
Y184150D02*
D03*
X680810D02*
D03*
X690200Y222250D02*
D03*
X681400D02*
D03*
D69*
X171450Y250795D02*
D03*
Y239295D02*
D03*
X58420Y272450D02*
D03*
Y260950D02*
D03*
D70*
X156210Y251395D02*
D03*
X147210D02*
D03*
D71*
X99060Y270910D02*
D03*
Y257410D02*
D03*
X76962Y270910D02*
D03*
Y257410D02*
D03*
X204470Y297180D02*
D03*
Y310680D02*
D03*
D72*
X125730Y240770D02*
D03*
Y269770D02*
D03*
X236220Y227540D02*
D03*
Y256540D02*
D03*
X657860Y295380D02*
D03*
Y324380D02*
D03*
D73*
X72390Y43030D02*
D03*
Y56030D02*
D03*
X641350Y205890D02*
D03*
Y192890D02*
D03*
X44450Y315110D02*
D03*
Y302110D02*
D03*
Y344320D02*
D03*
Y331320D02*
D03*
D74*
X64330Y91130D02*
D03*
X72830Y87630D02*
D03*
X64330Y84130D02*
D03*
D75*
X90170Y59300D02*
D03*
Y42300D02*
D03*
D76*
X201930Y215835D02*
D03*
X172930D02*
D03*
X189760Y332740D02*
D03*
X160760D02*
D03*
D77*
X304800Y143510D02*
D03*
X288800D02*
D03*
D78*
X242970Y205740D02*
D03*
X229470D02*
D03*
X526580Y162560D02*
D03*
X513080D02*
D03*
X78740Y347980D02*
D03*
X92240D02*
D03*
D79*
X522940Y245110D02*
D03*
Y255110D02*
D03*
X104140Y303450D02*
D03*
Y293450D02*
D03*
X228600Y293225D02*
D03*
Y283225D02*
D03*
Y345520D02*
D03*
Y355520D02*
D03*
D80*
X525930Y179070D02*
D03*
X512930D02*
D03*
X422760Y288290D02*
D03*
X435760D02*
D03*
D81*
X510240Y245710D02*
D03*
Y254510D02*
D03*
D82*
X403860Y189230D02*
D03*
D83*
X543220Y568960D02*
D03*
X564220D02*
D03*
X543220Y590550D02*
D03*
X564220D02*
D03*
X543220Y612140D02*
D03*
X564220D02*
D03*
Y547370D02*
D03*
X543220D02*
D03*
X635930D02*
D03*
X656930D02*
D03*
X635930Y568960D02*
D03*
X656930D02*
D03*
Y590550D02*
D03*
X635930D02*
D03*
X656930Y612140D02*
D03*
X635930D02*
D03*
D84*
X584360Y568960D02*
D03*
X594360D02*
D03*
X584280Y590550D02*
D03*
X594280D02*
D03*
X584280Y612140D02*
D03*
X594280D02*
D03*
Y547370D02*
D03*
X584280D02*
D03*
X617140D02*
D03*
X607140D02*
D03*
X607060Y568960D02*
D03*
X617060D02*
D03*
Y590550D02*
D03*
X607060D02*
D03*
X617140Y612140D02*
D03*
X607140D02*
D03*
X395150Y91231D02*
D03*
X385150D02*
D03*
D85*
X631090Y481330D02*
D03*
X555090D02*
D03*
Y387350D02*
D03*
X631090D02*
D03*
D86*
X621410Y245470D02*
D03*
X541910D02*
D03*
X621410Y290470D02*
D03*
X541910D02*
D03*
D87*
X683260Y295880D02*
D03*
Y323880D02*
D03*
Y368270D02*
D03*
Y396270D02*
D03*
Y448280D02*
D03*
Y476280D02*
D03*
D88*
X406112Y46702D02*
D03*
X411768Y52358D02*
D03*
D89*
X392481Y54661D02*
D03*
X381521Y65621D02*
D03*
X390360Y74460D02*
D03*
X401320Y63500D02*
D03*
D90*
X377478Y50512D02*
D03*
X371822Y56168D02*
D03*
D91*
X76200Y308610D02*
D03*
D92*
X160020Y307325D02*
D03*
Y281825D02*
D03*
D93*
X95250Y511910D02*
D03*
Y587910D02*
D03*
D94*
X196850Y426720D02*
D03*
D95*
X234950Y600950D02*
D03*
Y503950D02*
D03*
D96*
X153670Y541910D02*
D03*
Y557910D02*
D03*
D97*
X256900Y276480D02*
D03*
Y355980D02*
D03*
X301900Y276480D02*
D03*
X301900Y355980D02*
D03*
D98*
X290830Y457510D02*
D03*
Y388310D02*
D03*
D99*
X27540Y27540D02*
D03*
X754380D02*
D03*
X27540Y609600D02*
D03*
X754380Y608730D02*
D03*
D100*
X760730Y547630D02*
D03*
Y87630D02*
D03*
X544830Y68580D02*
D03*
X519430D02*
D03*
X570230D02*
D03*
X335280Y118110D02*
D03*
X471170Y119380D02*
D03*
X472060Y261240D02*
D03*
D101*
X720730Y517630D02*
D03*
Y117630D02*
D03*
D102*
X44700Y138430D02*
D03*
Y219710D02*
D03*
Y199390D02*
D03*
Y179070D02*
D03*
Y158750D02*
D03*
Y118110D02*
D03*
Y97790D02*
D03*
Y77470D02*
D03*
Y240030D02*
D03*
D103*
Y57150D02*
D03*
D104*
X67310Y448310D02*
D03*
D105*
Y422910D02*
D03*
Y397510D02*
D03*
D106*
X391160Y577490D02*
D03*
Y532490D02*
D03*
M02*
