G04*
G04 #@! TF.GenerationSoftware,Altium Limited,Altium Designer,24.9.1 (31)*
G04*
G04 Layer_Color=16711935*
%FSLAX44Y44*%
%MOMM*%
G71*
G04*
G04 #@! TF.SameCoordinates,DBAFCBE9-9C6E-486A-AB20-CA00A55F4774*
G04*
G04*
G04 #@! TF.FilePolarity,Positive*
G04*
G01*
G75*
%ADD13C,0.1000*%
%ADD145C,0.0500*%
D13*
X401650Y267970D02*
X411150D01*
X406400Y263220D02*
Y272720D01*
X425450Y263220D02*
Y272720D01*
X420700Y267970D02*
X430200D01*
X373380Y263220D02*
Y272720D01*
X368630Y267970D02*
X378130D01*
X355600Y263220D02*
Y272720D01*
X350850Y267970D02*
X360350D01*
X483000Y202260D02*
Y211760D01*
X478250Y207010D02*
X487750D01*
X475310Y147320D02*
X484810D01*
X480060Y142570D02*
Y152070D01*
Y178130D02*
Y187630D01*
X475310Y182880D02*
X484810D01*
X431800Y89230D02*
Y98730D01*
X427050Y93980D02*
X436550D01*
X447040Y89230D02*
Y98730D01*
X442290Y93980D02*
X451790D01*
X165100Y363550D02*
Y373050D01*
X160350Y368300D02*
X169850D01*
X165100Y378790D02*
Y388290D01*
X160350Y383540D02*
X169850D01*
X196850Y463630D02*
Y473630D01*
X191850Y468630D02*
X201850D01*
X243920Y424180D02*
X253920D01*
X248920Y419180D02*
Y429180D01*
X358140Y81360D02*
Y91360D01*
X353140Y86360D02*
X363140D01*
X294110Y114380D02*
Y124380D01*
X289110Y119380D02*
X299110D01*
X302260Y165180D02*
Y175180D01*
X297260Y170180D02*
X307260D01*
X301880Y139780D02*
Y149780D01*
X296880Y144780D02*
X306880D01*
X297510Y99060D02*
X307010D01*
X302260Y94310D02*
Y103810D01*
X300050Y187960D02*
X309550D01*
X304800Y183210D02*
Y192710D01*
X308940Y219710D02*
X318440D01*
X313690Y214960D02*
Y224460D01*
X74930Y223560D02*
Y228560D01*
X70180Y226060D02*
X79680D01*
X299800Y240030D02*
X309800D01*
X304800Y235030D02*
Y245030D01*
X74780Y235280D02*
Y244780D01*
X70030Y240030D02*
X79530D01*
X332530Y196850D02*
X338030D01*
X335280Y194100D02*
Y199600D01*
X340780Y186850D02*
Y206850D01*
X329780Y186850D02*
Y206850D01*
Y186850D02*
X340780D01*
X329780Y206850D02*
X340780D01*
X377270Y91440D02*
X387270D01*
X382270Y86440D02*
Y96440D01*
X401320Y89230D02*
Y98730D01*
X396570Y93980D02*
X406070D01*
X416560Y89230D02*
Y98730D01*
X411810Y93980D02*
X421310D01*
D145*
X57000Y216050D02*
X70500D01*
X57000Y203050D02*
X70500D01*
Y216050D01*
X57000Y203050D02*
Y216050D01*
X62100Y209550D02*
X65400D01*
X63750Y207900D02*
Y211200D01*
X700230Y532630D02*
X741730D01*
Y565130D01*
X778230D01*
Y522280D02*
Y565130D01*
Y522280D02*
X835230D01*
X852230Y510380D01*
Y500380D02*
Y510380D01*
X835230Y496080D02*
X852230Y500380D01*
X835230Y139180D02*
Y496080D01*
Y139180D02*
X852230Y134880D01*
Y124880D02*
Y134880D01*
X835230Y112980D02*
X852230Y124880D01*
X778230Y112980D02*
X835230D01*
X778230Y70130D02*
Y112980D01*
X741730Y70130D02*
X778230D01*
X741730D02*
Y102630D01*
X700230D02*
X741730D01*
X700230D02*
Y532630D01*
X413900Y254470D02*
Y281470D01*
X398900Y254470D02*
Y281470D01*
Y254470D02*
X413900D01*
X398900Y281470D02*
X413900D01*
X417950D02*
X432950D01*
X417950Y254470D02*
X432950D01*
X417950D02*
Y281470D01*
X432950Y254470D02*
Y281470D01*
X365880D02*
X380880D01*
X365880Y254470D02*
X380880D01*
X365880D02*
Y281470D01*
X380880Y254470D02*
Y281470D01*
X348100D02*
X363100D01*
X348100Y254470D02*
X363100D01*
X348100D02*
Y281470D01*
X363100Y254470D02*
Y281470D01*
X469500Y199510D02*
X496500D01*
X469500Y214510D02*
X496500D01*
X469500Y199510D02*
Y214510D01*
X496500Y199510D02*
Y214510D01*
X493560Y139820D02*
Y154820D01*
X466560Y139820D02*
Y154820D01*
X493560D01*
X466560Y139820D02*
X493560D01*
X466560Y175380D02*
X493560D01*
X466560Y190380D02*
X493560D01*
X466560Y175380D02*
Y190380D01*
X493560Y175380D02*
Y190380D01*
X424300Y80480D02*
X439300D01*
X424300Y107480D02*
X439300D01*
Y80480D02*
Y107480D01*
X424300Y80480D02*
Y107480D01*
X439540Y80480D02*
X454540D01*
X439540Y107480D02*
X454540D01*
Y80480D02*
Y107480D01*
X439540Y80480D02*
Y107480D01*
X150100Y361300D02*
X180100D01*
X150100Y375300D02*
X180100D01*
X150100Y361300D02*
Y375300D01*
X180100Y361300D02*
Y375300D01*
X151600Y391040D02*
X178600D01*
X151600Y376040D02*
X178600D01*
Y391040D01*
X151600Y376040D02*
Y391040D01*
X179850Y459130D02*
X213850D01*
X179850Y478130D02*
X213850D01*
X179850Y459130D02*
Y478130D01*
X213850Y459130D02*
Y478130D01*
X239420Y407180D02*
Y441180D01*
X258420Y407180D02*
Y441180D01*
X239420D02*
X258420D01*
X239420Y407180D02*
X258420D01*
X346640Y62860D02*
X369640D01*
X346640Y109860D02*
X369640D01*
Y62860D02*
Y109860D01*
X346640Y62860D02*
Y109860D01*
X64330Y146940D02*
Y150240D01*
X62680Y148590D02*
X65980D01*
X57580Y142090D02*
Y155090D01*
X71080Y142090D02*
Y155090D01*
X57580Y142090D02*
X71080D01*
X57580Y155090D02*
X71080D01*
X270610Y130880D02*
X317610D01*
X270610Y107880D02*
X317610D01*
Y130880D01*
X270610Y107880D02*
Y130880D01*
X285260Y179680D02*
X319260D01*
X285260Y160680D02*
X319260D01*
Y179680D01*
X285260Y160680D02*
Y179680D01*
X284880Y154280D02*
X318880D01*
X284880Y135280D02*
X318880D01*
Y154280D01*
X284880Y135280D02*
Y154280D01*
X288760Y91560D02*
Y106560D01*
X315760Y91560D02*
Y106560D01*
X288760Y91560D02*
X315760D01*
X288760Y106560D02*
X315760D01*
X291300Y180460D02*
Y195460D01*
X318300Y180460D02*
Y195460D01*
X291300Y180460D02*
X318300D01*
X291300Y195460D02*
X318300D01*
X300190Y212210D02*
Y227210D01*
X327190Y212210D02*
Y227210D01*
X300190Y212210D02*
X327190D01*
X300190Y227210D02*
X327190D01*
X66930Y222060D02*
X82930D01*
X66930Y230060D02*
X82930D01*
X66930Y222060D02*
Y230060D01*
X82930Y222060D02*
Y230060D01*
X281300Y228530D02*
Y251530D01*
X328300Y228530D02*
Y251530D01*
X281300Y228530D02*
X328300D01*
X281300Y251530D02*
X328300D01*
X61280Y232530D02*
X88280D01*
X61280Y247530D02*
X88280D01*
X61280Y232530D02*
Y247530D01*
X88280Y232530D02*
Y247530D01*
X372770Y74440D02*
Y108440D01*
X391770Y74440D02*
Y108440D01*
X372770D02*
X391770D01*
X372770Y74440D02*
X391770D01*
X393820Y80480D02*
X408820D01*
X393820Y107480D02*
X408820D01*
Y80480D02*
Y107480D01*
X393820Y80480D02*
Y107480D01*
X409060Y80480D02*
X424060D01*
X409060Y107480D02*
X424060D01*
Y80480D02*
Y107480D01*
X409060Y80480D02*
Y107480D01*
M02*
