G04*
G04 #@! TF.GenerationSoftware,Altium Limited,Altium Designer,24.9.1 (31)*
G04*
G04 Layer_Color=128*
%FSLAX44Y44*%
%MOMM*%
G71*
G04*
G04 #@! TF.SameCoordinates,DBAFCBE9-9C6E-486A-AB20-CA00A55F4774*
G04*
G04*
G04 #@! TF.FilePolarity,Positive*
G04*
G01*
G75*
%ADD12C,0.1270*%
D12*
X17540Y27540D02*
X37540D01*
X27540Y17540D02*
Y37540D01*
X750730Y547630D02*
X770730D01*
X760730Y537630D02*
Y557630D01*
X750730Y87630D02*
X770730D01*
X760730Y77630D02*
Y97630D01*
X714480Y517630D02*
X726980D01*
X720730Y511380D02*
Y523880D01*
X714480Y117630D02*
X726980D01*
X720730Y111380D02*
Y123880D01*
X744380Y27540D02*
X764380D01*
X754380Y17540D02*
Y37540D01*
X17540Y609600D02*
X37540D01*
X27540Y599600D02*
Y619600D01*
X744380Y608730D02*
X764380D01*
X754380Y598730D02*
Y618730D01*
X41700Y138430D02*
X47700D01*
X44700Y135430D02*
Y141430D01*
X41700Y219710D02*
X47700D01*
X44700Y216710D02*
Y222710D01*
X41700Y199390D02*
X47700D01*
X44700Y196390D02*
Y202390D01*
X41700Y179070D02*
X47700D01*
X44700Y176070D02*
Y182070D01*
X41700Y158750D02*
X47700D01*
X44700Y155750D02*
Y161750D01*
X41700Y118110D02*
X47700D01*
X44700Y115110D02*
Y121110D01*
X41700Y97790D02*
X47700D01*
X44700Y94790D02*
Y100790D01*
X41700Y77470D02*
X47700D01*
X44700Y74470D02*
Y80470D01*
X41700Y57150D02*
X47700D01*
X44700Y54150D02*
Y60150D01*
X41700Y240030D02*
X47700D01*
X44700Y237030D02*
Y243030D01*
X539330Y68580D02*
X550330D01*
X544830Y63080D02*
Y74080D01*
X513930Y68580D02*
X524930D01*
X519430Y63080D02*
Y74080D01*
X564730Y68580D02*
X575730D01*
X570230Y63080D02*
Y74080D01*
X325280Y118110D02*
X345280D01*
X335280Y108110D02*
Y128110D01*
X461170Y119380D02*
X481170D01*
X471170Y109380D02*
Y129380D01*
X62865Y448310D02*
X71755D01*
X67310Y443865D02*
Y452755D01*
X62865Y422910D02*
X71755D01*
X67310Y418465D02*
Y427355D01*
X62865Y397510D02*
X71755D01*
X67310Y393065D02*
Y401955D01*
X462060Y261240D02*
X482060D01*
X472060Y251240D02*
Y271240D01*
X382660Y577490D02*
X399660D01*
X391160Y568990D02*
Y585990D01*
X382160Y532490D02*
X400160D01*
X391160Y523490D02*
Y541490D01*
X25191Y440191D02*
X28191D01*
X26691Y438691D02*
Y441691D01*
X135191Y540191D02*
X138191D01*
X136691Y538691D02*
Y541691D01*
X135191Y500191D02*
X138191D01*
X136691Y498691D02*
Y501691D01*
X145191Y480191D02*
X148191D01*
X146691Y478691D02*
Y481691D01*
X135191Y460191D02*
X138191D01*
X136691Y458691D02*
Y461691D01*
X145191Y440191D02*
X148191D01*
X146691Y438691D02*
Y441691D01*
X135191Y420191D02*
X138191D01*
X136691Y418691D02*
Y421691D01*
X135191Y140191D02*
X138191D01*
X136691Y138691D02*
Y141691D01*
X145191Y120191D02*
X148191D01*
X146691Y118691D02*
Y121691D01*
X135191Y100191D02*
X138191D01*
X136691Y98691D02*
Y101691D01*
X145191Y80191D02*
X148191D01*
X146691Y78691D02*
Y81691D01*
X135191Y60191D02*
X138191D01*
X136691Y58691D02*
Y61691D01*
X135191Y20191D02*
X138191D01*
X136691Y18691D02*
Y21691D01*
X115191Y540191D02*
X118191D01*
X116691Y538691D02*
Y541691D01*
X125191Y480191D02*
X128191D01*
X126691Y478691D02*
Y481691D01*
X115191Y460191D02*
X118191D01*
X116691Y458691D02*
Y461691D01*
X125191Y440191D02*
X128191D01*
X126691Y438691D02*
Y441691D01*
X125191Y200191D02*
X128191D01*
X126691Y198691D02*
Y201691D01*
X115191Y180191D02*
X118191D01*
X116691Y178691D02*
Y181691D01*
X115191Y140191D02*
X118191D01*
X116691Y138691D02*
Y141691D01*
X125191Y120191D02*
X128191D01*
X126691Y118691D02*
Y121691D01*
X175191Y540191D02*
X178191D01*
X176691Y538691D02*
Y541691D01*
X185191Y520191D02*
X188191D01*
X186691Y518691D02*
Y521691D01*
X175191Y500191D02*
X178191D01*
X176691Y498691D02*
Y501691D01*
X185191Y480191D02*
X188191D01*
X186691Y478691D02*
Y481691D01*
X175191Y140191D02*
X178191D01*
X176691Y138691D02*
Y141691D01*
X185191Y80191D02*
X188191D01*
X186691Y78691D02*
Y81691D01*
X175191Y60191D02*
X178191D01*
X176691Y58691D02*
Y61691D01*
X175191Y20191D02*
X178191D01*
X176691Y18691D02*
Y21691D01*
X165191Y520191D02*
X168191D01*
X166691Y518691D02*
Y521691D01*
X155191Y500191D02*
X158191D01*
X156691Y498691D02*
Y501691D01*
X165191Y480191D02*
X168191D01*
X166691Y478691D02*
Y481691D01*
X155191Y460191D02*
X158191D01*
X156691Y458691D02*
Y461691D01*
X165191Y120191D02*
X168191D01*
X166691Y118691D02*
Y121691D01*
X155191Y100191D02*
X158191D01*
X156691Y98691D02*
Y101691D01*
X165191Y80191D02*
X168191D01*
X166691Y78691D02*
Y81691D01*
X155191Y60191D02*
X158191D01*
X156691Y58691D02*
Y61691D01*
X155191Y20191D02*
X158191D01*
X156691Y18691D02*
Y21691D01*
X675191Y20191D02*
X678191D01*
X676691Y18691D02*
Y21691D01*
X665191Y600191D02*
X668191D01*
X666691Y598691D02*
Y601691D01*
X655191Y580191D02*
X658191D01*
X656691Y578691D02*
Y581691D01*
X665191Y560191D02*
X668191D01*
X666691Y558691D02*
Y561691D01*
X655191Y500191D02*
X658191D01*
X656691Y498691D02*
Y501691D01*
X665191Y440191D02*
X668191D01*
X666691Y438691D02*
Y441691D01*
X665191Y120191D02*
X668191D01*
X666691Y118691D02*
Y121691D01*
X655191Y100191D02*
X658191D01*
X656691Y98691D02*
Y101691D01*
X665191Y80191D02*
X668191D01*
X666691Y78691D02*
Y81691D01*
X655191Y60191D02*
X658191D01*
X656691Y58691D02*
Y61691D01*
X665191Y40191D02*
X668191D01*
X666691Y38691D02*
Y41691D01*
X655191Y20191D02*
X658191D01*
X656691Y18691D02*
Y21691D01*
X645191Y600191D02*
X648191D01*
X646691Y598691D02*
Y601691D01*
X635191Y580191D02*
X638191D01*
X636691Y578691D02*
Y581691D01*
X645191Y560191D02*
X648191D01*
X646691Y558691D02*
Y561691D01*
X635191Y100191D02*
X638191D01*
X636691Y98691D02*
Y101691D01*
X645191Y80191D02*
X648191D01*
X646691Y78691D02*
Y81691D01*
X635191Y60191D02*
X638191D01*
X636691Y58691D02*
Y61691D01*
X645191Y40191D02*
X648191D01*
X646691Y38691D02*
Y41691D01*
X635191Y20191D02*
X638191D01*
X636691Y18691D02*
Y21691D01*
X625191Y600191D02*
X628191D01*
X626691Y598691D02*
Y601691D01*
X615191Y580191D02*
X618191D01*
X616691Y578691D02*
Y581691D01*
X625191Y80191D02*
X628191D01*
X626691Y78691D02*
Y81691D01*
X615191Y60191D02*
X618191D01*
X616691Y58691D02*
Y61691D01*
X625191Y40191D02*
X628191D01*
X626691Y38691D02*
Y41691D01*
X615191Y20191D02*
X618191D01*
X616691Y18691D02*
Y21691D01*
X605191Y80191D02*
X608191D01*
X606691Y78691D02*
Y81691D01*
X595191Y60191D02*
X598191D01*
X596691Y58691D02*
Y61691D01*
X605191Y40191D02*
X608191D01*
X606691Y38691D02*
Y41691D01*
X595191Y20191D02*
X598191D01*
X596691Y18691D02*
Y21691D01*
X575191Y620191D02*
X578191D01*
X576691Y618691D02*
Y621691D01*
X585191Y600191D02*
X588191D01*
X586691Y598691D02*
Y601691D01*
X575191Y580191D02*
X578191D01*
X576691Y578691D02*
Y581691D01*
X585191Y560191D02*
X588191D01*
X586691Y558691D02*
Y561691D01*
X575191Y540191D02*
X578191D01*
X576691Y538691D02*
Y541691D01*
X585191Y520191D02*
X588191D01*
X586691Y518691D02*
Y521691D01*
X585191Y480191D02*
X588191D01*
X586691Y478691D02*
Y481691D01*
X575191Y460191D02*
X578191D01*
X576691Y458691D02*
Y461691D01*
X585191Y80191D02*
X588191D01*
X586691Y78691D02*
Y81691D01*
X585191Y40191D02*
X588191D01*
X586691Y38691D02*
Y41691D01*
X575191Y20191D02*
X578191D01*
X576691Y18691D02*
Y21691D01*
X555191Y580191D02*
X558191D01*
X556691Y578691D02*
Y581691D01*
X565191Y520191D02*
X568191D01*
X566691Y518691D02*
Y521691D01*
X555191Y460191D02*
X558191D01*
X556691Y458691D02*
Y461691D01*
X565191Y40191D02*
X568191D01*
X566691Y38691D02*
Y41691D01*
X555191Y20191D02*
X558191D01*
X556691Y18691D02*
Y21691D01*
X535191Y580191D02*
X538191D01*
X536691Y578691D02*
Y581691D01*
X545191Y520191D02*
X548191D01*
X546691Y518691D02*
Y521691D01*
X535191Y500191D02*
X538191D01*
X536691Y498691D02*
Y501691D01*
X535191Y460191D02*
X538191D01*
X536691Y458691D02*
Y461691D01*
X545191Y40191D02*
X548191D01*
X546691Y38691D02*
Y41691D01*
X535191Y20191D02*
X538191D01*
X536691Y18691D02*
Y21691D01*
X515191Y620191D02*
X518191D01*
X516691Y618691D02*
Y621691D01*
X525191Y600191D02*
X528191D01*
X526691Y598691D02*
Y601691D01*
X515191Y580191D02*
X518191D01*
X516691Y578691D02*
Y581691D01*
X525191Y560191D02*
X528191D01*
X526691Y558691D02*
Y561691D01*
X515191Y540191D02*
X518191D01*
X516691Y538691D02*
Y541691D01*
X525191Y520191D02*
X528191D01*
X526691Y518691D02*
Y521691D01*
X515191Y500191D02*
X518191D01*
X516691Y498691D02*
Y501691D01*
X525191Y480191D02*
X528191D01*
X526691Y478691D02*
Y481691D01*
X515191Y460191D02*
X518191D01*
X516691Y458691D02*
Y461691D01*
X525191Y40191D02*
X528191D01*
X526691Y38691D02*
Y41691D01*
X515191Y20191D02*
X518191D01*
X516691Y18691D02*
Y21691D01*
X765191Y520191D02*
X768191D01*
X766691Y518691D02*
Y521691D01*
X755191Y460191D02*
X758191D01*
X756691Y458691D02*
Y461691D01*
X755191Y420191D02*
X758191D01*
X756691Y418691D02*
Y421691D01*
X765191Y320191D02*
X768191D01*
X766691Y318691D02*
Y321691D01*
X765191Y280191D02*
X768191D01*
X766691Y278691D02*
Y281691D01*
X755191Y260191D02*
X758191D01*
X756691Y258691D02*
Y261691D01*
X765191Y240191D02*
X768191D01*
X766691Y238691D02*
Y241691D01*
X755191Y220191D02*
X758191D01*
X756691Y218691D02*
Y221691D01*
X765191Y200191D02*
X768191D01*
X766691Y198691D02*
Y201691D01*
X755191Y180191D02*
X758191D01*
X756691Y178691D02*
Y181691D01*
X765191Y160191D02*
X768191D01*
X766691Y158691D02*
Y161691D01*
X755191Y140191D02*
X758191D01*
X756691Y138691D02*
Y141691D01*
X765191Y120191D02*
X768191D01*
X766691Y118691D02*
Y121691D01*
X755191Y60191D02*
X758191D01*
X756691Y58691D02*
Y61691D01*
X735191Y580191D02*
X738191D01*
X736691Y578691D02*
Y581691D01*
X745191Y560191D02*
X748191D01*
X746691Y558691D02*
Y561691D01*
X735191Y540191D02*
X738191D01*
X736691Y538691D02*
Y541691D01*
X745191Y520191D02*
X748191D01*
X746691Y518691D02*
Y521691D01*
X735191Y500191D02*
X738191D01*
X736691Y498691D02*
Y501691D01*
X745191Y240191D02*
X748191D01*
X746691Y238691D02*
Y241691D01*
X745191Y200191D02*
X748191D01*
X746691Y198691D02*
Y201691D01*
X745191Y160191D02*
X748191D01*
X746691Y158691D02*
Y161691D01*
X735191Y140191D02*
X738191D01*
X736691Y138691D02*
Y141691D01*
X745191Y120191D02*
X748191D01*
X746691Y118691D02*
Y121691D01*
X735191Y100191D02*
X738191D01*
X736691Y98691D02*
Y101691D01*
X745191Y80191D02*
X748191D01*
X746691Y78691D02*
Y81691D01*
X735191Y60191D02*
X738191D01*
X736691Y58691D02*
Y61691D01*
X715191Y620191D02*
X718191D01*
X716691Y618691D02*
Y621691D01*
X725191Y600191D02*
X728191D01*
X726691Y598691D02*
Y601691D01*
X715191Y580191D02*
X718191D01*
X716691Y578691D02*
Y581691D01*
X725191Y560191D02*
X728191D01*
X726691Y558691D02*
Y561691D01*
X715191Y500191D02*
X718191D01*
X716691Y498691D02*
Y501691D01*
X715191Y140191D02*
X718191D01*
X716691Y138691D02*
Y141691D01*
X715191Y100191D02*
X718191D01*
X716691Y98691D02*
Y101691D01*
X725191Y80191D02*
X728191D01*
X726691Y78691D02*
Y81691D01*
X715191Y60191D02*
X718191D01*
X716691Y58691D02*
Y61691D01*
X725191Y40191D02*
X728191D01*
X726691Y38691D02*
Y41691D01*
X715191Y20191D02*
X718191D01*
X716691Y18691D02*
Y21691D01*
X695191Y620191D02*
X698191D01*
X696691Y618691D02*
Y621691D01*
X705191Y600191D02*
X708191D01*
X706691Y598691D02*
Y601691D01*
X705191Y560191D02*
X708191D01*
X706691Y558691D02*
Y561691D01*
X705191Y520191D02*
X708191D01*
X706691Y518691D02*
Y521691D01*
X695191Y500191D02*
X698191D01*
X696691Y498691D02*
Y501691D01*
X695191Y460191D02*
X698191D01*
X696691Y458691D02*
Y461691D01*
X705191Y440191D02*
X708191D01*
X706691Y438691D02*
Y441691D01*
X695191Y420191D02*
X698191D01*
X696691Y418691D02*
Y421691D01*
X695191Y140191D02*
X698191D01*
X696691Y138691D02*
Y141691D01*
X705191Y120191D02*
X708191D01*
X706691Y118691D02*
Y121691D01*
X695191Y100191D02*
X698191D01*
X696691Y98691D02*
Y101691D01*
X705191Y80191D02*
X708191D01*
X706691Y78691D02*
Y81691D01*
X695191Y60191D02*
X698191D01*
X696691Y58691D02*
Y61691D01*
X705191Y40191D02*
X708191D01*
X706691Y38691D02*
Y41691D01*
X695191Y20191D02*
X698191D01*
X696691Y18691D02*
Y21691D01*
X675191Y580191D02*
X678191D01*
X676691Y578691D02*
Y581691D01*
X675191Y500191D02*
X678191D01*
X676691Y498691D02*
Y501691D01*
X675191Y460191D02*
X678191D01*
X676691Y458691D02*
Y461691D01*
X675191Y420191D02*
X678191D01*
X676691Y418691D02*
Y421691D01*
X685191Y160191D02*
X688191D01*
X686691Y158691D02*
Y161691D01*
X675191Y140191D02*
X678191D01*
X676691Y138691D02*
Y141691D01*
X685191Y120191D02*
X688191D01*
X686691Y118691D02*
Y121691D01*
X675191Y100191D02*
X678191D01*
X676691Y98691D02*
Y101691D01*
X685191Y80191D02*
X688191D01*
X686691Y78691D02*
Y81691D01*
X675191Y60191D02*
X678191D01*
X676691Y58691D02*
Y61691D01*
X685191Y40191D02*
X688191D01*
X686691Y38691D02*
Y41691D01*
X755191Y580191D02*
X758191D01*
X756691Y578691D02*
Y581691D01*
X355191Y460191D02*
X358191D01*
X356691Y458691D02*
Y461691D01*
X365191Y40191D02*
X368191D01*
X366691Y38691D02*
Y41691D01*
X355191Y20191D02*
X358191D01*
X356691Y18691D02*
Y21691D01*
X335191Y620191D02*
X338191D01*
X336691Y618691D02*
Y621691D01*
X345191Y600191D02*
X348191D01*
X346691Y598691D02*
Y601691D01*
X345191Y480191D02*
X348191D01*
X346691Y478691D02*
Y481691D01*
X335191Y460191D02*
X338191D01*
X336691Y458691D02*
Y461691D01*
X335191Y60191D02*
X338191D01*
X336691Y58691D02*
Y61691D01*
X345191Y40191D02*
X348191D01*
X346691Y38691D02*
Y41691D01*
X335191Y20191D02*
X338191D01*
X336691Y18691D02*
Y21691D01*
X315191Y620191D02*
X318191D01*
X316691Y618691D02*
Y621691D01*
X325191Y600191D02*
X328191D01*
X326691Y598691D02*
Y601691D01*
X315191Y580191D02*
X318191D01*
X316691Y578691D02*
Y581691D01*
X315191Y540191D02*
X318191D01*
X316691Y538691D02*
Y541691D01*
X315191Y500191D02*
X318191D01*
X316691Y498691D02*
Y501691D01*
X325191Y480191D02*
X328191D01*
X326691Y478691D02*
Y481691D01*
X315191Y460191D02*
X318191D01*
X316691Y458691D02*
Y461691D01*
X315191Y420191D02*
X318191D01*
X316691Y418691D02*
Y421691D01*
X325191Y40191D02*
X328191D01*
X326691Y38691D02*
Y41691D01*
X315191Y20191D02*
X318191D01*
X316691Y18691D02*
Y21691D01*
X295191Y620191D02*
X298191D01*
X296691Y618691D02*
Y621691D01*
X305191Y600191D02*
X308191D01*
X306691Y598691D02*
Y601691D01*
X295191Y580191D02*
X298191D01*
X296691Y578691D02*
Y581691D01*
X305191Y560191D02*
X308191D01*
X306691Y558691D02*
Y561691D01*
X295191Y540191D02*
X298191D01*
X296691Y538691D02*
Y541691D01*
X305191Y520191D02*
X308191D01*
X306691Y518691D02*
Y521691D01*
X295191Y420191D02*
X298191D01*
X296691Y418691D02*
Y421691D01*
X305191Y80191D02*
X308191D01*
X306691Y78691D02*
Y81691D01*
X295191Y60191D02*
X298191D01*
X296691Y58691D02*
Y61691D01*
X305191Y40191D02*
X308191D01*
X306691Y38691D02*
Y41691D01*
X295191Y20191D02*
X298191D01*
X296691Y18691D02*
Y21691D01*
X275191Y620191D02*
X278191D01*
X276691Y618691D02*
Y621691D01*
X285191Y600191D02*
X288191D01*
X286691Y598691D02*
Y601691D01*
X275191Y580191D02*
X278191D01*
X276691Y578691D02*
Y581691D01*
X285191Y560191D02*
X288191D01*
X286691Y558691D02*
Y561691D01*
X275191Y540191D02*
X278191D01*
X276691Y538691D02*
Y541691D01*
X285191Y520191D02*
X288191D01*
X286691Y518691D02*
Y521691D01*
X275191Y420191D02*
X278191D01*
X276691Y418691D02*
Y421691D01*
X285191Y80191D02*
X288191D01*
X286691Y78691D02*
Y81691D01*
X275191Y60191D02*
X278191D01*
X276691Y58691D02*
Y61691D01*
X275191Y20191D02*
X278191D01*
X276691Y18691D02*
Y21691D01*
X265191Y560191D02*
X268191D01*
X266691Y558691D02*
Y561691D01*
X255191Y540191D02*
X258191D01*
X256691Y538691D02*
Y541691D01*
X255191Y380191D02*
X258191D01*
X256691Y378691D02*
Y381691D01*
X265191Y80191D02*
X268191D01*
X266691Y78691D02*
Y81691D01*
X255191Y60191D02*
X258191D01*
X256691Y58691D02*
Y61691D01*
X255191Y20191D02*
X258191D01*
X256691Y18691D02*
Y21691D01*
X235191Y540191D02*
X238191D01*
X236691Y538691D02*
Y541691D01*
X245191Y80191D02*
X248191D01*
X246691Y78691D02*
Y81691D01*
X235191Y60191D02*
X238191D01*
X236691Y58691D02*
Y61691D01*
X235191Y20191D02*
X238191D01*
X236691Y18691D02*
Y21691D01*
X215191Y540191D02*
X218191D01*
X216691Y538691D02*
Y541691D01*
X215191Y100191D02*
X218191D01*
X216691Y98691D02*
Y101691D01*
X225191Y80191D02*
X228191D01*
X226691Y78691D02*
Y81691D01*
X215191Y60191D02*
X218191D01*
X216691Y58691D02*
Y61691D01*
X215191Y20191D02*
X218191D01*
X216691Y18691D02*
Y21691D01*
X195191Y540191D02*
X198191D01*
X196691Y538691D02*
Y541691D01*
X195191Y500191D02*
X198191D01*
X196691Y498691D02*
Y501691D01*
X205191Y120191D02*
X208191D01*
X206691Y118691D02*
Y121691D01*
X195191Y100191D02*
X198191D01*
X196691Y98691D02*
Y101691D01*
X205191Y80191D02*
X208191D01*
X206691Y78691D02*
Y81691D01*
X195191Y60191D02*
X198191D01*
X196691Y58691D02*
Y61691D01*
X195191Y20191D02*
X198191D01*
X196691Y18691D02*
Y21691D01*
X495191Y620191D02*
X498191D01*
X496691Y618691D02*
Y621691D01*
X495191Y580191D02*
X498191D01*
X496691Y578691D02*
Y581691D01*
X505191Y80191D02*
X508191D01*
X506691Y78691D02*
Y81691D01*
X495191Y60191D02*
X498191D01*
X496691Y58691D02*
Y61691D01*
X505191Y40191D02*
X508191D01*
X506691Y38691D02*
Y41691D01*
X495191Y20191D02*
X498191D01*
X496691Y18691D02*
Y21691D01*
X475191Y620191D02*
X478191D01*
X476691Y618691D02*
Y621691D01*
X485191Y600191D02*
X488191D01*
X486691Y598691D02*
Y601691D01*
X475191Y580191D02*
X478191D01*
X476691Y578691D02*
Y581691D01*
X475191Y540191D02*
X478191D01*
X476691Y538691D02*
Y541691D01*
X475191Y500191D02*
X478191D01*
X476691Y498691D02*
Y501691D01*
X475191Y460191D02*
X478191D01*
X476691Y458691D02*
Y461691D01*
X485191Y80191D02*
X488191D01*
X486691Y78691D02*
Y81691D01*
X475191Y60191D02*
X478191D01*
X476691Y58691D02*
Y61691D01*
X485191Y40191D02*
X488191D01*
X486691Y38691D02*
Y41691D01*
X475191Y20191D02*
X478191D01*
X476691Y18691D02*
Y21691D01*
X455191Y620191D02*
X458191D01*
X456691Y618691D02*
Y621691D01*
X465191Y600191D02*
X468191D01*
X466691Y598691D02*
Y601691D01*
X465191Y560191D02*
X468191D01*
X466691Y558691D02*
Y561691D01*
X465191Y520191D02*
X468191D01*
X466691Y518691D02*
Y521691D01*
X465191Y480191D02*
X468191D01*
X466691Y478691D02*
Y481691D01*
X465191Y80191D02*
X468191D01*
X466691Y78691D02*
Y81691D01*
X455191Y60191D02*
X458191D01*
X456691Y58691D02*
Y61691D01*
X465191Y40191D02*
X468191D01*
X466691Y38691D02*
Y41691D01*
X455191Y20191D02*
X458191D01*
X456691Y18691D02*
Y21691D01*
X435191Y620191D02*
X438191D01*
X436691Y618691D02*
Y621691D01*
X435191Y60191D02*
X438191D01*
X436691Y58691D02*
Y61691D01*
X445191Y40191D02*
X448191D01*
X446691Y38691D02*
Y41691D01*
X435191Y20191D02*
X438191D01*
X436691Y18691D02*
Y21691D01*
X415191Y620191D02*
X418191D01*
X416691Y618691D02*
Y621691D01*
X415191Y580191D02*
X418191D01*
X416691Y578691D02*
Y581691D01*
X415191Y540191D02*
X418191D01*
X416691Y538691D02*
Y541691D01*
X415191Y500191D02*
X418191D01*
X416691Y498691D02*
Y501691D01*
X415191Y60191D02*
X418191D01*
X416691Y58691D02*
Y61691D01*
X425191Y40191D02*
X428191D01*
X426691Y38691D02*
Y41691D01*
X415191Y20191D02*
X418191D01*
X416691Y18691D02*
Y21691D01*
X395191Y620191D02*
X398191D01*
X396691Y618691D02*
Y621691D01*
X405191Y600191D02*
X408191D01*
X406691Y598691D02*
Y601691D01*
X405191Y560191D02*
X408191D01*
X406691Y558691D02*
Y561691D01*
X405191Y520191D02*
X408191D01*
X406691Y518691D02*
Y521691D01*
X395191Y500191D02*
X398191D01*
X396691Y498691D02*
Y501691D01*
X405191Y480191D02*
X408191D01*
X406691Y478691D02*
Y481691D01*
X395191Y20191D02*
X398191D01*
X396691Y18691D02*
Y21691D01*
X375191Y620191D02*
X378191D01*
X376691Y618691D02*
Y621691D01*
X385191Y600191D02*
X388191D01*
X386691Y598691D02*
Y601691D01*
X375191Y580191D02*
X378191D01*
X376691Y578691D02*
Y581691D01*
X385191Y560191D02*
X388191D01*
X386691Y558691D02*
Y561691D01*
X375191Y540191D02*
X378191D01*
X376691Y538691D02*
Y541691D01*
X375191Y500191D02*
X378191D01*
X376691Y498691D02*
Y501691D01*
X385191Y480191D02*
X388191D01*
X386691Y478691D02*
Y481691D01*
X385191Y40191D02*
X388191D01*
X386691Y38691D02*
Y41691D01*
X375191Y20191D02*
X378191D01*
X376691Y18691D02*
Y21691D01*
X355191Y620191D02*
X358191D01*
X356691Y618691D02*
Y621691D01*
X365191Y600191D02*
X368191D01*
X366691Y598691D02*
Y601691D01*
X355191Y580191D02*
X358191D01*
X356691Y578691D02*
Y581691D01*
X365191Y560191D02*
X368191D01*
X366691Y558691D02*
Y561691D01*
X355191Y540191D02*
X358191D01*
X356691Y538691D02*
Y541691D01*
X365191Y520191D02*
X368191D01*
X366691Y518691D02*
Y521691D01*
X355191Y500191D02*
X358191D01*
X356691Y498691D02*
Y501691D01*
X365191Y480191D02*
X368191D01*
X366691Y478691D02*
Y481691D01*
X115191Y100191D02*
X118191D01*
X116691Y98691D02*
Y101691D01*
X125191Y80191D02*
X128191D01*
X126691Y78691D02*
Y81691D01*
X115191Y60191D02*
X118191D01*
X116691Y58691D02*
Y61691D01*
X115191Y20191D02*
X118191D01*
X116691Y18691D02*
Y21691D01*
X95191Y540191D02*
X98191D01*
X96691Y538691D02*
Y541691D01*
X105191Y480191D02*
X108191D01*
X106691Y478691D02*
Y481691D01*
X95191Y460191D02*
X98191D01*
X96691Y458691D02*
Y461691D01*
X95191Y220191D02*
X98191D01*
X96691Y218691D02*
Y221691D01*
X95191Y180191D02*
X98191D01*
X96691Y178691D02*
Y181691D01*
X95191Y140191D02*
X98191D01*
X96691Y138691D02*
Y141691D01*
X105191Y120191D02*
X108191D01*
X106691Y118691D02*
Y121691D01*
X95191Y100191D02*
X98191D01*
X96691Y98691D02*
Y101691D01*
X105191Y80191D02*
X108191D01*
X106691Y78691D02*
Y81691D01*
X95191Y20191D02*
X98191D01*
X96691Y18691D02*
Y21691D01*
X75191Y540191D02*
X78191D01*
X76691Y538691D02*
Y541691D01*
X75191Y500191D02*
X78191D01*
X76691Y498691D02*
Y501691D01*
X85191Y480191D02*
X88191D01*
X86691Y478691D02*
Y481691D01*
X75191Y460191D02*
X78191D01*
X76691Y458691D02*
Y461691D01*
X75191Y180191D02*
X78191D01*
X76691Y178691D02*
Y181691D01*
X85191Y160191D02*
X88191D01*
X86691Y158691D02*
Y161691D01*
X75191Y140191D02*
X78191D01*
X76691Y138691D02*
Y141691D01*
X85191Y120191D02*
X88191D01*
X86691Y118691D02*
Y121691D01*
X75191Y100191D02*
X78191D01*
X76691Y98691D02*
Y101691D01*
X75191Y20191D02*
X78191D01*
X76691Y18691D02*
Y21691D01*
X55191Y620191D02*
X58191D01*
X56691Y618691D02*
Y621691D01*
X55191Y540191D02*
X58191D01*
X56691Y538691D02*
Y541691D01*
X65191Y520191D02*
X68191D01*
X66691Y518691D02*
Y521691D01*
X55191Y500191D02*
X58191D01*
X56691Y498691D02*
Y501691D01*
X65191Y480191D02*
X68191D01*
X66691Y478691D02*
Y481691D01*
X55191Y220191D02*
X58191D01*
X56691Y218691D02*
Y221691D01*
X55191Y180191D02*
X58191D01*
X56691Y178691D02*
Y181691D01*
X65191Y160191D02*
X68191D01*
X66691Y158691D02*
Y161691D01*
X65191Y120191D02*
X68191D01*
X66691Y118691D02*
Y121691D01*
X55191Y100191D02*
X58191D01*
X56691Y98691D02*
Y101691D01*
X55191Y20191D02*
X58191D01*
X56691Y18691D02*
Y21691D01*
X35191Y420191D02*
X38191D01*
X36691Y418691D02*
Y421691D01*
X35191Y260191D02*
X38191D01*
X36691Y258691D02*
Y261691D01*
X15191Y580191D02*
X18191D01*
X16691Y578691D02*
Y581691D01*
X25191Y560191D02*
X28191D01*
X26691Y558691D02*
Y561691D01*
X15191Y540191D02*
X18191D01*
X16691Y538691D02*
Y541691D01*
X25191Y520191D02*
X28191D01*
X26691Y518691D02*
Y521691D01*
X15191Y500191D02*
X18191D01*
X16691Y498691D02*
Y501691D01*
X25191Y480191D02*
X28191D01*
X26691Y478691D02*
Y481691D01*
X15191Y460191D02*
X18191D01*
X16691Y458691D02*
Y461691D01*
X15191Y420191D02*
X18191D01*
X16691Y418691D02*
Y421691D01*
X511955Y264535D02*
X514955D01*
X513455Y263035D02*
Y266035D01*
X82320Y312420D02*
X85320D01*
X83820Y310920D02*
Y313920D01*
X67080Y312420D02*
X70080D01*
X68580Y310920D02*
Y313920D01*
X74700Y308610D02*
X77700D01*
X76200Y307110D02*
Y310110D01*
X82320Y303530D02*
X85320D01*
X83820Y302030D02*
Y305030D01*
X67080Y303530D02*
X70080D01*
X68580Y302030D02*
Y305030D01*
X199330Y272305D02*
X201330D01*
X200330Y271305D02*
Y273305D01*
X199330Y272305D02*
X201330D01*
X200330Y271305D02*
Y273305D01*
X199330Y260305D02*
X201330D01*
X200330Y259305D02*
Y261305D01*
X199330Y260305D02*
X201330D01*
X200330Y259305D02*
Y261305D01*
X199330Y266305D02*
X201330D01*
X200330Y265305D02*
Y267305D01*
X205330Y266305D02*
X207330D01*
X206330Y265305D02*
Y267305D01*
X193330Y266305D02*
X195330D01*
X194330Y265305D02*
Y267305D01*
X415830Y203200D02*
X419830D01*
X417830Y201200D02*
Y205200D01*
X415830Y175260D02*
X419830D01*
X417830Y173260D02*
Y177260D01*
X401860Y189230D02*
X405860D01*
X403860Y187230D02*
Y191230D01*
X387890Y203200D02*
X391890D01*
X389890Y201200D02*
Y205200D01*
X387890Y175260D02*
X391890D01*
X389890Y173260D02*
Y177260D01*
X201700Y415290D02*
X204700D01*
X203200Y413790D02*
Y416790D01*
X201700Y436880D02*
X204700D01*
X203200Y435380D02*
Y438380D01*
X195350Y426720D02*
X198350D01*
X196850Y425220D02*
Y428220D01*
X189000Y415290D02*
X192000D01*
X190500Y413790D02*
Y416790D01*
X187730Y436880D02*
X190730D01*
X189230Y435380D02*
Y438380D01*
X78510Y87630D02*
X81510D01*
X80010Y86130D02*
Y89130D01*
X169950Y231140D02*
X172950D01*
X171450Y229640D02*
Y232640D01*
X189000Y242570D02*
X192000D01*
X190500Y241070D02*
Y244070D01*
X371380Y287020D02*
X375380D01*
X373380Y285020D02*
Y289020D01*
X353600Y287020D02*
X357600D01*
X355600Y285020D02*
Y289020D01*
X297760Y131560D02*
X300760D01*
X299260Y130060D02*
Y133060D01*
X283750Y99060D02*
X287750D01*
X285750Y97060D02*
Y101060D01*
X262750Y119380D02*
X266750D01*
X264750Y117380D02*
Y121380D01*
X273590Y144780D02*
X277590D01*
X275590Y142780D02*
Y146780D01*
X274860Y172720D02*
X278860D01*
X276860Y170720D02*
Y174720D01*
X65810Y198120D02*
X68810D01*
X67310Y196620D02*
Y199620D01*
X88670Y226060D02*
X91670D01*
X90170Y224560D02*
Y227560D01*
X97250Y246380D02*
X101250D01*
X99250Y244380D02*
Y248380D01*
X119150Y222250D02*
X122150D01*
X120650Y220750D02*
Y223750D01*
X119150Y228600D02*
X122150D01*
X120650Y227100D02*
Y230100D01*
X128040Y228600D02*
X131040D01*
X129540Y227100D02*
Y230100D01*
X128040Y222250D02*
X131040D01*
X129540Y220750D02*
Y223750D01*
X145317Y231154D02*
X148317D01*
X146817Y229654D02*
Y232654D01*
X153440Y220980D02*
X156440D01*
X154940Y219480D02*
Y222480D01*
X153440Y212090D02*
X156440D01*
X154940Y210590D02*
Y213590D01*
X159790Y220980D02*
X162790D01*
X161290Y219480D02*
Y222480D01*
X159790Y212090D02*
X162790D01*
X161290Y210590D02*
Y213590D01*
X211860Y212090D02*
X214860D01*
X213360Y210590D02*
Y213590D01*
X211860Y204470D02*
X214860D01*
X213360Y202970D02*
Y205970D01*
X211860Y241300D02*
X214860D01*
X213360Y239800D02*
Y242800D01*
X218210Y204470D02*
X221210D01*
X219710Y202970D02*
Y205970D01*
X218210Y212090D02*
X221210D01*
X219710Y210590D02*
Y213590D01*
X253770Y205740D02*
X256770D01*
X255270Y204240D02*
Y207240D01*
X255040Y231140D02*
X258040D01*
X256540Y229640D02*
Y232640D01*
X255040Y223520D02*
X258040D01*
X256540Y222020D02*
Y225020D01*
X262660Y223520D02*
X265660D01*
X264160Y222020D02*
Y225020D01*
X262660Y231140D02*
X265660D01*
X264160Y229640D02*
Y232640D01*
X275360Y195930D02*
X278360D01*
X276860Y194430D02*
Y197430D01*
X275360Y203200D02*
X278360D01*
X276860Y201700D02*
Y204700D01*
X275360Y215900D02*
X278360D01*
X276860Y214400D02*
Y217400D01*
X276130Y240030D02*
X280130D01*
X278130Y238030D02*
Y242030D01*
X295180Y219710D02*
X299180D01*
X297180Y217710D02*
Y221710D01*
X323620Y187960D02*
X326620D01*
X325120Y186460D02*
Y189460D01*
X414560Y72370D02*
X418560D01*
X416560Y70370D02*
Y74370D01*
X367570Y83820D02*
X371570D01*
X369570Y81820D02*
Y85820D01*
X375690Y43180D02*
X378690D01*
X377190Y41680D02*
Y44680D01*
X429800Y72370D02*
X433800D01*
X431800Y70370D02*
Y74370D01*
X445040Y72370D02*
X449040D01*
X447040Y70370D02*
Y74370D01*
X404677Y39723D02*
X407677D01*
X406177Y38224D02*
Y41224D01*
X356140Y57000D02*
X360140D01*
X358140Y55000D02*
Y59000D01*
X525550Y109220D02*
X528550D01*
X527050Y107720D02*
Y110720D01*
X531900Y113030D02*
X534900D01*
X533400Y111530D02*
Y114530D01*
X398550Y114300D02*
X401550D01*
X400050Y112800D02*
Y115800D01*
X446810Y114300D02*
X449810D01*
X448310Y112800D02*
Y115800D01*
X379518Y115570D02*
X382517D01*
X381017Y114070D02*
Y117070D01*
X437920Y123190D02*
X440920D01*
X439420Y121690D02*
Y124690D01*
X326160Y139320D02*
X329160D01*
X327660Y137820D02*
Y140820D01*
X326160Y149860D02*
X329160D01*
X327660Y148360D02*
Y151360D01*
X327430Y170180D02*
X330430D01*
X328930Y168680D02*
Y171680D01*
X335050Y219710D02*
X338050D01*
X336550Y218210D02*
Y221210D01*
X343940Y193595D02*
X346940D01*
X345440Y192095D02*
Y195095D01*
X343940Y200865D02*
X346940D01*
X345440Y199365D02*
Y202365D01*
X371880Y248920D02*
X374880D01*
X373380Y247420D02*
Y250420D01*
X373995Y187147D02*
X376995D01*
X375495Y185647D02*
Y188647D01*
X375690Y175260D02*
X378690D01*
X377190Y173760D02*
Y176760D01*
X408360Y133700D02*
X411360D01*
X409860Y132200D02*
Y135200D01*
X423950Y127000D02*
X426950D01*
X425450Y125500D02*
Y128500D01*
X530630Y215900D02*
X533630D01*
X532130Y214400D02*
Y217400D01*
X489029Y217631D02*
X493029D01*
X491029Y215631D02*
Y219631D01*
X495840Y182880D02*
X499840D01*
X497840Y180880D02*
Y184880D01*
X508540Y147320D02*
X512540D01*
X510540Y145320D02*
Y149320D01*
X511580Y194310D02*
X514580D01*
X513080Y192810D02*
Y195810D01*
X525550Y149860D02*
X528550D01*
X527050Y148360D02*
Y151360D01*
X525550Y208280D02*
X528550D01*
X527050Y206780D02*
Y209780D01*
X521740Y270510D02*
X524740D01*
X523240Y269010D02*
Y272010D01*
X46260Y260350D02*
X50260D01*
X48260Y258350D02*
Y262350D01*
X164870Y261620D02*
X167870D01*
X166370Y260120D02*
Y263120D01*
X74790Y280965D02*
X78790D01*
X76790Y278965D02*
Y282965D01*
X196861Y288290D02*
X199861D01*
X198361Y286790D02*
Y289790D01*
X42950Y289560D02*
X45950D01*
X44450Y288060D02*
Y291060D01*
X56920Y293370D02*
X59920D01*
X58420Y291870D02*
Y294870D01*
X93035Y293577D02*
X96035D01*
X94535Y292077D02*
Y295077D01*
X42950Y354330D02*
X45950D01*
X44450Y352830D02*
Y355830D01*
X63270Y336550D02*
X66270D01*
X64770Y335050D02*
Y338050D01*
X91210Y360680D02*
X94210D01*
X92710Y359180D02*
Y362180D01*
X102640Y313690D02*
X105640D01*
X104140Y312190D02*
Y315190D01*
X112800Y500380D02*
X115800D01*
X114300Y498880D02*
Y501880D01*
X112800Y511810D02*
X115800D01*
X114300Y510310D02*
Y513310D01*
X112800Y521970D02*
X115800D01*
X114300Y520470D02*
Y523470D01*
X122960Y521970D02*
X125960D01*
X124460Y520470D02*
Y523470D01*
X122960Y500380D02*
X125960D01*
X124460Y498880D02*
Y501880D01*
X122960Y511810D02*
X125960D01*
X124460Y510310D02*
Y513310D01*
X151670Y524510D02*
X155670D01*
X153670Y522510D02*
Y526510D01*
X152940Y347980D02*
X156940D01*
X154940Y345980D02*
Y349980D01*
X152940Y356870D02*
X156940D01*
X154940Y354870D02*
Y358870D01*
X157250Y397510D02*
X160250D01*
X158750Y396010D02*
Y399010D01*
X163100Y347980D02*
X167100D01*
X165100Y345980D02*
Y349980D01*
X163100Y356870D02*
X167100D01*
X165100Y354870D02*
Y358870D01*
X169950Y397510D02*
X172950D01*
X171450Y396010D02*
Y399010D01*
X169450Y468630D02*
X173450D01*
X171450Y466630D02*
Y470630D01*
X187730Y346710D02*
X190730D01*
X189230Y345210D02*
Y348210D01*
X187730Y353060D02*
X190730D01*
X189230Y351560D02*
Y354560D01*
X195350Y346710D02*
X198350D01*
X196850Y345210D02*
Y348210D01*
X195350Y353060D02*
X198350D01*
X196850Y351560D02*
Y354560D01*
X201700Y330200D02*
X204700D01*
X203200Y328700D02*
Y331700D01*
X202970Y346710D02*
X205970D01*
X204470Y345210D02*
Y348210D01*
X202970Y353060D02*
X205970D01*
X204470Y351560D02*
Y354560D01*
X214400Y311150D02*
X217400D01*
X215900Y309650D02*
Y312650D01*
X220815Y268274D02*
X223815D01*
X222315Y266774D02*
Y269774D01*
X227100Y334010D02*
X230100D01*
X228600Y332510D02*
Y335510D01*
X235990Y293370D02*
X238990D01*
X237490Y291870D02*
Y294870D01*
X237260Y283210D02*
X240260D01*
X238760Y281710D02*
Y284710D01*
X283750Y276860D02*
X287750D01*
X285750Y274860D02*
Y278860D01*
X285020Y355600D02*
X289020D01*
X287020Y353600D02*
Y357600D01*
X362990Y248920D02*
X365990D01*
X364490Y247420D02*
Y250420D01*
X383310Y262890D02*
X386310D01*
X384810Y261390D02*
Y264390D01*
X384580Y320040D02*
X387580D01*
X386080Y318540D02*
Y321540D01*
X384580Y327660D02*
X387580D01*
X386080Y326160D02*
Y329160D01*
X384580Y335280D02*
X387580D01*
X386080Y333780D02*
Y336780D01*
X388413Y250213D02*
X391413D01*
X389913Y248713D02*
Y251713D01*
X394473Y327876D02*
X397473D01*
X395973Y326376D02*
Y329376D01*
X394740Y320040D02*
X397740D01*
X396240Y318540D02*
Y321540D01*
X394740Y335280D02*
X397740D01*
X396240Y333780D02*
Y336780D01*
X404175Y250213D02*
X407175D01*
X405675Y248713D02*
Y251713D01*
X404400Y285750D02*
X408400D01*
X406400Y283750D02*
Y287750D01*
X413790Y250190D02*
X416790D01*
X415290Y248690D02*
Y251690D01*
X434480Y274720D02*
X438480D01*
X436480Y272720D02*
Y276720D01*
X460657Y290147D02*
X463657D01*
X462157Y288647D02*
Y291647D01*
X222020Y375920D02*
X225020D01*
X223520Y374420D02*
Y377420D01*
X222020Y384810D02*
X225020D01*
X223520Y383310D02*
Y386310D01*
X224060Y468630D02*
X228060D01*
X226060Y466630D02*
Y470630D01*
X234720Y375920D02*
X237720D01*
X236220Y374420D02*
Y377420D01*
X234720Y384810D02*
X237720D01*
X236220Y383310D02*
Y386310D01*
X247420Y375920D02*
X250420D01*
X248920Y374420D02*
Y377420D01*
X247420Y384810D02*
X250420D01*
X248920Y383310D02*
Y386310D01*
X246920Y401320D02*
X250920D01*
X248920Y399320D02*
Y403320D01*
X247420Y433070D02*
X250420D01*
X248920Y431570D02*
Y434570D01*
X324623Y546316D02*
X327623D01*
X326123Y544816D02*
Y547816D01*
X334783Y537426D02*
X337783D01*
X336283Y535926D02*
Y538926D01*
X334783Y555206D02*
X337783D01*
X336283Y553706D02*
Y556706D01*
X334783Y546316D02*
X337783D01*
X336283Y544816D02*
Y547816D01*
X344943Y546316D02*
X347943D01*
X346443Y544816D02*
Y547816D01*
X488720Y389890D02*
X491720D01*
X490220Y388390D02*
Y391390D01*
X497610Y389890D02*
X500610D01*
X499110Y388390D02*
Y391390D01*
X506500Y389890D02*
X509500D01*
X508000Y388390D02*
Y391390D01*
X513620Y590550D02*
X517620D01*
X515620Y588550D02*
Y592550D01*
X513620Y610870D02*
X517620D01*
X515620Y608870D02*
Y612870D01*
X513620Y568960D02*
X517620D01*
X515620Y566960D02*
Y570960D01*
X542060Y369570D02*
X545060D01*
X543560Y368070D02*
Y371070D01*
X424147Y248723D02*
X427147D01*
X425647Y247223D02*
Y250223D01*
X430520Y171230D02*
X433520D01*
X432020Y169730D02*
Y172730D01*
X446310Y147320D02*
X450310D01*
X448310Y145320D02*
Y149320D01*
X459510Y182690D02*
X462510D01*
X461010Y181190D02*
Y184190D01*
X462050Y207010D02*
X465050D01*
X463550Y205510D02*
Y208510D01*
X463320Y157480D02*
X466320D01*
X464820Y155980D02*
Y158980D01*
X464590Y231140D02*
X467590D01*
X466090Y229640D02*
Y232640D01*
X466020Y164230D02*
X469020D01*
X467520Y162730D02*
Y165730D01*
X469670Y237490D02*
X472670D01*
X471170Y235990D02*
Y238990D01*
X88170Y73660D02*
X92170D01*
X90170Y71660D02*
Y75660D01*
X67080Y138430D02*
X70080D01*
X68580Y136930D02*
Y139930D01*
X697000Y170180D02*
X700000D01*
X698500Y168680D02*
Y171680D01*
X597940Y171450D02*
X600940D01*
X599440Y169950D02*
Y172950D01*
X603020Y181610D02*
X606020D01*
X604520Y180110D02*
Y183110D01*
X618260Y214630D02*
X621260D01*
X619760Y213130D02*
Y216130D01*
X619910Y301880D02*
X622910D01*
X621410Y300380D02*
Y303380D01*
X639850Y215900D02*
X642850D01*
X641350Y214400D02*
Y217400D01*
X654590Y337820D02*
X658590D01*
X656590Y335820D02*
Y339820D01*
X655860Y275590D02*
X659860D01*
X657860Y273590D02*
Y277590D01*
X668560Y337820D02*
X672560D01*
X670560Y335820D02*
Y339820D01*
X681260Y337820D02*
X685260D01*
X683260Y335820D02*
Y339820D01*
X697000Y186690D02*
X700000D01*
X698500Y185190D02*
Y188190D01*
X698270Y226060D02*
X701270D01*
X699770Y224560D02*
Y227560D01*
X698270Y207010D02*
X701270D01*
X699770Y205510D02*
Y208510D01*
X703350Y212395D02*
X706350D01*
X704850Y210895D02*
Y213895D01*
X703350Y219665D02*
X706350D01*
X704850Y218165D02*
Y221165D01*
X702850Y196850D02*
X706850D01*
X704850Y194850D02*
Y198850D01*
X702850Y234950D02*
X706850D01*
X704850Y232950D02*
Y236950D01*
X702850Y298450D02*
X706850D01*
X704850Y296450D02*
Y300450D01*
X702915Y158815D02*
X706915D01*
X704915Y156815D02*
Y160815D01*
X704620Y174295D02*
X707620D01*
X706120Y172795D02*
Y175795D01*
X704620Y181565D02*
X707620D01*
X706120Y180065D02*
Y183065D01*
X741450Y312420D02*
X744450D01*
X742950Y310920D02*
Y313920D01*
X741450Y322580D02*
X744450D01*
X742950Y321080D02*
Y324080D01*
X742545Y336745D02*
X746545D01*
X744545Y334745D02*
Y338745D01*
X542060Y359410D02*
X545060D01*
X543560Y357910D02*
Y360910D01*
X541560Y532130D02*
X545560D01*
X543560Y530130D02*
Y534130D01*
X543530Y499110D02*
X546530D01*
X545030Y497610D02*
Y500610D01*
X543530Y509270D02*
X546530D01*
X545030Y507770D02*
Y510770D01*
X553490Y359410D02*
X556490D01*
X554990Y357910D02*
Y360910D01*
X553490Y369570D02*
X556490D01*
X554990Y368070D02*
Y371070D01*
X553690Y499110D02*
X556690D01*
X555190Y497610D02*
Y500610D01*
X553690Y509270D02*
X556690D01*
X555190Y507770D02*
Y510770D01*
X563650Y359410D02*
X566650D01*
X565150Y357910D02*
Y360910D01*
X563650Y369570D02*
X566650D01*
X565150Y368070D02*
Y371070D01*
X565120Y509270D02*
X568120D01*
X566620Y507770D02*
Y510770D01*
X565120Y499110D02*
X568120D01*
X566620Y497610D02*
Y500610D01*
X587280Y508000D02*
X591280D01*
X589280Y506000D02*
Y510000D01*
X601250Y508000D02*
X605250D01*
X603250Y506000D02*
Y510000D01*
X612680Y508000D02*
X616680D01*
X614680Y506000D02*
Y510000D01*
X654590Y532130D02*
X658590D01*
X656590Y530130D02*
Y534130D01*
X659670Y405130D02*
X663670D01*
X661670Y403130D02*
Y407130D01*
X659670Y388620D02*
X663670D01*
X661670Y386620D02*
Y390620D01*
X700310Y397510D02*
X704310D01*
X702310Y395510D02*
Y399510D01*
X702850Y450850D02*
X706850D01*
X704850Y448850D02*
Y452850D01*
X740950Y463550D02*
X744950D01*
X742950Y461550D02*
Y465550D01*
X740950Y476250D02*
X744950D01*
X742950Y474250D02*
Y478250D01*
X742545Y349445D02*
X746545D01*
X744545Y347445D02*
Y351445D01*
X742545Y362145D02*
X746545D01*
X744545Y360145D02*
Y364145D01*
X742545Y438345D02*
X746545D01*
X744545Y436345D02*
Y440345D01*
X743490Y374650D02*
X747490D01*
X745490Y372650D02*
Y376650D01*
X743490Y388620D02*
X747490D01*
X745490Y386620D02*
Y390620D01*
X743490Y401320D02*
X747490D01*
X745490Y399320D02*
Y403320D01*
X744760Y419100D02*
X748760D01*
X746760Y417100D02*
Y421100D01*
X540790Y302260D02*
X543790D01*
X542290Y300760D02*
Y303760D01*
X570000Y222410D02*
X573000D01*
X571500Y220910D02*
Y223910D01*
X570000Y236950D02*
X573000D01*
X571500Y235450D02*
Y238450D01*
X570537Y229700D02*
X573537D01*
X572037Y228200D02*
Y231200D01*
M02*
