G04*
G04 #@! TF.GenerationSoftware,Altium Limited,Altium Designer,24.9.1 (31)*
G04*
G04 Layer_Physical_Order=4*
G04 Layer_Color=16711680*
%FSLAX44Y44*%
%MOMM*%
G71*
G04*
G04 #@! TF.SameCoordinates,DBAFCBE9-9C6E-486A-AB20-CA00A55F4774*
G04*
G04*
G04 #@! TF.FilePolarity,Positive*
G04*
G01*
G75*
%ADD11C,0.2000*%
%ADD15C,0.1500*%
%ADD29R,1.0000X0.9000*%
%ADD30R,1.8000X1.3000*%
G04:AMPARAMS|DCode=32|XSize=0.3mm|YSize=0.3mm|CornerRadius=0.0495mm|HoleSize=0mm|Usage=FLASHONLY|Rotation=270.000|XOffset=0mm|YOffset=0mm|HoleType=Round|Shape=RoundedRectangle|*
%AMROUNDEDRECTD32*
21,1,0.3000,0.2010,0,0,270.0*
21,1,0.2010,0.3000,0,0,270.0*
1,1,0.0990,-0.1005,-0.1005*
1,1,0.0990,-0.1005,0.1005*
1,1,0.0990,0.1005,0.1005*
1,1,0.0990,0.1005,-0.1005*
%
%ADD32ROUNDEDRECTD32*%
%ADD34R,1.3000X1.8000*%
%ADD35R,1.3000X1.4000*%
%ADD36R,0.9000X1.0000*%
%ADD37R,0.6000X0.5000*%
%ADD38R,0.8500X0.9500*%
%ADD58R,1.4000X1.3000*%
%ADD104R,1.3890X1.3890*%
%ADD105C,1.3890*%
%ADD107C,0.1200*%
%ADD110C,0.3000*%
%ADD111C,0.4000*%
%ADD112C,0.6000*%
%ADD113C,0.5000*%
%ADD116C,3.5000*%
%ADD117C,2.0000*%
%ADD118C,1.2500*%
%ADD119C,1.1000*%
G04:AMPARAMS|DCode=120|XSize=1.1mm|YSize=1.1mm|CornerRadius=0.275mm|HoleSize=0mm|Usage=FLASHONLY|Rotation=180.000|XOffset=0mm|YOffset=0mm|HoleType=Round|Shape=RoundedRectangle|*
%AMROUNDEDRECTD120*
21,1,1.1000,0.5500,0,0,180.0*
21,1,0.5500,1.1000,0,0,180.0*
1,1,0.5500,-0.2750,0.2750*
1,1,0.5500,0.2750,0.2750*
1,1,0.5500,0.2750,-0.2750*
1,1,0.5500,-0.2750,-0.2750*
%
%ADD120ROUNDEDRECTD120*%
%ADD121C,0.6000*%
%ADD122C,0.5000*%
%ADD123C,0.8000*%
%ADD134R,1.9000X0.6500*%
%ADD135R,0.9000X0.8000*%
%ADD136R,0.4000X0.5000*%
%ADD137C,0.7000*%
G36*
X515580Y606870D02*
X515089Y606863D01*
X514189Y606778D01*
X513780Y606699D01*
X513398Y606597D01*
X513042Y606471D01*
X512714Y606321D01*
X512413Y606147D01*
X512139Y605949D01*
X511891Y605727D01*
X510477Y607141D01*
X510699Y607389D01*
X510897Y607663D01*
X511071Y607964D01*
X511221Y608292D01*
X511347Y608648D01*
X511449Y609030D01*
X511528Y609440D01*
X511582Y609876D01*
X511613Y610339D01*
X511620Y610830D01*
X515580Y606870D01*
D02*
G37*
G36*
Y586550D02*
X515089Y586543D01*
X514189Y586458D01*
X513780Y586379D01*
X513398Y586277D01*
X513042Y586151D01*
X512714Y586001D01*
X512413Y585827D01*
X512139Y585629D01*
X511891Y585407D01*
X510477Y586821D01*
X510699Y587069D01*
X510897Y587343D01*
X511071Y587644D01*
X511221Y587972D01*
X511347Y588328D01*
X511449Y588710D01*
X511528Y589119D01*
X511582Y589556D01*
X511613Y590019D01*
X511620Y590510D01*
X515580Y586550D01*
D02*
G37*
G36*
Y564960D02*
X515089Y564953D01*
X514189Y564868D01*
X513780Y564789D01*
X513398Y564687D01*
X513042Y564561D01*
X512714Y564411D01*
X512413Y564237D01*
X512139Y564039D01*
X511891Y563817D01*
X510477Y565231D01*
X510699Y565479D01*
X510897Y565753D01*
X511071Y566054D01*
X511221Y566382D01*
X511347Y566738D01*
X511449Y567120D01*
X511528Y567529D01*
X511582Y567966D01*
X511613Y568429D01*
X511620Y568920D01*
X515580Y564960D01*
D02*
G37*
G36*
X547567Y531599D02*
X547652Y530700D01*
X547731Y530290D01*
X547833Y529908D01*
X547959Y529552D01*
X548109Y529224D01*
X548283Y528923D01*
X548481Y528649D01*
X548703Y528401D01*
X547289Y526987D01*
X547041Y527209D01*
X546767Y527407D01*
X546466Y527581D01*
X546138Y527731D01*
X545782Y527857D01*
X545400Y527959D01*
X544991Y528038D01*
X544554Y528092D01*
X544091Y528123D01*
X543600Y528130D01*
X547560Y532090D01*
X547567Y531599D01*
D02*
G37*
G36*
X659048Y528922D02*
X658472Y528225D01*
X658238Y527880D01*
X658040Y527537D01*
X657878Y527197D01*
X657752Y526858D01*
X657662Y526522D01*
X657608Y526189D01*
X657590Y525857D01*
X655590D01*
X655572Y526189D01*
X655518Y526522D01*
X655428Y526858D01*
X655302Y527197D01*
X655140Y527537D01*
X654942Y527880D01*
X654708Y528225D01*
X654438Y528572D01*
X654132Y528922D01*
X653790Y529273D01*
X659390D01*
X659048Y528922D01*
D02*
G37*
G36*
X614640Y504000D02*
X614149Y503993D01*
X613250Y503908D01*
X612840Y503829D01*
X612458Y503727D01*
X612102Y503601D01*
X611774Y503451D01*
X611473Y503277D01*
X611199Y503079D01*
X610951Y502857D01*
X609537Y504271D01*
X609759Y504519D01*
X609957Y504793D01*
X610131Y505094D01*
X610281Y505422D01*
X610407Y505778D01*
X610509Y506160D01*
X610588Y506570D01*
X610643Y507006D01*
X610673Y507469D01*
X610680Y507960D01*
X614640Y504000D01*
D02*
G37*
G36*
X593246Y507225D02*
X593251Y506772D01*
X593284Y506343D01*
X593344Y505940D01*
X593431Y505561D01*
X593546Y505209D01*
X593689Y504881D01*
X593859Y504579D01*
X594057Y504302D01*
X594282Y504050D01*
X592775Y502730D01*
X592533Y502947D01*
X592262Y503145D01*
X591963Y503322D01*
X591635Y503480D01*
X591278Y503617D01*
X590893Y503735D01*
X590479Y503833D01*
X590036Y503910D01*
X589064Y504006D01*
X593269Y507704D01*
X593246Y507225D01*
D02*
G37*
G36*
X605112Y504460D02*
X604730Y504241D01*
X604389Y504007D01*
X604087Y503759D01*
X603826Y503495D01*
X603605Y503217D01*
X603424Y502924D01*
X603283Y502616D01*
X603182Y502293D01*
X603122Y501955D01*
X603102Y501603D01*
X601102Y502226D01*
X601088Y502514D01*
X601048Y502823D01*
X600980Y503154D01*
X600885Y503507D01*
X600764Y503880D01*
X600438Y504691D01*
X600235Y505129D01*
X599748Y506067D01*
X605112Y504460D01*
D02*
G37*
G36*
X734249Y479450D02*
X734399Y479317D01*
X734650Y479199D01*
X734999Y479097D01*
X735450Y479011D01*
X736000Y478941D01*
X737400Y478846D01*
X738183Y478833D01*
X739577Y478916D01*
X739781Y478953D01*
X739942Y478995D01*
X740061Y479043D01*
X740139Y479096D01*
X740048Y473497D01*
X739967Y473557D01*
X739845Y473611D01*
X739681Y473659D01*
X739476Y473700D01*
X739229Y473736D01*
X738612Y473786D01*
X738103Y473798D01*
X734999Y473579D01*
X734650Y473494D01*
X734399Y473396D01*
X734249Y473285D01*
X734200Y473161D01*
Y479599D01*
X734249Y479450D01*
D02*
G37*
G36*
X174386Y471373D02*
X174507Y471322D01*
X174670Y471277D01*
X174874Y471238D01*
X175120Y471205D01*
X175736Y471157D01*
X176973Y471130D01*
Y466130D01*
X176519Y466127D01*
X174874Y466022D01*
X174670Y465983D01*
X174507Y465938D01*
X174386Y465887D01*
X174307Y465830D01*
Y471430D01*
X174386Y471373D01*
D02*
G37*
G36*
X182411Y463630D02*
X182361Y464105D01*
X182210Y464530D01*
X181958Y464905D01*
X181606Y465230D01*
X181153Y465505D01*
X180600Y465730D01*
X179946Y465905D01*
X179191Y466030D01*
X178336Y466105D01*
X177381Y466130D01*
Y471130D01*
X178336Y471155D01*
X179191Y471230D01*
X179946Y471355D01*
X180600Y471530D01*
X181153Y471755D01*
X181606Y472030D01*
X181958Y472355D01*
X182210Y472730D01*
X182361Y473155D01*
X182411Y473630D01*
Y463630D01*
D02*
G37*
G36*
X211380Y474060D02*
X211560Y473550D01*
X211859Y473100D01*
X212279Y472710D01*
X212819Y472380D01*
X213479Y472110D01*
X214259Y471900D01*
X215159Y471750D01*
X216180Y471660D01*
X217320Y471630D01*
Y465630D01*
X216180Y465600D01*
X215159Y465510D01*
X214259Y465360D01*
X213479Y465150D01*
X212819Y464880D01*
X212279Y464550D01*
X211859Y464160D01*
X211560Y463710D01*
X211380Y463200D01*
X211320Y462630D01*
Y474630D01*
X211380Y474060D01*
D02*
G37*
G36*
X734249Y466750D02*
X734399Y466617D01*
X734650Y466499D01*
X734999Y466397D01*
X735450Y466311D01*
X736000Y466241D01*
X737400Y466146D01*
X738183Y466133D01*
X739577Y466216D01*
X739781Y466253D01*
X739942Y466295D01*
X740061Y466343D01*
X740139Y466396D01*
X740048Y460797D01*
X739967Y460857D01*
X739845Y460911D01*
X739681Y460959D01*
X739476Y461000D01*
X739229Y461035D01*
X738612Y461086D01*
X738103Y461098D01*
X734999Y460879D01*
X734650Y460794D01*
X734399Y460696D01*
X734249Y460585D01*
X734200Y460461D01*
Y466899D01*
X734249Y466750D01*
D02*
G37*
G36*
X715260Y447761D02*
X715201Y447790D01*
X715021Y447816D01*
X714721Y447839D01*
X711421Y447909D01*
X709260Y447915D01*
Y453915D01*
X715260Y454199D01*
Y447761D01*
D02*
G37*
G36*
X741734Y435499D02*
X741468Y435742D01*
X741188Y435960D01*
X740895Y436152D01*
X740588Y436319D01*
X740268Y436460D01*
X739934Y436575D01*
X739587Y436665D01*
X739226Y436729D01*
X738852Y436767D01*
X738464Y436780D01*
X738411Y439780D01*
X738800Y439793D01*
X739174Y439833D01*
X739534Y439899D01*
X739879Y439991D01*
X740210Y440110D01*
X740526Y440255D01*
X740827Y440426D01*
X741114Y440624D01*
X741386Y440848D01*
X741643Y441098D01*
X741734Y435499D01*
D02*
G37*
G36*
X734199Y440995D02*
X734290Y440740D01*
X734442Y440515D01*
X734654Y440320D01*
X734927Y440155D01*
X735260Y440020D01*
X735654Y439915D01*
X736108Y439840D01*
X736624Y439795D01*
X737199Y439780D01*
Y436780D01*
X736624Y436765D01*
X736108Y436720D01*
X735654Y436645D01*
X735260Y436540D01*
X734927Y436405D01*
X734654Y436240D01*
X734442Y436045D01*
X734290Y435820D01*
X734199Y435565D01*
X734169Y435280D01*
Y441280D01*
X734199Y440995D01*
D02*
G37*
G36*
X746720Y415100D02*
X746360Y415090D01*
X746009Y415051D01*
X745666Y414984D01*
X745331Y414888D01*
X745005Y414764D01*
X744688Y414612D01*
X744378Y414432D01*
X744078Y414223D01*
X743785Y413986D01*
X743502Y413720D01*
X741380Y415842D01*
X741646Y416125D01*
X741883Y416418D01*
X742092Y416718D01*
X742272Y417028D01*
X742424Y417345D01*
X742548Y417671D01*
X742644Y418006D01*
X742711Y418349D01*
X742750Y418700D01*
X742760Y419060D01*
X746720Y415100D01*
D02*
G37*
G36*
X734199Y415595D02*
X734290Y415340D01*
X734442Y415115D01*
X734654Y414920D01*
X734927Y414755D01*
X735260Y414620D01*
X735654Y414515D01*
X736108Y414440D01*
X736624Y414395D01*
X737199Y414380D01*
Y411380D01*
X736624Y411365D01*
X736108Y411320D01*
X735654Y411245D01*
X735260Y411140D01*
X734927Y411005D01*
X734654Y410840D01*
X734442Y410645D01*
X734290Y410420D01*
X734199Y410165D01*
X734169Y409880D01*
Y415880D01*
X734199Y415595D01*
D02*
G37*
G36*
X252540Y409670D02*
X252200Y409551D01*
X251900Y409351D01*
X251640Y409071D01*
X251420Y408711D01*
X251240Y408270D01*
X251100Y407751D01*
X251000Y407150D01*
X250946Y406537D01*
X250992Y405980D01*
X251048Y405636D01*
X251120Y405321D01*
X251208Y405034D01*
X251312Y404777D01*
X251432Y404548D01*
X251568Y404348D01*
X251720Y404177D01*
X246120D01*
X246272Y404348D01*
X246408Y404548D01*
X246528Y404777D01*
X246632Y405034D01*
X246720Y405321D01*
X246792Y405636D01*
X246848Y405980D01*
X246888Y406352D01*
X246895Y406529D01*
X246840Y407150D01*
X246740Y407751D01*
X246600Y408270D01*
X246420Y408711D01*
X246200Y409071D01*
X245940Y409351D01*
X245640Y409551D01*
X245300Y409670D01*
X244920Y409711D01*
X252920D01*
X252540Y409670D01*
D02*
G37*
G36*
X743062Y398142D02*
X742888Y398257D01*
X742685Y398361D01*
X742454Y398452D01*
X742193Y398531D01*
X741904Y398598D01*
X741586Y398653D01*
X740863Y398726D01*
X740459Y398744D01*
X740025Y398750D01*
X739354Y402750D01*
X739784Y402759D01*
X740551Y402834D01*
X740888Y402900D01*
X741194Y402984D01*
X741469Y403086D01*
X741714Y403208D01*
X741928Y403348D01*
X742111Y403507D01*
X742264Y403684D01*
X743062Y398142D01*
D02*
G37*
G36*
X734240Y403276D02*
X734360Y403166D01*
X734559Y403068D01*
X734839Y402984D01*
X735200Y402912D01*
X735639Y402854D01*
X736759Y402776D01*
X738199Y402750D01*
Y398750D01*
X737439Y398732D01*
X736759Y398678D01*
X736160Y398589D01*
X735639Y398464D01*
X735200Y398303D01*
X734839Y398106D01*
X734559Y397873D01*
X734360Y397605D01*
X734240Y397300D01*
X734200Y396960D01*
Y403400D01*
X734240Y403276D01*
D02*
G37*
G36*
X160796Y395316D02*
X160773Y395276D01*
X160752Y395203D01*
X160734Y395097D01*
X160718Y394957D01*
X160686Y394334D01*
X160675Y393409D01*
X156675Y393543D01*
X156597Y395421D01*
X160796Y395316D01*
D02*
G37*
G36*
X509011Y394240D02*
X509044Y393969D01*
X509099Y393703D01*
X509176Y393445D01*
X509275Y393193D01*
X509396Y392948D01*
X509539Y392709D01*
X509704Y392477D01*
X509891Y392251D01*
X510100Y392032D01*
X505900D01*
X506109Y392251D01*
X506296Y392477D01*
X506461Y392709D01*
X506604Y392948D01*
X506725Y393193D01*
X506824Y393445D01*
X506901Y393703D01*
X506956Y393969D01*
X506989Y394240D01*
X507000Y394518D01*
X509000D01*
X509011Y394240D01*
D02*
G37*
G36*
X500121D02*
X500154Y393969D01*
X500209Y393703D01*
X500286Y393445D01*
X500385Y393193D01*
X500506Y392948D01*
X500649Y392709D01*
X500814Y392477D01*
X501001Y392251D01*
X501210Y392032D01*
X497010D01*
X497219Y392251D01*
X497406Y392477D01*
X497571Y392709D01*
X497714Y392948D01*
X497835Y393193D01*
X497934Y393445D01*
X498011Y393703D01*
X498066Y393969D01*
X498099Y394240D01*
X498110Y394518D01*
X500110D01*
X500121Y394240D01*
D02*
G37*
G36*
X491231D02*
X491264Y393969D01*
X491319Y393703D01*
X491396Y393445D01*
X491495Y393193D01*
X491616Y392948D01*
X491759Y392709D01*
X491924Y392477D01*
X492111Y392251D01*
X492320Y392032D01*
X488120D01*
X488329Y392251D01*
X488516Y392477D01*
X488681Y392709D01*
X488824Y392948D01*
X488945Y393193D01*
X489044Y393445D01*
X489121Y393703D01*
X489176Y393969D01*
X489209Y394240D01*
X489220Y394518D01*
X491220D01*
X491231Y394240D01*
D02*
G37*
G36*
X65447Y390820D02*
X65060Y390892D01*
X64656Y390899D01*
X64235Y390841D01*
X63797Y390717D01*
X63342Y390527D01*
X62869Y390272D01*
X62379Y389952D01*
X61873Y389566D01*
X61349Y389115D01*
X60808Y388598D01*
X55875Y393565D01*
X56709Y394409D01*
X60020Y398182D01*
X60288Y398596D01*
X60476Y398948D01*
X60584Y399239D01*
X65447Y390820D01*
D02*
G37*
G36*
X174043Y392309D02*
X174186Y390709D01*
X174312Y390060D01*
X174474Y389510D01*
X174671Y389059D01*
X174904Y388709D01*
X175173Y388460D01*
X175478Y388310D01*
X175819Y388260D01*
X167381D01*
X167693Y388310D01*
X167973Y388460D01*
X168219Y388709D01*
X168433Y389059D01*
X168614Y389510D01*
X168762Y390060D01*
X168877Y390709D01*
X168959Y391460D01*
X169025Y393260D01*
X174025D01*
X174043Y392309D01*
D02*
G37*
G36*
X160695Y391494D02*
X160755Y390808D01*
X160855Y390204D01*
X160995Y389680D01*
X161175Y389237D01*
X161395Y388874D01*
X161655Y388592D01*
X161955Y388390D01*
X162295Y388269D01*
X162675Y388229D01*
X154675D01*
X155055Y388269D01*
X155395Y388390D01*
X155695Y388592D01*
X155955Y388874D01*
X156175Y389237D01*
X156355Y389680D01*
X156495Y390204D01*
X156595Y390808D01*
X156655Y391494D01*
X156675Y392259D01*
X160675D01*
X160695Y391494D01*
D02*
G37*
G36*
X743062Y385442D02*
X742888Y385557D01*
X742685Y385661D01*
X742454Y385752D01*
X742193Y385831D01*
X741904Y385898D01*
X741586Y385953D01*
X740863Y386026D01*
X740459Y386044D01*
X740025Y386050D01*
X739354Y390050D01*
X739784Y390059D01*
X740551Y390134D01*
X740888Y390200D01*
X741194Y390284D01*
X741469Y390386D01*
X741714Y390508D01*
X741928Y390648D01*
X742111Y390807D01*
X742264Y390984D01*
X743062Y385442D01*
D02*
G37*
G36*
X734240Y390576D02*
X734360Y390466D01*
X734559Y390368D01*
X734839Y390284D01*
X735200Y390212D01*
X735639Y390154D01*
X736759Y390076D01*
X738199Y390050D01*
Y386050D01*
X737439Y386032D01*
X736759Y385978D01*
X736160Y385889D01*
X735639Y385764D01*
X735200Y385603D01*
X734839Y385406D01*
X734559Y385173D01*
X734360Y384905D01*
X734240Y384600D01*
X734200Y384260D01*
Y390700D01*
X734240Y390576D01*
D02*
G37*
G36*
X175493Y378770D02*
X175201Y378620D01*
X174943Y378371D01*
X174719Y378021D01*
X174530Y377570D01*
X174375Y377020D01*
X174255Y376371D01*
X174179Y375709D01*
X174200Y375470D01*
X174325Y374720D01*
X174500Y374070D01*
X174725Y373520D01*
X175000Y373069D01*
X175325Y372719D01*
X175700Y372469D01*
X176125Y372319D01*
X176600Y372270D01*
X169130D01*
X169125Y372319D01*
X169119Y372469D01*
X169114Y373820D01*
X169100D01*
X169083Y374771D01*
X168945Y376371D01*
X168825Y377020D01*
X168670Y377570D01*
X168481Y378021D01*
X168257Y378371D01*
X167999Y378620D01*
X167707Y378770D01*
X167381Y378820D01*
X175819D01*
X175493Y378770D01*
D02*
G37*
G36*
X742588Y371897D02*
X742419Y372052D01*
X742220Y372191D01*
X741992Y372314D01*
X741736Y372420D01*
X741450Y372510D01*
X741136Y372584D01*
X740793Y372641D01*
X740420Y372682D01*
X739589Y372715D01*
X739664Y376715D01*
X740095Y376723D01*
X740870Y376785D01*
X741214Y376840D01*
X741530Y376910D01*
X741817Y376996D01*
X742076Y377098D01*
X742306Y377215D01*
X742507Y377348D01*
X742679Y377496D01*
X742588Y371897D01*
D02*
G37*
G36*
X734240Y377756D02*
X734360Y377537D01*
X734559Y377344D01*
X734839Y377177D01*
X735200Y377036D01*
X735639Y376921D01*
X736160Y376831D01*
X736759Y376766D01*
X738199Y376715D01*
Y372715D01*
X737439Y372703D01*
X736160Y372611D01*
X735639Y372530D01*
X735200Y372426D01*
X734839Y372299D01*
X734559Y372149D01*
X734360Y371976D01*
X734240Y371780D01*
X734200Y371561D01*
Y377999D01*
X734240Y377756D01*
D02*
G37*
G36*
X119380Y447040D02*
Y372110D01*
X161290D01*
Y364490D01*
X109220D01*
X102870Y370840D01*
Y441960D01*
X60960D01*
Y454660D01*
X111760D01*
X119380Y447040D01*
D02*
G37*
G36*
X741734Y359299D02*
X741468Y359542D01*
X741188Y359760D01*
X740895Y359952D01*
X740588Y360119D01*
X740268Y360260D01*
X739934Y360375D01*
X739587Y360465D01*
X739226Y360529D01*
X738852Y360567D01*
X738464Y360580D01*
X738411Y363580D01*
X738800Y363593D01*
X739174Y363633D01*
X739534Y363699D01*
X739879Y363791D01*
X740210Y363910D01*
X740526Y364054D01*
X740827Y364226D01*
X741114Y364424D01*
X741386Y364648D01*
X741643Y364898D01*
X741734Y359299D01*
D02*
G37*
G36*
X734199Y364795D02*
X734290Y364540D01*
X734442Y364315D01*
X734654Y364120D01*
X734927Y363955D01*
X735260Y363820D01*
X735654Y363715D01*
X736108Y363640D01*
X736624Y363595D01*
X737199Y363580D01*
Y360580D01*
X736624Y360565D01*
X736108Y360520D01*
X735654Y360445D01*
X735260Y360340D01*
X734927Y360205D01*
X734654Y360040D01*
X734442Y359845D01*
X734290Y359620D01*
X734199Y359365D01*
X734169Y359080D01*
Y365080D01*
X734199Y364795D01*
D02*
G37*
G36*
X741734Y346599D02*
X741468Y346842D01*
X741188Y347060D01*
X740895Y347252D01*
X740588Y347419D01*
X740268Y347560D01*
X739934Y347675D01*
X739587Y347765D01*
X739226Y347829D01*
X738852Y347867D01*
X738464Y347880D01*
X738411Y350880D01*
X738800Y350893D01*
X739174Y350933D01*
X739534Y350999D01*
X739879Y351091D01*
X740210Y351210D01*
X740526Y351354D01*
X740827Y351526D01*
X741114Y351724D01*
X741386Y351948D01*
X741643Y352198D01*
X741734Y346599D01*
D02*
G37*
G36*
X734199Y352095D02*
X734290Y351840D01*
X734442Y351615D01*
X734654Y351420D01*
X734927Y351255D01*
X735260Y351120D01*
X735654Y351015D01*
X736108Y350940D01*
X736624Y350895D01*
X737199Y350880D01*
Y347880D01*
X736624Y347865D01*
X736108Y347820D01*
X735654Y347745D01*
X735260Y347640D01*
X734927Y347505D01*
X734654Y347340D01*
X734442Y347145D01*
X734290Y346920D01*
X734199Y346665D01*
X734169Y346380D01*
Y352380D01*
X734199Y352095D01*
D02*
G37*
G36*
X170180Y342900D02*
X156540D01*
X156492Y342635D01*
X156453Y342260D01*
X156440Y341872D01*
X153440D01*
X153427Y342260D01*
X153388Y342635D01*
X153340Y342900D01*
X149860D01*
Y360680D01*
X170180D01*
Y342900D01*
D02*
G37*
G36*
X741734Y333899D02*
X741468Y334142D01*
X741188Y334360D01*
X740895Y334552D01*
X740588Y334719D01*
X740268Y334860D01*
X739934Y334975D01*
X739587Y335065D01*
X739226Y335129D01*
X738852Y335167D01*
X738464Y335180D01*
X738411Y338180D01*
X738800Y338193D01*
X739174Y338233D01*
X739534Y338299D01*
X739879Y338391D01*
X740210Y338510D01*
X740526Y338655D01*
X740827Y338826D01*
X741114Y339024D01*
X741386Y339248D01*
X741643Y339498D01*
X741734Y333899D01*
D02*
G37*
G36*
X734199Y339395D02*
X734290Y339140D01*
X734442Y338915D01*
X734654Y338720D01*
X734927Y338555D01*
X735260Y338420D01*
X735654Y338315D01*
X736108Y338240D01*
X736624Y338195D01*
X737199Y338180D01*
Y335180D01*
X736624Y335165D01*
X736108Y335120D01*
X735654Y335045D01*
X735260Y334940D01*
X734927Y334805D01*
X734654Y334640D01*
X734442Y334445D01*
X734290Y334220D01*
X734199Y333965D01*
X734169Y333680D01*
Y339680D01*
X734199Y339395D01*
D02*
G37*
G36*
X746760Y307340D02*
X715010D01*
Y327660D01*
X746760D01*
Y307340D01*
D02*
G37*
G36*
X715260Y295361D02*
X715201Y295390D01*
X715021Y295416D01*
X714721Y295439D01*
X711421Y295509D01*
X709260Y295515D01*
Y301515D01*
X715260Y301800D01*
Y295361D01*
D02*
G37*
G36*
X92466Y291405D02*
X92336Y291513D01*
X92184Y291609D01*
X92011Y291695D01*
X91817Y291769D01*
X91601Y291831D01*
X91363Y291883D01*
X91105Y291922D01*
X90523Y291968D01*
X90200Y291974D01*
X90080Y294974D01*
X90402Y294980D01*
X90982Y295030D01*
X91238Y295074D01*
X91474Y295131D01*
X91687Y295200D01*
X91878Y295282D01*
X92048Y295376D01*
X92195Y295483D01*
X92321Y295602D01*
X92466Y291405D01*
D02*
G37*
G36*
X60619Y295435D02*
X60771Y295338D01*
X60944Y295252D01*
X61138Y295179D01*
X61354Y295116D01*
X61592Y295065D01*
X61850Y295025D01*
X62432Y294979D01*
X62755Y294974D01*
X62875Y291974D01*
X62553Y291967D01*
X61973Y291917D01*
X61716Y291873D01*
X61481Y291817D01*
X61268Y291747D01*
X61077Y291666D01*
X60907Y291572D01*
X60760Y291465D01*
X60634Y291345D01*
X60489Y295543D01*
X60619Y295435D01*
D02*
G37*
G36*
X464563Y291991D02*
X465086Y291559D01*
X465345Y291383D01*
X465602Y291235D01*
X465857Y291113D01*
X466111Y291019D01*
X466363Y290951D01*
X466613Y290911D01*
X466862Y290897D01*
Y289397D01*
X466613Y289384D01*
X466363Y289343D01*
X466111Y289276D01*
X465857Y289181D01*
X465602Y289060D01*
X465345Y288911D01*
X465086Y288736D01*
X464826Y288533D01*
X464563Y288304D01*
X464300Y288047D01*
Y292247D01*
X464563Y291991D01*
D02*
G37*
G36*
X408953Y282631D02*
X408732Y282356D01*
X408537Y282066D01*
X408368Y281761D01*
X408225Y281443D01*
X408108Y281111D01*
X408017Y280766D01*
X408035Y280660D01*
X408140Y280270D01*
X408275Y279939D01*
X408440Y279669D01*
X408635Y279459D01*
X408860Y279310D01*
X409115Y279219D01*
X409400Y279189D01*
X403400D01*
X403685Y279219D01*
X403940Y279310D01*
X404165Y279459D01*
X404360Y279669D01*
X404525Y279939D01*
X404660Y280270D01*
X404765Y280660D01*
X404783Y280766D01*
X404692Y281111D01*
X404575Y281443D01*
X404432Y281761D01*
X404263Y282066D01*
X404068Y282356D01*
X403847Y282631D01*
X403600Y282893D01*
X409200D01*
X408953Y282631D01*
D02*
G37*
G36*
X376028Y283992D02*
X375892Y283792D01*
X375772Y283563D01*
X375668Y283306D01*
X375580Y283019D01*
X375508Y282704D01*
X375452Y282360D01*
X375427Y282126D01*
X375460Y281749D01*
X375560Y281150D01*
X375700Y280630D01*
X375880Y280189D01*
X376100Y279830D01*
X376360Y279550D01*
X376660Y279349D01*
X377000Y279230D01*
X377380Y279189D01*
X369380D01*
X369760Y279230D01*
X370100Y279349D01*
X370400Y279550D01*
X370660Y279830D01*
X370880Y280189D01*
X371060Y280630D01*
X371200Y281150D01*
X371300Y281749D01*
X371330Y282092D01*
X371308Y282360D01*
X371252Y282704D01*
X371180Y283019D01*
X371092Y283306D01*
X370988Y283563D01*
X370868Y283792D01*
X370732Y283992D01*
X370580Y284163D01*
X376180D01*
X376028Y283992D01*
D02*
G37*
G36*
X358248D02*
X358112Y283792D01*
X357992Y283563D01*
X357888Y283306D01*
X357800Y283019D01*
X357728Y282704D01*
X357672Y282360D01*
X357647Y282126D01*
X357680Y281749D01*
X357780Y281150D01*
X357920Y280630D01*
X358100Y280189D01*
X358320Y279830D01*
X358580Y279550D01*
X358880Y279349D01*
X359220Y279230D01*
X359600Y279189D01*
X351600D01*
X351980Y279230D01*
X352320Y279349D01*
X352620Y279550D01*
X352880Y279830D01*
X353100Y280189D01*
X353280Y280630D01*
X353420Y281150D01*
X353520Y281749D01*
X353550Y282092D01*
X353528Y282360D01*
X353472Y282704D01*
X353400Y283019D01*
X353312Y283306D01*
X353208Y283563D01*
X353088Y283792D01*
X352952Y283992D01*
X352800Y284163D01*
X358400D01*
X358248Y283992D01*
D02*
G37*
G36*
X240651Y280849D02*
X240464Y280623D01*
X240299Y280391D01*
X240156Y280152D01*
X240035Y279907D01*
X239936Y279655D01*
X239859Y279397D01*
X239804Y279132D01*
X239771Y278860D01*
X239760Y278582D01*
X237760D01*
X237749Y278860D01*
X237716Y279132D01*
X237661Y279397D01*
X237584Y279655D01*
X237485Y279907D01*
X237364Y280152D01*
X237221Y280391D01*
X237056Y280623D01*
X236869Y280849D01*
X236660Y281068D01*
X240860D01*
X240651Y280849D01*
D02*
G37*
G36*
X430419Y277435D02*
X430510Y277180D01*
X430662Y276955D01*
X430874Y276760D01*
X431147Y276595D01*
X431480Y276460D01*
X431720Y276396D01*
X431841Y276428D01*
X432173Y276545D01*
X432491Y276688D01*
X432796Y276857D01*
X433086Y277052D01*
X433362Y277273D01*
X433623Y277520D01*
Y271920D01*
X433362Y272167D01*
X433086Y272388D01*
X432796Y272583D01*
X432491Y272752D01*
X432173Y272895D01*
X431841Y273012D01*
X431720Y273044D01*
X431480Y272980D01*
X431147Y272845D01*
X430874Y272680D01*
X430662Y272485D01*
X430510Y272260D01*
X430419Y272005D01*
X430389Y271720D01*
Y273219D01*
X430372Y273220D01*
Y276220D01*
X430389Y276221D01*
Y277720D01*
X430419Y277435D01*
D02*
G37*
G36*
X428362Y256751D02*
X428107Y256660D01*
X427882Y256508D01*
X427687Y256296D01*
X427522Y256023D01*
X427387Y255690D01*
X427282Y255296D01*
X427207Y254841D01*
X427162Y254326D01*
X427147Y253750D01*
X424147D01*
X424132Y254326D01*
X424087Y254841D01*
X424012Y255296D01*
X423907Y255690D01*
X423772Y256023D01*
X423607Y256296D01*
X423412Y256508D01*
X423187Y256660D01*
X422932Y256751D01*
X422647Y256781D01*
X428647D01*
X428362Y256751D01*
D02*
G37*
G36*
X416054Y254646D02*
X416094Y254396D01*
X416161Y254144D01*
X416256Y253890D01*
X416377Y253635D01*
X416526Y253377D01*
X416702Y253119D01*
X416904Y252858D01*
X417133Y252596D01*
X417390Y252332D01*
X413190D01*
X413447Y252596D01*
X413879Y253119D01*
X414054Y253377D01*
X414202Y253635D01*
X414324Y253890D01*
X414418Y254144D01*
X414486Y254396D01*
X414526Y254646D01*
X414540Y254895D01*
X416040D01*
X416054Y254646D01*
D02*
G37*
G36*
X427153Y252799D02*
X427201Y252218D01*
X427243Y251960D01*
X427297Y251724D01*
X427363Y251509D01*
X427441Y251316D01*
X427531Y251144D01*
X427633Y250994D01*
X427747Y250866D01*
X423547D01*
X423661Y250994D01*
X423763Y251144D01*
X423853Y251316D01*
X423931Y251509D01*
X423997Y251724D01*
X424051Y251960D01*
X424093Y252218D01*
X424123Y252497D01*
X424147Y253121D01*
X427147D01*
X427153Y252799D01*
D02*
G37*
G36*
X410210Y246380D02*
X386080D01*
Y256540D01*
X401320D01*
Y265430D01*
X410210D01*
Y246380D01*
D02*
G37*
G36*
X378460Y243840D02*
X349250D01*
Y266700D01*
X378460D01*
Y243840D01*
D02*
G37*
G36*
X283831Y242036D02*
X283994Y242030D01*
Y238030D01*
X283831Y238027D01*
Y236030D01*
X283790Y236410D01*
X283671Y236750D01*
X283470Y237050D01*
X283190Y237310D01*
X282831Y237530D01*
X282390Y237710D01*
X282044Y237803D01*
X281844Y237742D01*
X281587Y237638D01*
X281358Y237518D01*
X281158Y237382D01*
X280987Y237230D01*
Y237975D01*
X280590Y238010D01*
X279830Y238030D01*
Y242030D01*
X280590Y242050D01*
X280987Y242085D01*
Y242830D01*
X281158Y242678D01*
X281358Y242542D01*
X281587Y242422D01*
X281844Y242318D01*
X282044Y242257D01*
X282390Y242350D01*
X282831Y242530D01*
X283190Y242750D01*
X283470Y243010D01*
X283671Y243310D01*
X283790Y243650D01*
X283831Y244030D01*
Y242036D01*
D02*
G37*
G36*
X64091Y237030D02*
X64061Y237315D01*
X63970Y237570D01*
X63818Y237795D01*
X63606Y237990D01*
X63333Y238155D01*
X63000Y238290D01*
X62606Y238395D01*
X62151Y238470D01*
X61636Y238515D01*
X61061Y238530D01*
Y241530D01*
X61636Y241545D01*
X62151Y241590D01*
X62606Y241665D01*
X63000Y241770D01*
X63333Y241905D01*
X63606Y242070D01*
X63818Y242265D01*
X63970Y242490D01*
X64061Y242745D01*
X64091Y243030D01*
Y237030D01*
D02*
G37*
G36*
X575480Y239516D02*
X575291Y239311D01*
X575122Y239096D01*
X574974Y238869D01*
X574845Y238632D01*
X574737Y238384D01*
X574649Y238125D01*
X574582Y237855D01*
X574534Y237574D01*
X574507Y237283D01*
X574500Y236980D01*
X571530Y239950D01*
X571833Y239957D01*
X572124Y239984D01*
X572405Y240032D01*
X572675Y240099D01*
X572934Y240187D01*
X573182Y240295D01*
X573419Y240424D01*
X573646Y240572D01*
X573861Y240741D01*
X574066Y240930D01*
X575480Y239516D01*
D02*
G37*
G36*
X49089Y243433D02*
X49552Y243034D01*
X50015Y242682D01*
X50480Y242376D01*
X50946Y242118D01*
X51412Y241906D01*
X51880Y241742D01*
X52350Y241624D01*
X52820Y241553D01*
X53292Y241530D01*
Y238530D01*
X52820Y238507D01*
X52350Y238436D01*
X51880Y238319D01*
X51412Y238154D01*
X50946Y237943D01*
X50480Y237684D01*
X50015Y237379D01*
X49552Y237026D01*
X49089Y236626D01*
X48628Y236180D01*
Y243880D01*
X49089Y243433D01*
D02*
G37*
G36*
X473576Y239333D02*
X474099Y238902D01*
X474357Y238726D01*
X474615Y238577D01*
X474870Y238456D01*
X475124Y238361D01*
X475376Y238294D01*
X475626Y238253D01*
X475875Y238240D01*
Y236740D01*
X475626Y236726D01*
X475376Y236686D01*
X475124Y236618D01*
X474870Y236524D01*
X474615Y236402D01*
X474357Y236254D01*
X474099Y236078D01*
X473838Y235876D01*
X473576Y235646D01*
X473312Y235390D01*
Y239590D01*
X473576Y239333D01*
D02*
G37*
G36*
X80740Y235319D02*
X80570Y235257D01*
X80420Y235155D01*
X80290Y235012D01*
X80180Y234829D01*
X80090Y234606D01*
X80020Y234343D01*
X79970Y234039D01*
X79940Y233695D01*
X79930Y233311D01*
X77930D01*
X77921Y233690D01*
X77895Y234030D01*
X77852Y234331D01*
X77791Y234590D01*
X77713Y234811D01*
X77617Y234991D01*
X77504Y235131D01*
X77373Y235231D01*
X77226Y235291D01*
X77060Y235310D01*
X80930Y235341D01*
X80740Y235319D01*
D02*
G37*
G36*
X148323Y235229D02*
X148371Y234648D01*
X148413Y234391D01*
X148467Y234154D01*
X148533Y233939D01*
X148611Y233746D01*
X148701Y233575D01*
X148803Y233425D01*
X148917Y233296D01*
X144717D01*
X144831Y233425D01*
X144933Y233575D01*
X145023Y233746D01*
X145101Y233939D01*
X145168Y234154D01*
X145221Y234391D01*
X145263Y234648D01*
X145293Y234928D01*
X145317Y235552D01*
X148317D01*
X148323Y235229D01*
D02*
G37*
G36*
X72499Y235310D02*
X72391Y235280D01*
X72295Y235191D01*
X72209Y235040D01*
X72135Y234830D01*
X72072Y234561D01*
X72021Y234230D01*
X71953Y233391D01*
X71930Y232311D01*
X68930D01*
X68915Y232885D01*
X68870Y233399D01*
X68795Y233852D01*
X68690Y234246D01*
X68555Y234579D01*
X68390Y234852D01*
X68195Y235064D01*
X67970Y235217D01*
X67715Y235309D01*
X67430Y235341D01*
X72499Y235310D01*
D02*
G37*
G36*
X707927Y237553D02*
X708207Y237335D01*
X708500Y237143D01*
X708807Y236976D01*
X709127Y236835D01*
X709461Y236720D01*
X709808Y236630D01*
X710169Y236566D01*
X710543Y236528D01*
X710931Y236515D01*
X710984Y233515D01*
X710595Y233502D01*
X710220Y233462D01*
X709861Y233396D01*
X709516Y233304D01*
X709185Y233185D01*
X708869Y233041D01*
X708568Y232869D01*
X708281Y232671D01*
X708009Y232447D01*
X707752Y232197D01*
X707661Y237796D01*
X707927Y237553D01*
D02*
G37*
G36*
X715260Y232015D02*
X715230Y232300D01*
X715141Y232555D01*
X714990Y232780D01*
X714781Y232975D01*
X714510Y233140D01*
X714181Y233275D01*
X713791Y233380D01*
X713341Y233455D01*
X712831Y233500D01*
X712261Y233515D01*
Y236515D01*
X712831Y236530D01*
X713341Y236575D01*
X713791Y236650D01*
X714181Y236755D01*
X714510Y236890D01*
X714781Y237055D01*
X714990Y237250D01*
X715141Y237475D01*
X715230Y237730D01*
X715260Y238015D01*
Y232015D01*
D02*
G37*
G36*
X468496Y232983D02*
X469019Y232551D01*
X469277Y232376D01*
X469535Y232227D01*
X469790Y232106D01*
X470044Y232012D01*
X470296Y231944D01*
X470546Y231903D01*
X470795Y231890D01*
Y230390D01*
X470546Y230376D01*
X470296Y230336D01*
X470044Y230268D01*
X469790Y230174D01*
X469535Y230053D01*
X469277Y229904D01*
X469019Y229729D01*
X468758Y229526D01*
X468496Y229296D01*
X468232Y229040D01*
Y233240D01*
X468496Y232983D01*
D02*
G37*
G36*
X79940Y230149D02*
X79969Y229809D01*
X80017Y229510D01*
X80085Y229249D01*
X80172Y229030D01*
X80279Y228850D01*
X80405Y228710D01*
X80550Y228610D01*
X80715Y228549D01*
X80899Y228529D01*
X76961D01*
X77145Y228549D01*
X77309Y228610D01*
X77455Y228710D01*
X77581Y228850D01*
X77688Y229030D01*
X77775Y229249D01*
X77843Y229510D01*
X77891Y229809D01*
X77920Y230149D01*
X77930Y230529D01*
X79930D01*
X79940Y230149D01*
D02*
G37*
G36*
X71940Y230959D02*
X72017Y230000D01*
X72085Y229610D01*
X72172Y229279D01*
X72279Y229009D01*
X72405Y228799D01*
X72551Y228650D01*
X72715Y228559D01*
X72899Y228529D01*
X68960D01*
X68955Y228559D01*
X68949Y228650D01*
X68930Y231530D01*
X71930D01*
X71940Y230959D01*
D02*
G37*
G36*
X575669Y224465D02*
X575484Y224267D01*
X575313Y224057D01*
X575157Y223835D01*
X575015Y223601D01*
X574888Y223355D01*
X574774Y223097D01*
X574675Y222827D01*
X574590Y222545D01*
X574520Y222251D01*
X574464Y221945D01*
X572024Y225364D01*
X572312Y225325D01*
X572590Y225312D01*
X572860Y225324D01*
X573121Y225362D01*
X573373Y225426D01*
X573617Y225516D01*
X573852Y225631D01*
X574079Y225772D01*
X574297Y225939D01*
X574507Y226131D01*
X575669Y224465D01*
D02*
G37*
G36*
X80889Y227870D02*
X80950Y227700D01*
X81052Y227550D01*
X81194Y227420D01*
X81377Y227310D01*
X81600Y227220D01*
X81864Y227150D01*
X82169Y227100D01*
X82514Y227070D01*
X82900Y227060D01*
Y225060D01*
X82514Y225050D01*
X82169Y225020D01*
X81864Y224970D01*
X81600Y224900D01*
X81377Y224810D01*
X81194Y224700D01*
X81052Y224570D01*
X80950Y224420D01*
X80889Y224250D01*
X80869Y224060D01*
Y228060D01*
X80889Y227870D01*
D02*
G37*
G36*
X88028Y223960D02*
X87809Y224169D01*
X87583Y224356D01*
X87351Y224521D01*
X87112Y224664D01*
X86867Y224785D01*
X86615Y224884D01*
X86357Y224961D01*
X86091Y225016D01*
X85820Y225049D01*
X85542Y225060D01*
Y227060D01*
X85820Y227071D01*
X86091Y227104D01*
X86357Y227159D01*
X86615Y227236D01*
X86867Y227335D01*
X87112Y227456D01*
X87351Y227599D01*
X87583Y227764D01*
X87809Y227951D01*
X88028Y228160D01*
Y223960D01*
D02*
G37*
G36*
X302470Y221732D02*
X303044Y221710D01*
Y217710D01*
X302614Y217702D01*
X302470Y217690D01*
Y215710D01*
X302430Y216090D01*
X302311Y216430D01*
X302111Y216730D01*
X301831Y216990D01*
X301471Y217210D01*
X301031Y217390D01*
X300902Y217425D01*
X300894Y217422D01*
X300637Y217318D01*
X300408Y217198D01*
X300208Y217062D01*
X300037Y216910D01*
Y217609D01*
X299911Y217630D01*
X299230Y217690D01*
X298470Y217710D01*
Y221710D01*
X299230Y221730D01*
X299911Y221790D01*
X300037Y221811D01*
Y222510D01*
X300208Y222358D01*
X300408Y222222D01*
X300637Y222102D01*
X300894Y221998D01*
X300902Y221996D01*
X301031Y222030D01*
X301471Y222210D01*
X301831Y222430D01*
X302111Y222690D01*
X302311Y222990D01*
X302430Y223330D01*
X302470Y223710D01*
Y221732D01*
D02*
G37*
G36*
X716836Y219183D02*
X716814Y219161D01*
X716795Y219123D01*
X716779Y219070D01*
X716765Y219001D01*
X716753Y218918D01*
X716738Y218706D01*
X716733Y218433D01*
X715533D01*
X715532Y218577D01*
X715501Y219001D01*
X715487Y219070D01*
X715471Y219123D01*
X715451Y219161D01*
X715430Y219183D01*
X715405Y219191D01*
X716861D01*
X716836Y219183D01*
D02*
G37*
G36*
X707764Y218918D02*
X707777Y218873D01*
X707804Y218818D01*
X707845Y218754D01*
X707899Y218679D01*
X708049Y218499D01*
X708254Y218279D01*
X708377Y218154D01*
X707529Y217306D01*
X707451Y217380D01*
X707313Y217497D01*
X707252Y217540D01*
X707196Y217571D01*
X707145Y217592D01*
X707100Y217603D01*
X707060Y217602D01*
X707026Y217591D01*
X706997Y217569D01*
X707764Y218953D01*
X707764Y218918D01*
D02*
G37*
G36*
X529519Y219591D02*
X529725Y219442D01*
X529950Y219312D01*
X530197Y219199D01*
X530463Y219105D01*
X530750Y219028D01*
X531057Y218969D01*
X531385Y218928D01*
X531732Y218905D01*
X532100Y218900D01*
X529130Y215930D01*
X529125Y216298D01*
X529061Y216973D01*
X529002Y217280D01*
X528925Y217567D01*
X528831Y217833D01*
X528718Y218079D01*
X528588Y218305D01*
X528439Y218511D01*
X528273Y218696D01*
X529334Y219757D01*
X529519Y219591D01*
D02*
G37*
G36*
X326390Y224790D02*
X342900D01*
Y214630D01*
X316019D01*
Y231140D01*
X312420D01*
Y248920D01*
X326390D01*
Y224790D01*
D02*
G37*
G36*
X708377Y213906D02*
X708254Y213781D01*
X707845Y213306D01*
X707804Y213242D01*
X707777Y213187D01*
X707764Y213142D01*
X707764Y213107D01*
X706997Y214491D01*
X707026Y214469D01*
X707060Y214458D01*
X707100Y214457D01*
X707145Y214468D01*
X707196Y214489D01*
X707252Y214520D01*
X707313Y214563D01*
X707380Y214616D01*
X707451Y214680D01*
X707529Y214754D01*
X708377Y213906D01*
D02*
G37*
G36*
X50204Y218818D02*
X50291Y217328D01*
X50374Y216675D01*
X50482Y216084D01*
X50617Y215555D01*
X50778Y215088D01*
X50965Y214681D01*
X51178Y214337D01*
X51417Y214054D01*
X50356Y212994D01*
X50073Y213232D01*
X49729Y213445D01*
X49323Y213632D01*
X48855Y213793D01*
X48326Y213928D01*
X47735Y214036D01*
X47082Y214119D01*
X45592Y214206D01*
X44755Y214210D01*
X50200Y219655D01*
X50204Y218818D01*
D02*
G37*
G36*
X716734Y213483D02*
X716765Y213059D01*
X716779Y212990D01*
X716795Y212937D01*
X716814Y212899D01*
X716836Y212877D01*
X716861Y212869D01*
X715405D01*
X715430Y212877D01*
X715451Y212899D01*
X715471Y212937D01*
X715487Y212990D01*
X715501Y213059D01*
X715512Y213142D01*
X715528Y213354D01*
X715533Y213627D01*
X716733D01*
X716734Y213483D01*
D02*
G37*
G36*
X58140Y211689D02*
X58078Y211805D01*
X57993Y211909D01*
X57885Y212001D01*
X57755Y212080D01*
X57601Y212147D01*
X57425Y212202D01*
X57226Y212245D01*
X57004Y212276D01*
X56760Y212294D01*
X56492Y212300D01*
Y213800D01*
X56760Y213806D01*
X57226Y213855D01*
X57425Y213898D01*
X57601Y213953D01*
X57755Y214020D01*
X57885Y214099D01*
X57993Y214191D01*
X58078Y214294D01*
X58140Y214410D01*
Y211689D01*
D02*
G37*
G36*
X492534Y214775D02*
X493829D01*
X493582Y214513D01*
X493361Y214237D01*
X493166Y213947D01*
X492997Y213643D01*
X492854Y213325D01*
X492762Y213065D01*
X492769Y213040D01*
X492904Y212707D01*
X493069Y212434D01*
X493264Y212222D01*
X493489Y212070D01*
X493744Y211979D01*
X494029Y211949D01*
X492546D01*
X492542Y211912D01*
X492529Y211523D01*
X489529D01*
X489516Y211912D01*
X489512Y211949D01*
X488029D01*
X488314Y211979D01*
X488569Y212070D01*
X488794Y212222D01*
X488989Y212434D01*
X489154Y212707D01*
X489289Y213040D01*
X489295Y213065D01*
X489204Y213325D01*
X489061Y213643D01*
X488892Y213947D01*
X488697Y214237D01*
X488476Y214513D01*
X488229Y214775D01*
X489523D01*
X489529Y214979D01*
X492529D01*
X492534Y214775D01*
D02*
G37*
G36*
X524439Y211971D02*
X524645Y211822D01*
X524870Y211692D01*
X525117Y211579D01*
X525383Y211485D01*
X525670Y211408D01*
X525977Y211349D01*
X526305Y211308D01*
X526652Y211285D01*
X527020Y211280D01*
X524050Y208310D01*
X524045Y208678D01*
X523981Y209353D01*
X523922Y209660D01*
X523845Y209947D01*
X523751Y210213D01*
X523638Y210459D01*
X523508Y210685D01*
X523359Y210891D01*
X523193Y211076D01*
X524254Y212137D01*
X524439Y211971D01*
D02*
G37*
G36*
X69143Y208132D02*
X69003Y208120D01*
X68878Y208074D01*
X68767Y207996D01*
X68671Y207886D01*
X68590Y207743D01*
X68523Y207568D01*
X68471Y207360D01*
X68435Y207120D01*
X68412Y206847D01*
X68405Y206542D01*
X66905Y206579D01*
X66902Y206866D01*
X66839Y207732D01*
X66809Y207879D01*
X66775Y207998D01*
X66735Y208090D01*
X66690Y208154D01*
X66639Y208189D01*
X69143Y208132D01*
D02*
G37*
G36*
X465821Y208996D02*
X465971Y208894D01*
X466143Y208804D01*
X466336Y208726D01*
X466550Y208660D01*
X466787Y208606D01*
X467045Y208564D01*
X467324Y208534D01*
X467948Y208510D01*
Y205510D01*
X467625Y205504D01*
X467045Y205456D01*
X466787Y205414D01*
X466550Y205360D01*
X466336Y205294D01*
X466143Y205216D01*
X465971Y205126D01*
X465821Y205024D01*
X465692Y204910D01*
Y209110D01*
X465821Y208996D01*
D02*
G37*
G36*
X58140Y204690D02*
X58078Y204806D01*
X57993Y204909D01*
X57885Y205001D01*
X57755Y205080D01*
X57601Y205147D01*
X57425Y205202D01*
X57226Y205245D01*
X57004Y205276D01*
X56760Y205294D01*
X56492Y205300D01*
Y206800D01*
X56760Y206806D01*
X57226Y206855D01*
X57425Y206898D01*
X57601Y206953D01*
X57755Y207020D01*
X57885Y207099D01*
X57993Y207191D01*
X58078Y207295D01*
X58140Y207411D01*
Y204690D01*
D02*
G37*
G36*
X471811Y204010D02*
X471781Y204295D01*
X471690Y204550D01*
X471538Y204775D01*
X471326Y204970D01*
X471053Y205135D01*
X470720Y205270D01*
X470326Y205375D01*
X469871Y205450D01*
X469356Y205495D01*
X468781Y205510D01*
Y208510D01*
X469356Y208525D01*
X469871Y208570D01*
X470326Y208645D01*
X470720Y208750D01*
X471053Y208885D01*
X471326Y209050D01*
X471538Y209245D01*
X471690Y209470D01*
X471781Y209725D01*
X471811Y210010D01*
Y204010D01*
D02*
G37*
G36*
X68405Y202713D02*
X68417Y202474D01*
X68454Y202228D01*
X68516Y201975D01*
X68603Y201715D01*
X68714Y201448D01*
X68850Y201174D01*
X69011Y200893D01*
X69197Y200604D01*
X69643Y200007D01*
X65470Y200490D01*
X65743Y200714D01*
X65987Y200942D01*
X66202Y201174D01*
X66389Y201409D01*
X66546Y201647D01*
X66676Y201889D01*
X66776Y202135D01*
X66848Y202384D01*
X66891Y202637D01*
X66905Y202892D01*
X68405Y202713D01*
D02*
G37*
G36*
X51417Y205046D02*
X51178Y204763D01*
X50965Y204419D01*
X50778Y204013D01*
X50617Y203545D01*
X50482Y203015D01*
X50374Y202425D01*
X50291Y201772D01*
X50204Y200282D01*
X50200Y199445D01*
X44755Y204890D01*
X45592Y204894D01*
X47082Y204981D01*
X47735Y205064D01*
X48326Y205172D01*
X48855Y205307D01*
X49323Y205468D01*
X49729Y205655D01*
X50073Y205868D01*
X50356Y206106D01*
X51417Y205046D01*
D02*
G37*
G36*
X338241Y203167D02*
X338303Y202997D01*
X338405Y202847D01*
X338548Y202717D01*
X338731Y202607D01*
X338954Y202518D01*
X339217Y202447D01*
X339521Y202397D01*
X339865Y202367D01*
X340249Y202358D01*
Y200357D01*
X339869Y200348D01*
X339529Y200318D01*
X339230Y200270D01*
X338969Y200201D01*
X338750Y200113D01*
X338569Y200006D01*
X338429Y199879D01*
X338330Y199732D01*
X338270Y199566D01*
X338250Y199380D01*
X338219Y203358D01*
X338241Y203167D01*
D02*
G37*
G36*
X342982Y199145D02*
X342806Y199375D01*
X342618Y199582D01*
X342419Y199764D01*
X342207Y199921D01*
X341983Y200054D01*
X341747Y200164D01*
X341499Y200248D01*
X341239Y200309D01*
X340967Y200345D01*
X340683Y200357D01*
X341038Y202358D01*
X341309Y202367D01*
X341578Y202395D01*
X341845Y202441D01*
X342111Y202506D01*
X342375Y202590D01*
X342638Y202693D01*
X342899Y202814D01*
X343158Y202953D01*
X343415Y203111D01*
X343671Y203288D01*
X342982Y199145D01*
D02*
G37*
G36*
X707927Y199453D02*
X708207Y199235D01*
X708500Y199043D01*
X708807Y198876D01*
X709127Y198735D01*
X709461Y198620D01*
X709808Y198530D01*
X710169Y198466D01*
X710543Y198428D01*
X710931Y198415D01*
X710984Y195415D01*
X710595Y195402D01*
X710220Y195362D01*
X709861Y195296D01*
X709516Y195204D01*
X709185Y195085D01*
X708869Y194940D01*
X708568Y194769D01*
X708281Y194571D01*
X708009Y194347D01*
X707752Y194097D01*
X707661Y199696D01*
X707927Y199453D01*
D02*
G37*
G36*
X715260Y193915D02*
X715230Y194200D01*
X715141Y194455D01*
X714990Y194680D01*
X714781Y194875D01*
X714510Y195040D01*
X714181Y195175D01*
X713791Y195280D01*
X713341Y195355D01*
X712831Y195400D01*
X712261Y195415D01*
Y198415D01*
X712831Y198430D01*
X713341Y198475D01*
X713791Y198550D01*
X714181Y198655D01*
X714510Y198790D01*
X714781Y198955D01*
X714990Y199150D01*
X715141Y199375D01*
X715230Y199630D01*
X715260Y199915D01*
Y193915D01*
D02*
G37*
G36*
X338239Y193660D02*
X338300Y193490D01*
X338402Y193340D01*
X338544Y193210D01*
X338727Y193100D01*
X338950Y193010D01*
X339214Y192940D01*
X339519Y192890D01*
X339864Y192860D01*
X340249Y192850D01*
Y190850D01*
X339864Y190840D01*
X339519Y190810D01*
X339214Y190760D01*
X338950Y190690D01*
X338727Y190600D01*
X338544Y190490D01*
X338402Y190360D01*
X338300Y190210D01*
X338239Y190040D01*
X338219Y189850D01*
Y193850D01*
X338239Y193660D01*
D02*
G37*
G36*
X316009Y189770D02*
X316070Y189600D01*
X316172Y189450D01*
X316314Y189320D01*
X316497Y189210D01*
X316720Y189120D01*
X316984Y189050D01*
X317288Y189000D01*
X317634Y188970D01*
X318020Y188960D01*
Y186960D01*
X317634Y186950D01*
X317288Y186920D01*
X316984Y186870D01*
X316720Y186800D01*
X316497Y186710D01*
X316314Y186600D01*
X316172Y186470D01*
X316070Y186320D01*
X316009Y186150D01*
X315989Y185960D01*
Y189960D01*
X316009Y189770D01*
D02*
G37*
G36*
X322978Y185860D02*
X322759Y186069D01*
X322533Y186256D01*
X322301Y186421D01*
X322062Y186564D01*
X321817Y186685D01*
X321565Y186784D01*
X321307Y186861D01*
X321041Y186916D01*
X320770Y186949D01*
X320492Y186960D01*
Y188960D01*
X320770Y188971D01*
X321041Y189004D01*
X321307Y189059D01*
X321565Y189136D01*
X321817Y189235D01*
X322062Y189356D01*
X322301Y189499D01*
X322533Y189664D01*
X322759Y189851D01*
X322978Y190060D01*
Y185860D01*
D02*
G37*
G36*
X375465Y184147D02*
X375294Y184137D01*
X375115Y184103D01*
X374930Y184045D01*
X374739Y183964D01*
X374540Y183858D01*
X374335Y183729D01*
X374123Y183577D01*
X373904Y183400D01*
X373446Y182976D01*
X371324Y185097D01*
X371548Y185330D01*
X371925Y185774D01*
X372078Y185986D01*
X372207Y186192D01*
X372312Y186390D01*
X372393Y186582D01*
X372451Y186767D01*
X372485Y186945D01*
X372495Y187117D01*
X375465Y184147D01*
D02*
G37*
G36*
X463281Y184676D02*
X463431Y184574D01*
X463602Y184484D01*
X463796Y184406D01*
X464010Y184340D01*
X464247Y184286D01*
X464505Y184244D01*
X464784Y184214D01*
X465408Y184190D01*
Y181190D01*
X465085Y181184D01*
X464505Y181136D01*
X464247Y181094D01*
X464010Y181040D01*
X463796Y180974D01*
X463602Y180896D01*
X463431Y180806D01*
X463281Y180704D01*
X463152Y180590D01*
Y184790D01*
X463281Y184676D01*
D02*
G37*
G36*
X716836Y181083D02*
X716814Y181061D01*
X716795Y181023D01*
X716779Y180970D01*
X716765Y180901D01*
X716753Y180818D01*
X716738Y180606D01*
X716733Y180333D01*
X715533D01*
X715532Y180477D01*
X715501Y180901D01*
X715487Y180970D01*
X715471Y181023D01*
X715451Y181061D01*
X715430Y181083D01*
X715405Y181091D01*
X716861D01*
X716836Y181083D01*
D02*
G37*
G36*
X491310Y185595D02*
X491399Y185340D01*
X491549Y185115D01*
X491759Y184920D01*
X492029Y184755D01*
X492360Y184620D01*
X492749Y184515D01*
X492856Y184497D01*
X493201Y184588D01*
X493533Y184705D01*
X493852Y184848D01*
X494156Y185017D01*
X494446Y185212D01*
X494721Y185433D01*
X494983Y185680D01*
Y180080D01*
X494721Y180327D01*
X494446Y180548D01*
X494156Y180743D01*
X493852Y180912D01*
X493533Y181055D01*
X493201Y181172D01*
X492856Y181263D01*
X492749Y181245D01*
X492360Y181140D01*
X492029Y181005D01*
X491759Y180840D01*
X491549Y180645D01*
X491399Y180420D01*
X491310Y180165D01*
X491279Y179880D01*
Y185880D01*
X491310Y185595D01*
D02*
G37*
G36*
X468871Y179690D02*
X468841Y179975D01*
X468750Y180230D01*
X468598Y180455D01*
X468386Y180650D01*
X468113Y180815D01*
X467780Y180950D01*
X467386Y181055D01*
X466931Y181130D01*
X466416Y181175D01*
X465840Y181190D01*
Y184190D01*
X466416Y184205D01*
X466931Y184250D01*
X467386Y184325D01*
X467780Y184430D01*
X468113Y184565D01*
X468386Y184730D01*
X468598Y184925D01*
X468750Y185150D01*
X468841Y185405D01*
X468871Y185690D01*
Y179690D01*
D02*
G37*
G36*
X709034Y180818D02*
X709047Y180773D01*
X709074Y180718D01*
X709115Y180654D01*
X709169Y180579D01*
X709319Y180399D01*
X709524Y180179D01*
X709647Y180054D01*
X708799Y179206D01*
X708721Y179280D01*
X708583Y179397D01*
X708522Y179440D01*
X708466Y179471D01*
X708415Y179492D01*
X708370Y179503D01*
X708330Y179502D01*
X708296Y179491D01*
X708267Y179469D01*
X709034Y180853D01*
X709034Y180818D01*
D02*
G37*
G36*
X301670Y182981D02*
X301330Y182860D01*
X301030Y182658D01*
X300770Y182376D01*
X300550Y182013D01*
X300370Y181570D01*
X300230Y181046D01*
X300130Y180441D01*
X300088Y179961D01*
X300220Y178150D01*
X300295Y177789D01*
X300383Y177509D01*
X300485Y177309D01*
X300600Y177190D01*
X300730Y177150D01*
X294050Y177119D01*
X294430Y177161D01*
X294770Y177283D01*
X295070Y177486D01*
X295330Y177768D01*
X295550Y178131D01*
X295730Y178574D01*
X295870Y179098D01*
X295970Y179701D01*
X296002Y180071D01*
X295970Y180441D01*
X295870Y181046D01*
X295730Y181570D01*
X295550Y182013D01*
X295330Y182376D01*
X295070Y182658D01*
X294770Y182860D01*
X294430Y182981D01*
X294050Y183021D01*
X302050D01*
X301670Y182981D01*
D02*
G37*
G36*
X709647Y175806D02*
X709524Y175681D01*
X709115Y175206D01*
X709074Y175142D01*
X709047Y175087D01*
X709034Y175042D01*
X709034Y175007D01*
X708267Y176391D01*
X708296Y176369D01*
X708330Y176358D01*
X708370Y176357D01*
X708415Y176368D01*
X708466Y176389D01*
X708522Y176420D01*
X708583Y176463D01*
X708650Y176516D01*
X708721Y176580D01*
X708799Y176654D01*
X709647Y175806D01*
D02*
G37*
G36*
X716734Y175383D02*
X716765Y174959D01*
X716779Y174890D01*
X716795Y174837D01*
X716814Y174799D01*
X716836Y174777D01*
X716861Y174769D01*
X715405D01*
X715430Y174777D01*
X715451Y174799D01*
X715471Y174837D01*
X715487Y174890D01*
X715501Y174959D01*
X715512Y175042D01*
X715528Y175254D01*
X715533Y175527D01*
X716733D01*
X716734Y175383D01*
D02*
G37*
G36*
X433031Y175580D02*
X433064Y175308D01*
X433119Y175043D01*
X433196Y174785D01*
X433295Y174533D01*
X433416Y174288D01*
X433559Y174049D01*
X433724Y173817D01*
X433911Y173591D01*
X434120Y173372D01*
X429920D01*
X430129Y173591D01*
X430316Y173817D01*
X430481Y174049D01*
X430624Y174288D01*
X430745Y174533D01*
X430844Y174785D01*
X430921Y175043D01*
X430976Y175308D01*
X431009Y175580D01*
X431020Y175858D01*
X433020D01*
X433031Y175580D01*
D02*
G37*
G36*
X596829Y175141D02*
X597035Y174992D01*
X597261Y174862D01*
X597507Y174749D01*
X597773Y174655D01*
X598060Y174578D01*
X598367Y174519D01*
X598694Y174478D01*
X599042Y174455D01*
X599410Y174450D01*
X596440Y171480D01*
X596435Y171848D01*
X596371Y172523D01*
X596312Y172830D01*
X596235Y173117D01*
X596141Y173383D01*
X596028Y173629D01*
X595898Y173855D01*
X595749Y174061D01*
X595583Y174246D01*
X596644Y175307D01*
X596829Y175141D01*
D02*
G37*
G36*
X279888Y175368D02*
X280088Y175232D01*
X280317Y175112D01*
X280574Y175008D01*
X280861Y174920D01*
X281176Y174848D01*
X281520Y174792D01*
X281892Y174752D01*
X282724Y174720D01*
Y170720D01*
X282294Y170712D01*
X281520Y170648D01*
X281176Y170592D01*
X280861Y170520D01*
X280574Y170432D01*
X280317Y170328D01*
X280088Y170208D01*
X279888Y170072D01*
X279717Y169920D01*
Y175520D01*
X279888Y175368D01*
D02*
G37*
G36*
X287791Y168720D02*
X287750Y169100D01*
X287631Y169440D01*
X287430Y169740D01*
X287150Y170000D01*
X286791Y170220D01*
X286350Y170400D01*
X285830Y170540D01*
X285231Y170640D01*
X284550Y170700D01*
X283790Y170720D01*
Y174720D01*
X284550Y174740D01*
X285231Y174800D01*
X285830Y174900D01*
X286350Y175040D01*
X286791Y175220D01*
X287150Y175440D01*
X287430Y175700D01*
X287631Y176000D01*
X287750Y176340D01*
X287791Y176720D01*
Y168720D01*
D02*
G37*
G36*
X469881Y166121D02*
X470107Y165934D01*
X470339Y165769D01*
X470578Y165626D01*
X470823Y165505D01*
X471075Y165406D01*
X471333Y165329D01*
X471599Y165274D01*
X471870Y165241D01*
X472148Y165230D01*
Y163230D01*
X471870Y163219D01*
X471599Y163186D01*
X471333Y163131D01*
X471075Y163054D01*
X470823Y162955D01*
X470578Y162834D01*
X470339Y162691D01*
X470107Y162526D01*
X469881Y162339D01*
X469662Y162130D01*
Y166330D01*
X469881Y166121D01*
D02*
G37*
G36*
X707992Y161418D02*
X708272Y161200D01*
X708565Y161008D01*
X708872Y160841D01*
X709192Y160700D01*
X709526Y160585D01*
X709873Y160495D01*
X710234Y160431D01*
X710608Y160393D01*
X710996Y160380D01*
X711049Y157380D01*
X710660Y157367D01*
X710285Y157327D01*
X709926Y157261D01*
X709581Y157169D01*
X709250Y157050D01*
X708934Y156905D01*
X708633Y156734D01*
X708346Y156536D01*
X708074Y156312D01*
X707817Y156062D01*
X707726Y161661D01*
X707992Y161418D01*
D02*
G37*
G36*
X715260Y155880D02*
X715230Y156165D01*
X715141Y156420D01*
X714990Y156645D01*
X714781Y156840D01*
X714510Y157005D01*
X714181Y157140D01*
X713791Y157245D01*
X713341Y157320D01*
X712831Y157365D01*
X712261Y157380D01*
Y160380D01*
X712831Y160395D01*
X713341Y160440D01*
X713791Y160515D01*
X714181Y160620D01*
X714510Y160755D01*
X714781Y160920D01*
X714990Y161115D01*
X715141Y161340D01*
X715230Y161595D01*
X715260Y161880D01*
Y155880D01*
D02*
G37*
G36*
X467181Y159371D02*
X467407Y159184D01*
X467639Y159019D01*
X467878Y158876D01*
X468123Y158755D01*
X468375Y158656D01*
X468633Y158579D01*
X468899Y158524D01*
X469170Y158491D01*
X469448Y158480D01*
Y156480D01*
X469170Y156469D01*
X468899Y156436D01*
X468633Y156381D01*
X468375Y156304D01*
X468123Y156205D01*
X467878Y156084D01*
X467639Y155941D01*
X467407Y155776D01*
X467181Y155589D01*
X466962Y155380D01*
Y159580D01*
X467181Y159371D01*
D02*
G37*
G36*
X50204Y157858D02*
X50291Y156368D01*
X50374Y155715D01*
X50482Y155125D01*
X50617Y154595D01*
X50778Y154128D01*
X50965Y153721D01*
X51178Y153377D01*
X51417Y153094D01*
X50356Y152034D01*
X50073Y152273D01*
X49729Y152485D01*
X49323Y152672D01*
X48855Y152833D01*
X48326Y152968D01*
X47735Y153076D01*
X47082Y153159D01*
X45592Y153246D01*
X44755Y153250D01*
X50200Y158695D01*
X50204Y157858D01*
D02*
G37*
G36*
X58720Y150730D02*
X58657Y150845D01*
X58573Y150949D01*
X58465Y151041D01*
X58334Y151120D01*
X58181Y151187D01*
X58005Y151242D01*
X57806Y151285D01*
X57584Y151316D01*
X57340Y151334D01*
X57072Y151340D01*
Y152840D01*
X57340Y152846D01*
X57806Y152895D01*
X58005Y152938D01*
X58181Y152993D01*
X58334Y153060D01*
X58465Y153139D01*
X58573Y153231D01*
X58657Y153335D01*
X58720Y153450D01*
Y150730D01*
D02*
G37*
G36*
X69825Y147168D02*
X69721Y147083D01*
X69629Y146975D01*
X69550Y146845D01*
X69483Y146691D01*
X69428Y146515D01*
X69385Y146316D01*
X69354Y146094D01*
X69336Y145850D01*
X69330Y145582D01*
X67830D01*
X67824Y145850D01*
X67775Y146316D01*
X67732Y146515D01*
X67677Y146691D01*
X67610Y146845D01*
X67531Y146975D01*
X67439Y147083D01*
X67336Y147168D01*
X67220Y147229D01*
X69941D01*
X69825Y147168D01*
D02*
G37*
G36*
X507683Y144520D02*
X507421Y144767D01*
X507146Y144988D01*
X506856Y145183D01*
X506552Y145352D01*
X506233Y145495D01*
X505901Y145612D01*
X505555Y145703D01*
X505195Y145768D01*
X504820Y145807D01*
X504432Y145820D01*
Y148820D01*
X504820Y148833D01*
X505195Y148872D01*
X505555Y148937D01*
X505901Y149028D01*
X506233Y149145D01*
X506552Y149288D01*
X506856Y149457D01*
X507146Y149652D01*
X507421Y149873D01*
X507683Y150120D01*
Y144520D01*
D02*
G37*
G36*
X451428Y149873D02*
X451704Y149652D01*
X451994Y149457D01*
X452299Y149288D01*
X452617Y149145D01*
X452949Y149028D01*
X453295Y148937D01*
X453655Y148872D01*
X454030Y148833D01*
X454418Y148820D01*
Y145820D01*
X454030Y145807D01*
X453655Y145768D01*
X453295Y145703D01*
X452949Y145612D01*
X452617Y145495D01*
X452299Y145352D01*
X451994Y145183D01*
X451704Y144988D01*
X451428Y144767D01*
X451167Y144520D01*
Y150120D01*
X451428Y149873D01*
D02*
G37*
G36*
X491310Y150035D02*
X491399Y149780D01*
X491549Y149555D01*
X491759Y149360D01*
X492029Y149195D01*
X492360Y149060D01*
X492749Y148955D01*
X493200Y148880D01*
X493709Y148835D01*
X494280Y148820D01*
Y145820D01*
X493709Y145805D01*
X493200Y145760D01*
X492749Y145685D01*
X492360Y145580D01*
X492029Y145445D01*
X491759Y145280D01*
X491549Y145085D01*
X491399Y144860D01*
X491310Y144605D01*
X491279Y144320D01*
Y150320D01*
X491310Y150035D01*
D02*
G37*
G36*
X468871Y144320D02*
X468841Y144605D01*
X468750Y144860D01*
X468598Y145085D01*
X468386Y145280D01*
X468113Y145445D01*
X467780Y145580D01*
X467386Y145685D01*
X466931Y145760D01*
X466416Y145805D01*
X465840Y145820D01*
Y148820D01*
X466416Y148835D01*
X466931Y148880D01*
X467386Y148955D01*
X467780Y149060D01*
X468113Y149195D01*
X468386Y149360D01*
X468598Y149555D01*
X468750Y149780D01*
X468841Y150035D01*
X468871Y150320D01*
Y144320D01*
D02*
G37*
G36*
X58720Y143729D02*
X58657Y143846D01*
X58573Y143949D01*
X58465Y144041D01*
X58334Y144120D01*
X58181Y144187D01*
X58005Y144242D01*
X57806Y144285D01*
X57584Y144316D01*
X57340Y144334D01*
X57072Y144340D01*
Y145840D01*
X57340Y145846D01*
X57806Y145895D01*
X58005Y145938D01*
X58181Y145993D01*
X58334Y146060D01*
X58465Y146139D01*
X58573Y146231D01*
X58657Y146334D01*
X58720Y146451D01*
Y143729D01*
D02*
G37*
G36*
X278618Y147428D02*
X278818Y147292D01*
X279047Y147172D01*
X279304Y147068D01*
X279591Y146980D01*
X279906Y146908D01*
X280250Y146852D01*
X280622Y146812D01*
X281454Y146780D01*
Y142780D01*
X281024Y142772D01*
X280250Y142708D01*
X279906Y142652D01*
X279591Y142580D01*
X279304Y142492D01*
X279047Y142388D01*
X278818Y142268D01*
X278618Y142132D01*
X278447Y141980D01*
Y147580D01*
X278618Y147428D01*
D02*
G37*
G36*
X287411Y140780D02*
X287370Y141160D01*
X287250Y141500D01*
X287050Y141800D01*
X286770Y142060D01*
X286411Y142280D01*
X285970Y142460D01*
X285450Y142600D01*
X284851Y142700D01*
X284170Y142760D01*
X283410Y142780D01*
Y146780D01*
X284170Y146800D01*
X284851Y146860D01*
X285450Y146960D01*
X285970Y147100D01*
X286411Y147280D01*
X286770Y147500D01*
X287050Y147760D01*
X287250Y148060D01*
X287370Y148400D01*
X287411Y148780D01*
Y140780D01*
D02*
G37*
G36*
X69344Y142886D02*
X69384Y142636D01*
X69451Y142384D01*
X69546Y142130D01*
X69668Y141875D01*
X69816Y141617D01*
X69991Y141359D01*
X70194Y141098D01*
X70423Y140836D01*
X70680Y140572D01*
X66480D01*
X66736Y140836D01*
X67168Y141359D01*
X67344Y141617D01*
X67492Y141875D01*
X67614Y142130D01*
X67709Y142384D01*
X67776Y142636D01*
X67817Y142886D01*
X67830Y143135D01*
X69330D01*
X69344Y142886D01*
D02*
G37*
G36*
X51417Y144086D02*
X51178Y143803D01*
X50965Y143459D01*
X50778Y143053D01*
X50617Y142585D01*
X50482Y142056D01*
X50374Y141465D01*
X50291Y140812D01*
X50204Y139322D01*
X50200Y138485D01*
X44755Y143930D01*
X45592Y143934D01*
X47082Y144021D01*
X47735Y144104D01*
X48326Y144212D01*
X48855Y144347D01*
X49323Y144508D01*
X49729Y144695D01*
X50073Y144908D01*
X50356Y145147D01*
X51417Y144086D01*
D02*
G37*
G36*
X425420Y124000D02*
X425249Y123990D01*
X425070Y123956D01*
X424885Y123898D01*
X424694Y123817D01*
X424495Y123712D01*
X424290Y123583D01*
X424078Y123430D01*
X423859Y123254D01*
X423401Y122829D01*
X421279Y124951D01*
X421503Y125183D01*
X421880Y125628D01*
X422033Y125840D01*
X422162Y126045D01*
X422267Y126244D01*
X422348Y126435D01*
X422406Y126620D01*
X422440Y126799D01*
X422450Y126970D01*
X425420Y124000D01*
D02*
G37*
G36*
X273141Y115380D02*
X273100Y115760D01*
X272980Y116100D01*
X272780Y116400D01*
X272500Y116660D01*
X272141Y116880D01*
X271700Y117060D01*
X271180Y117200D01*
X270581Y117300D01*
X269967Y117354D01*
X269410Y117308D01*
X269066Y117252D01*
X268751Y117180D01*
X268464Y117092D01*
X268207Y116988D01*
X267978Y116868D01*
X267778Y116732D01*
X267607Y116580D01*
Y122180D01*
X267778Y122028D01*
X267978Y121892D01*
X268207Y121772D01*
X268464Y121668D01*
X268751Y121580D01*
X269066Y121508D01*
X269410Y121452D01*
X269782Y121412D01*
X269959Y121405D01*
X270581Y121460D01*
X271180Y121560D01*
X271700Y121700D01*
X272141Y121880D01*
X272500Y122100D01*
X272780Y122360D01*
X272980Y122660D01*
X273100Y123000D01*
X273141Y123380D01*
Y115380D01*
D02*
G37*
G36*
X439390Y120190D02*
X439219Y120180D01*
X439040Y120146D01*
X438855Y120088D01*
X438664Y120007D01*
X438465Y119902D01*
X438260Y119773D01*
X438048Y119620D01*
X437829Y119444D01*
X437371Y119019D01*
X435249Y121141D01*
X435473Y121373D01*
X435850Y121818D01*
X436003Y122030D01*
X436132Y122235D01*
X436237Y122434D01*
X436318Y122625D01*
X436376Y122810D01*
X436410Y122989D01*
X436420Y123160D01*
X439390Y120190D01*
D02*
G37*
G36*
X450296Y112029D02*
X450194Y111879D01*
X450104Y111707D01*
X450026Y111514D01*
X449960Y111300D01*
X449906Y111063D01*
X449864Y110805D01*
X449834Y110526D01*
X449810Y109902D01*
X446810D01*
X446804Y110225D01*
X446756Y110805D01*
X446714Y111063D01*
X446660Y111300D01*
X446594Y111514D01*
X446516Y111707D01*
X446426Y111879D01*
X446324Y112029D01*
X446210Y112158D01*
X450410D01*
X450296Y112029D01*
D02*
G37*
G36*
X402036D02*
X401934Y111879D01*
X401844Y111707D01*
X401766Y111514D01*
X401700Y111300D01*
X401646Y111063D01*
X401604Y110805D01*
X401574Y110526D01*
X401550Y109902D01*
X398550D01*
X398544Y110225D01*
X398496Y110805D01*
X398454Y111063D01*
X398400Y111300D01*
X398334Y111514D01*
X398256Y111707D01*
X398166Y111879D01*
X398064Y112029D01*
X397950Y112158D01*
X402150D01*
X402036Y112029D01*
D02*
G37*
G36*
X535243Y110624D02*
X534812Y110101D01*
X534636Y109843D01*
X534487Y109585D01*
X534366Y109330D01*
X534272Y109076D01*
X534204Y108824D01*
X534164Y108574D01*
X534150Y108325D01*
X532650D01*
X532636Y108574D01*
X532596Y108824D01*
X532528Y109076D01*
X532434Y109330D01*
X532313Y109585D01*
X532164Y109843D01*
X531988Y110101D01*
X531786Y110362D01*
X531557Y110624D01*
X531300Y110888D01*
X535500D01*
X535243Y110624D01*
D02*
G37*
G36*
X389890Y92710D02*
X347980D01*
Y107950D01*
X374650Y107950D01*
X374650Y121920D01*
X389890D01*
Y92710D01*
D02*
G37*
G36*
X449825Y107624D02*
X449870Y107108D01*
X449945Y106654D01*
X450050Y106260D01*
X450185Y105927D01*
X450350Y105654D01*
X450545Y105442D01*
X450770Y105290D01*
X451025Y105199D01*
X451310Y105169D01*
X445310D01*
X445595Y105199D01*
X445850Y105290D01*
X446075Y105442D01*
X446270Y105654D01*
X446435Y105927D01*
X446570Y106260D01*
X446675Y106654D01*
X446750Y107108D01*
X446795Y107624D01*
X446810Y108200D01*
X449810D01*
X449825Y107624D01*
D02*
G37*
G36*
X433315D02*
X433360Y107108D01*
X433435Y106654D01*
X433540Y106260D01*
X433675Y105927D01*
X433840Y105654D01*
X434035Y105442D01*
X434260Y105290D01*
X434515Y105199D01*
X434800Y105169D01*
X428800D01*
X429085Y105199D01*
X429340Y105290D01*
X429565Y105442D01*
X429760Y105654D01*
X429925Y105927D01*
X430060Y106260D01*
X430165Y106654D01*
X430240Y107108D01*
X430285Y107624D01*
X430300Y108200D01*
X433300D01*
X433315Y107624D01*
D02*
G37*
G36*
X418075D02*
X418120Y107108D01*
X418195Y106654D01*
X418300Y106260D01*
X418435Y105927D01*
X418600Y105654D01*
X418795Y105442D01*
X419020Y105290D01*
X419275Y105199D01*
X419560Y105169D01*
X413560D01*
X413845Y105199D01*
X414100Y105290D01*
X414325Y105442D01*
X414520Y105654D01*
X414685Y105927D01*
X414820Y106260D01*
X414925Y106654D01*
X415000Y107108D01*
X415045Y107624D01*
X415060Y108200D01*
X418060D01*
X418075Y107624D01*
D02*
G37*
G36*
X401565D02*
X401610Y107108D01*
X401685Y106654D01*
X401790Y106260D01*
X401925Y105927D01*
X402090Y105654D01*
X402285Y105442D01*
X402510Y105290D01*
X402765Y105199D01*
X403050Y105169D01*
X397050D01*
X397335Y105199D01*
X397590Y105290D01*
X397815Y105442D01*
X398010Y105654D01*
X398175Y105927D01*
X398310Y106260D01*
X398415Y106654D01*
X398490Y107108D01*
X398535Y107624D01*
X398550Y108200D01*
X401550D01*
X401565Y107624D01*
D02*
G37*
G36*
X528894Y106814D02*
X528461Y106291D01*
X528286Y106032D01*
X528138Y105775D01*
X528016Y105520D01*
X527921Y105266D01*
X527854Y105014D01*
X527813Y104764D01*
X527800Y104515D01*
X526300D01*
X526287Y104764D01*
X526246Y105014D01*
X526179Y105266D01*
X526084Y105520D01*
X525962Y105775D01*
X525814Y106032D01*
X525639Y106291D01*
X525436Y106552D01*
X525206Y106814D01*
X524950Y107078D01*
X529150D01*
X528894Y106814D01*
D02*
G37*
G36*
X291040Y101082D02*
X291614Y101060D01*
Y97060D01*
X291184Y97052D01*
X291040Y97040D01*
Y95060D01*
X291000Y95440D01*
X290881Y95780D01*
X290681Y96080D01*
X290401Y96340D01*
X290040Y96560D01*
X289601Y96740D01*
X289472Y96775D01*
X289464Y96772D01*
X289207Y96668D01*
X288978Y96548D01*
X288778Y96412D01*
X288607Y96260D01*
Y96959D01*
X288480Y96980D01*
X287801Y97040D01*
X287041Y97060D01*
Y101060D01*
X287801Y101080D01*
X288480Y101140D01*
X288607Y101161D01*
Y101860D01*
X288778Y101708D01*
X288978Y101572D01*
X289207Y101452D01*
X289464Y101348D01*
X289472Y101346D01*
X289601Y101380D01*
X290040Y101560D01*
X290401Y101780D01*
X290681Y102040D01*
X290881Y102340D01*
X291000Y102680D01*
X291040Y103060D01*
Y101082D01*
D02*
G37*
G36*
X334010Y162560D02*
X316230D01*
Y154940D01*
X334010D01*
Y137160D01*
X316230D01*
Y109220D01*
X313690D01*
Y93980D01*
X304800D01*
Y109220D01*
X302260D01*
Y128270D01*
X303530D01*
Y162560D01*
Y176530D01*
X334010D01*
Y162560D01*
D02*
G37*
G36*
X46668Y92627D02*
X46412Y92460D01*
X46187Y92272D01*
X45991Y92063D01*
X45826Y91832D01*
X45690Y91580D01*
X45585Y91306D01*
X45510Y91012D01*
X45465Y90696D01*
X45450Y90359D01*
X43950D01*
X43935Y90696D01*
X43890Y91012D01*
X43815Y91306D01*
X43710Y91580D01*
X43574Y91832D01*
X43409Y92063D01*
X43214Y92272D01*
X42988Y92460D01*
X42732Y92627D01*
X42447Y92773D01*
X46953D01*
X46668Y92627D01*
D02*
G37*
G36*
X411621Y83230D02*
X411581Y83610D01*
X411460Y83950D01*
X411258Y84250D01*
X410976Y84510D01*
X410613Y84730D01*
X410170Y84910D01*
X409646Y85050D01*
X409041Y85150D01*
X408940Y85159D01*
X408839Y85150D01*
X408234Y85050D01*
X407710Y84910D01*
X407267Y84730D01*
X406904Y84510D01*
X406622Y84250D01*
X406420Y83950D01*
X406299Y83610D01*
X406259Y83230D01*
Y91230D01*
X406299Y90850D01*
X406420Y90510D01*
X406622Y90210D01*
X406904Y89950D01*
X407267Y89730D01*
X407710Y89550D01*
X408234Y89410D01*
X408839Y89310D01*
X408940Y89301D01*
X409041Y89310D01*
X409646Y89410D01*
X410170Y89550D01*
X410613Y89730D01*
X410976Y89950D01*
X411258Y90210D01*
X411460Y90510D01*
X411581Y90850D01*
X411621Y91230D01*
Y83230D01*
D02*
G37*
G36*
X375331Y85824D02*
X375434Y85820D01*
Y81820D01*
X375331Y81818D01*
Y79820D01*
X375291Y80200D01*
X375170Y80540D01*
X374968Y80840D01*
X374686Y81100D01*
X374323Y81320D01*
X373880Y81500D01*
X373506Y81600D01*
X373284Y81532D01*
X373027Y81428D01*
X372798Y81308D01*
X372598Y81172D01*
X372427Y81020D01*
Y81768D01*
X372066Y81800D01*
X371301Y81820D01*
Y85820D01*
X372066Y85840D01*
X372427Y85872D01*
Y86620D01*
X372598Y86468D01*
X372798Y86332D01*
X373027Y86212D01*
X373284Y86108D01*
X373506Y86040D01*
X373880Y86140D01*
X374323Y86320D01*
X374686Y86540D01*
X374968Y86800D01*
X375170Y87100D01*
X375291Y87440D01*
X375331Y87820D01*
Y85824D01*
D02*
G37*
G36*
X45465Y84564D02*
X45510Y84248D01*
X45585Y83954D01*
X45690Y83680D01*
X45826Y83428D01*
X45991Y83198D01*
X46187Y82988D01*
X46412Y82800D01*
X46668Y82633D01*
X46953Y82487D01*
X42447D01*
X42732Y82633D01*
X42988Y82800D01*
X43213Y82988D01*
X43409Y83198D01*
X43574Y83428D01*
X43710Y83680D01*
X43815Y83954D01*
X43890Y84248D01*
X43935Y84564D01*
X43950Y84901D01*
X45450D01*
X45465Y84564D01*
D02*
G37*
G36*
X450660Y82720D02*
X450320Y82600D01*
X450020Y82401D01*
X449760Y82121D01*
X449540Y81761D01*
X449360Y81320D01*
X449220Y80801D01*
X449120Y80201D01*
X449060Y79521D01*
X449040Y78760D01*
X445040D01*
X445020Y79521D01*
X444960Y80201D01*
X444860Y80801D01*
X444720Y81320D01*
X444540Y81761D01*
X444320Y82121D01*
X444060Y82401D01*
X443760Y82600D01*
X443420Y82720D01*
X443040Y82760D01*
X451040D01*
X450660Y82720D01*
D02*
G37*
G36*
X435420D02*
X435080Y82600D01*
X434780Y82401D01*
X434520Y82121D01*
X434300Y81761D01*
X434120Y81320D01*
X433980Y80801D01*
X433880Y80201D01*
X433820Y79521D01*
X433800Y78760D01*
X429800D01*
X429780Y79521D01*
X429720Y80201D01*
X429620Y80801D01*
X429480Y81320D01*
X429300Y81761D01*
X429080Y82121D01*
X428820Y82401D01*
X428520Y82600D01*
X428180Y82720D01*
X427800Y82760D01*
X435800D01*
X435420Y82720D01*
D02*
G37*
G36*
X420180D02*
X419840Y82600D01*
X419540Y82401D01*
X419280Y82121D01*
X419060Y81761D01*
X418880Y81320D01*
X418740Y80801D01*
X418640Y80201D01*
X418580Y79521D01*
X418560Y78760D01*
X414560D01*
X414540Y79521D01*
X414480Y80201D01*
X414380Y80801D01*
X414240Y81320D01*
X414060Y81761D01*
X413840Y82121D01*
X413580Y82401D01*
X413280Y82600D01*
X412940Y82720D01*
X412560Y82760D01*
X420560D01*
X420180Y82720D01*
D02*
G37*
G36*
X527580Y79480D02*
X527212Y79057D01*
X526928Y78610D01*
X526730Y78139D01*
X526616Y77644D01*
X526587Y77126D01*
X526644Y76583D01*
X526785Y76017D01*
X527012Y75426D01*
X527323Y74812D01*
X527719Y74174D01*
X519911Y78568D01*
X520773Y78550D01*
X521591Y78579D01*
X522364Y78657D01*
X523092Y78782D01*
X523775Y78955D01*
X524413Y79176D01*
X525007Y79445D01*
X525556Y79762D01*
X526060Y80127D01*
X526520Y80540D01*
X527580Y79480D01*
D02*
G37*
G36*
X449048Y77804D02*
X449112Y77030D01*
X449168Y76686D01*
X449240Y76371D01*
X449328Y76084D01*
X449432Y75827D01*
X449552Y75598D01*
X449688Y75398D01*
X449840Y75227D01*
X444240D01*
X444392Y75398D01*
X444528Y75598D01*
X444648Y75827D01*
X444752Y76084D01*
X444840Y76371D01*
X444912Y76686D01*
X444968Y77030D01*
X445008Y77402D01*
X445040Y78234D01*
X449040D01*
X449048Y77804D01*
D02*
G37*
G36*
X433808D02*
X433872Y77030D01*
X433928Y76686D01*
X434000Y76371D01*
X434088Y76084D01*
X434192Y75827D01*
X434312Y75598D01*
X434448Y75398D01*
X434600Y75227D01*
X429000D01*
X429152Y75398D01*
X429288Y75598D01*
X429408Y75827D01*
X429512Y76084D01*
X429600Y76371D01*
X429672Y76686D01*
X429728Y77030D01*
X429768Y77402D01*
X429800Y78234D01*
X433800D01*
X433808Y77804D01*
D02*
G37*
G36*
X418568D02*
X418632Y77030D01*
X418688Y76686D01*
X418760Y76371D01*
X418848Y76084D01*
X418952Y75827D01*
X419072Y75598D01*
X419208Y75398D01*
X419360Y75227D01*
X413760D01*
X413912Y75398D01*
X414048Y75598D01*
X414168Y75827D01*
X414272Y76084D01*
X414360Y76371D01*
X414432Y76686D01*
X414488Y77030D01*
X414528Y77402D01*
X414560Y78234D01*
X418560D01*
X418568Y77804D01*
D02*
G37*
G36*
X534517Y80042D02*
X535105Y79719D01*
X535829Y79437D01*
X536690Y79194D01*
X537688Y78992D01*
X538823Y78829D01*
X541503Y78625D01*
X544730Y78580D01*
X534831Y68680D01*
X534828Y70362D01*
X534581Y74587D01*
X534418Y75722D01*
X534216Y76719D01*
X533973Y77581D01*
X533691Y78305D01*
X533368Y78893D01*
X533006Y79344D01*
X534067Y80404D01*
X534517Y80042D01*
D02*
G37*
G36*
X361760Y65350D02*
X361420Y65230D01*
X361120Y65030D01*
X360860Y64750D01*
X360640Y64391D01*
X360460Y63951D01*
X360320Y63431D01*
X360220Y62831D01*
X360166Y62217D01*
X360212Y61660D01*
X360268Y61316D01*
X360340Y61001D01*
X360428Y60714D01*
X360532Y60457D01*
X360652Y60228D01*
X360788Y60028D01*
X360940Y59857D01*
X355340D01*
X355492Y60028D01*
X355628Y60228D01*
X355748Y60457D01*
X355852Y60714D01*
X355940Y61001D01*
X356012Y61316D01*
X356068Y61660D01*
X356108Y62032D01*
X356115Y62209D01*
X356060Y62831D01*
X355960Y63431D01*
X355820Y63951D01*
X355640Y64391D01*
X355420Y64750D01*
X355160Y65030D01*
X354860Y65230D01*
X354520Y65350D01*
X354140Y65391D01*
X362140D01*
X361760Y65350D01*
D02*
G37*
D11*
X572037Y230034D02*
X602102Y260099D01*
Y506852D01*
X603250Y508000D01*
X637540Y295910D02*
Y513080D01*
X549910Y525780D02*
X624840D01*
X637540Y513080D01*
X656590Y524510D02*
Y532130D01*
X643890Y511810D02*
X656590Y524510D01*
X643890Y292714D02*
Y511810D01*
X78930Y226060D02*
X90170D01*
X238760Y232410D02*
X261620Y209550D01*
X349250D01*
X311550Y187960D02*
X325120D01*
X78930Y227330D02*
Y237680D01*
X81280Y240030D01*
X238760Y232410D02*
Y283210D01*
X614680Y157480D02*
X632460Y175260D01*
X611270Y164230D02*
X626110Y179070D01*
X608330Y258540D02*
Y501650D01*
X595630Y261080D02*
Y501288D01*
X490220Y389890D02*
Y585470D01*
X499110Y389890D02*
Y574040D01*
X490220Y585470D02*
X515620Y610870D01*
X499110Y574040D02*
X515620Y590550D01*
X508000Y389890D02*
Y561340D01*
X515620Y568960D01*
X543560Y532130D02*
X549910Y525780D01*
X589280Y507638D02*
Y508000D01*
Y507638D02*
X595630Y501288D01*
X608330Y501650D02*
X614680Y508000D01*
X335280Y191850D02*
X342613D01*
X344358Y193595D01*
X345440D01*
X344948Y201357D02*
X345440Y200865D01*
X335773Y201357D02*
X344948D01*
X335280Y201850D02*
X335773Y201357D01*
X349250Y209550D02*
X356870Y217170D01*
X422910D01*
X432020Y171230D02*
Y208060D01*
X422910Y217170D02*
X432020Y208060D01*
X464820Y157480D02*
X614680D01*
X467520Y164230D02*
X611270D01*
X571500Y222410D02*
X572200D01*
X632460Y175260D02*
Y281284D01*
X572037Y229700D02*
Y230034D01*
X626110Y179070D02*
Y284480D01*
X572200Y222410D02*
X608330Y258540D01*
X571500Y236950D02*
X595630Y261080D01*
X632460Y281284D02*
X643890Y292714D01*
X626110Y284480D02*
X637540Y295910D01*
D15*
X527050Y80010D02*
Y109220D01*
X519430Y72390D02*
X527050Y80010D01*
X519430Y68580D02*
Y72390D01*
X419193Y283133D02*
X487757D01*
X599440Y171450D01*
X158800Y88950D02*
X267565Y197715D01*
X157268Y92650D02*
X266032Y201415D01*
X96946Y88950D02*
X158800D01*
X95414Y92650D02*
X157268D01*
X44700Y90359D02*
Y97790D01*
Y77470D02*
Y84901D01*
X45579Y85780D01*
X44700Y90359D02*
X45579Y89480D01*
X44700Y138430D02*
X51360Y145090D01*
X45579Y85780D02*
X60277D01*
X45579Y89480D02*
X61810D01*
X51360Y152090D02*
X60080D01*
X51360Y145090D02*
X60080D01*
X60277Y85780D02*
X67147Y78910D01*
X61810Y89480D02*
X68680Y82610D01*
X68580Y138430D02*
Y148590D01*
X67147Y78910D02*
X86906D01*
X68680Y82610D02*
X85374D01*
X95414Y92650D01*
X86906Y78910D02*
X96946Y88950D01*
X44700Y199390D02*
X51360Y206050D01*
X44700Y158750D02*
X51360Y152090D01*
X44700Y219710D02*
X51360Y213050D01*
X51360Y206050D02*
X59500D01*
X51360Y213050D02*
X59500D01*
X67310Y198120D02*
X67655Y198465D01*
Y209205D01*
X68000Y209550D01*
X266032Y201415D02*
X273857D01*
X267565Y197715D02*
X273857D01*
X275642Y195930D01*
X273857Y201415D02*
X275642Y203200D01*
Y195930D02*
X276860D01*
X275642Y203200D02*
X276860D01*
X415290Y250190D02*
Y279230D01*
X419193Y283133D01*
X533400Y80010D02*
X544830Y68580D01*
X533400Y80010D02*
Y113030D01*
X603302Y181610D02*
X604520D01*
X601717Y183195D02*
X603302Y181610D01*
X601680Y183195D02*
X601717D01*
X568120Y216755D02*
X601680Y183195D01*
X568111Y216765D02*
X568120Y216755D01*
X504190Y231140D02*
X527050Y208280D01*
X510540Y237490D02*
X532130Y215900D01*
X466090Y231140D02*
X504190D01*
X471170Y237490D02*
X510540D01*
X496861Y289268D02*
X568111Y216765D01*
X495983Y290147D02*
X496861Y289268D01*
X462157Y290147D02*
X495983D01*
D29*
X406400Y261220D02*
D03*
Y274720D02*
D03*
X425450D02*
D03*
Y261220D02*
D03*
X373380Y274720D02*
D03*
Y261220D02*
D03*
X355600Y274720D02*
D03*
Y261220D02*
D03*
X431800Y87230D02*
D03*
Y100730D02*
D03*
X447040Y87230D02*
D03*
Y100730D02*
D03*
X401320Y87230D02*
D03*
Y100730D02*
D03*
X416560Y87230D02*
D03*
Y100730D02*
D03*
D30*
X358140Y71860D02*
D03*
Y100860D02*
D03*
D32*
X59500Y213050D02*
D03*
X68000Y209550D02*
D03*
X59500Y206050D02*
D03*
X60080Y145090D02*
D03*
X68580Y148590D02*
D03*
X60080Y152090D02*
D03*
D34*
X308610Y119380D02*
D03*
X279610D02*
D03*
X290300Y240030D02*
D03*
X319300D02*
D03*
D35*
X188850Y468630D02*
D03*
X204850D02*
D03*
X310260Y170180D02*
D03*
X294260D02*
D03*
X309880Y144780D02*
D03*
X293880D02*
D03*
D36*
X476250Y207010D02*
D03*
X489750D02*
D03*
X486810Y147320D02*
D03*
X473310D02*
D03*
Y182880D02*
D03*
X486810D02*
D03*
X295510Y99060D02*
D03*
X309010D02*
D03*
X298050Y187960D02*
D03*
X311550D02*
D03*
X306940Y219710D02*
D03*
X320440D02*
D03*
D37*
X335280Y191850D02*
D03*
Y201850D02*
D03*
D38*
X171600Y383540D02*
D03*
X158600D02*
D03*
X68280Y240030D02*
D03*
X81280D02*
D03*
D58*
X248920Y432180D02*
D03*
Y416180D02*
D03*
X382270Y99440D02*
D03*
Y83440D02*
D03*
D104*
X67310Y448310D02*
D03*
D105*
Y422910D02*
D03*
Y397510D02*
D03*
D107*
X718783Y209680D02*
X724730D01*
X716133Y212330D02*
X718783Y209680D01*
X704850Y212395D02*
X706018D01*
X716133Y212330D02*
Y213627D01*
X706018Y212395D02*
X707953Y214330D01*
X715430D02*
X716133Y213627D01*
X707953Y214330D02*
X715430D01*
X707953Y217730D02*
X715430D01*
X716133Y218433D01*
X706018Y219665D02*
X707953Y217730D01*
X716133Y218433D02*
Y219730D01*
X704850Y219665D02*
X706018D01*
X716133Y219730D02*
X718783Y222380D01*
Y171580D02*
X724730D01*
X716133Y174230D02*
X718783Y171580D01*
X706120Y174295D02*
X707288D01*
X716133Y174230D02*
Y175527D01*
X707288Y174295D02*
X709223Y176230D01*
X715430D02*
X716133Y175527D01*
X709223Y176230D02*
X715430D01*
X709223Y179630D02*
X715430D01*
X716133Y180333D01*
X707288Y181565D02*
X709223Y179630D01*
X716133Y180333D02*
Y181630D01*
X706120Y181565D02*
X707288D01*
X716133Y181630D02*
X718783Y184280D01*
X724730D01*
X718783Y222380D02*
X724730D01*
D110*
X70430Y227830D02*
X70930Y227330D01*
X44700Y240030D02*
X68280D01*
X58420Y293370D02*
X58524Y293474D01*
X68280Y240030D02*
X70430Y237880D01*
Y227830D02*
Y237880D01*
X58524Y293474D02*
X94431D01*
X94535Y293577D01*
X146817Y231154D02*
Y299217D01*
X154940Y307340D01*
Y347980D01*
X704980Y158880D02*
X724730D01*
X704915Y196915D02*
X724665D01*
X425450Y274720D02*
X436480D01*
X724730Y362080D02*
X744480D01*
X724730Y336680D02*
X744480D01*
X724730Y349380D02*
X744480D01*
X724730Y412880D02*
X740540D01*
X724730Y438280D02*
X744480D01*
X740540Y412880D02*
X746760Y419100D01*
X400050Y102000D02*
X401320Y100730D01*
X400050Y102000D02*
Y114300D01*
X416560Y100730D02*
Y118110D01*
X328930Y170180D02*
X358528D01*
X375495Y187147D01*
X447040Y100730D02*
X448310Y102000D01*
Y114300D01*
X431800Y100730D02*
Y115570D01*
X439420Y123190D01*
X416560Y118110D02*
X425450Y127000D01*
X448310Y147320D02*
X473310D01*
X461010Y182690D02*
X473120D01*
X473310Y182880D01*
X463550Y207010D02*
X476250D01*
X425647Y248723D02*
Y260147D01*
X426720Y261220D01*
X403860Y261620D02*
X405675Y259805D01*
X406400Y274720D02*
Y285750D01*
X486810Y147320D02*
X510540D01*
X486810Y182880D02*
X497840D01*
X489750Y207010D02*
X491029Y208289D01*
Y217631D01*
X704850Y234950D02*
X704915Y235015D01*
X724665D01*
X724730Y235080D01*
D111*
X373380Y274720D02*
Y287020D01*
X355600Y274720D02*
Y287020D01*
X264750Y119380D02*
X279610D01*
X276860Y172720D02*
X291720D01*
X275590Y144780D02*
X293880D01*
X285750Y99060D02*
X295510D01*
X291720Y172720D02*
X294260Y170180D01*
X298050Y173970D01*
Y187960D01*
X297180Y219710D02*
X306940D01*
X158600Y383540D02*
X158675Y383615D01*
Y397435D01*
X158750Y397510D01*
X278130Y240030D02*
X290300D01*
X248920Y401320D02*
Y416180D01*
X724730Y374780D02*
X724795Y374715D01*
X724730Y400180D02*
X725300Y400750D01*
X724730Y387480D02*
X725300Y388050D01*
X724795Y374715D02*
X745425D01*
X725300Y400750D02*
X744920D01*
X725300Y388050D02*
X744920D01*
Y400750D02*
X745490Y401320D01*
X744920Y388050D02*
X745490Y388620D01*
X745425Y374715D02*
X745490Y374650D01*
X724730Y463680D02*
X724795Y463615D01*
X724730Y476380D02*
X724795Y476315D01*
X742885Y463615D02*
X742950Y463550D01*
X742885Y476315D02*
X742950Y476250D01*
X358140Y57000D02*
Y71860D01*
X416560Y72370D02*
Y87230D01*
X369570Y83820D02*
X379730D01*
X401320Y87230D02*
X416560D01*
X431800Y72370D02*
Y87230D01*
X447040Y72370D02*
Y87230D01*
D112*
X165100Y347980D02*
X193040Y320040D01*
X274320D01*
X345440Y248920D01*
X204850Y468630D02*
X226060D01*
X704850Y450850D02*
X704915Y450915D01*
X724665D01*
X724730Y450980D01*
X345440Y248920D02*
X364490D01*
X704850Y298450D02*
X704915Y298515D01*
X724665D01*
X724730Y298580D01*
D113*
X171450Y397510D02*
X171525Y397435D01*
Y383540D02*
Y397435D01*
X171600Y369800D02*
Y383540D01*
Y369800D02*
X173100Y368300D01*
X173600D01*
X171450Y468630D02*
X188850D01*
X724795Y463615D02*
X742885D01*
X724795Y476315D02*
X742885D01*
D116*
X27540Y27540D02*
D03*
X754380D02*
D03*
X27540Y609600D02*
D03*
X754380Y608730D02*
D03*
D117*
X760730Y547630D02*
D03*
Y87630D02*
D03*
X544830Y68580D02*
D03*
X519430D02*
D03*
X570230D02*
D03*
X335280Y118110D02*
D03*
X471170Y119380D02*
D03*
X472060Y261240D02*
D03*
D118*
X720730Y517630D02*
D03*
Y117630D02*
D03*
D119*
X44700Y138430D02*
D03*
Y219710D02*
D03*
Y199390D02*
D03*
Y179070D02*
D03*
Y158750D02*
D03*
Y118110D02*
D03*
Y97790D02*
D03*
Y77470D02*
D03*
Y240030D02*
D03*
D120*
Y57150D02*
D03*
D121*
X26691Y440191D02*
D03*
X136691Y540191D02*
D03*
Y500191D02*
D03*
X146691Y480191D02*
D03*
X136691Y460191D02*
D03*
X146691Y440191D02*
D03*
X136691Y420191D02*
D03*
Y140191D02*
D03*
X146691Y120191D02*
D03*
X136691Y100191D02*
D03*
X146691Y80191D02*
D03*
X136691Y60191D02*
D03*
Y20191D02*
D03*
X116691Y540191D02*
D03*
X126691Y480191D02*
D03*
X116691Y460191D02*
D03*
X126691Y440191D02*
D03*
Y200191D02*
D03*
X116691Y180191D02*
D03*
Y140191D02*
D03*
X126691Y120191D02*
D03*
X176691Y540191D02*
D03*
X186691Y520191D02*
D03*
X176691Y500191D02*
D03*
X186691Y480191D02*
D03*
X176691Y140191D02*
D03*
X186691Y80191D02*
D03*
X176691Y60191D02*
D03*
Y20191D02*
D03*
X166691Y520191D02*
D03*
X156691Y500191D02*
D03*
X166691Y480191D02*
D03*
X156691Y460191D02*
D03*
X166691Y120191D02*
D03*
X156691Y100191D02*
D03*
X166691Y80191D02*
D03*
X156691Y60191D02*
D03*
Y20191D02*
D03*
X676691D02*
D03*
X666691Y600191D02*
D03*
X656691Y580191D02*
D03*
X666691Y560191D02*
D03*
X656691Y500191D02*
D03*
X666691Y440191D02*
D03*
Y120191D02*
D03*
X656691Y100191D02*
D03*
X666691Y80191D02*
D03*
X656691Y60191D02*
D03*
X666691Y40191D02*
D03*
X656691Y20191D02*
D03*
X646691Y600191D02*
D03*
X636691Y580191D02*
D03*
X646691Y560191D02*
D03*
X636691Y100191D02*
D03*
X646691Y80191D02*
D03*
X636691Y60191D02*
D03*
X646691Y40191D02*
D03*
X636691Y20191D02*
D03*
X626691Y600191D02*
D03*
X616691Y580191D02*
D03*
X626691Y80191D02*
D03*
X616691Y60191D02*
D03*
X626691Y40191D02*
D03*
X616691Y20191D02*
D03*
X606691Y80191D02*
D03*
X596691Y60191D02*
D03*
X606691Y40191D02*
D03*
X596691Y20191D02*
D03*
X576691Y620191D02*
D03*
X586691Y600191D02*
D03*
X576691Y580191D02*
D03*
X586691Y560191D02*
D03*
X576691Y540191D02*
D03*
X586691Y520191D02*
D03*
Y480191D02*
D03*
X576691Y460191D02*
D03*
X586691Y80191D02*
D03*
Y40191D02*
D03*
X576691Y20191D02*
D03*
X556691Y580191D02*
D03*
X566691Y520191D02*
D03*
X556691Y460191D02*
D03*
X566691Y40191D02*
D03*
X556691Y20191D02*
D03*
X536691Y580191D02*
D03*
X546691Y520191D02*
D03*
X536691Y500191D02*
D03*
Y460191D02*
D03*
X546691Y40191D02*
D03*
X536691Y20191D02*
D03*
X516691Y620191D02*
D03*
X526691Y600191D02*
D03*
X516691Y580191D02*
D03*
X526691Y560191D02*
D03*
X516691Y540191D02*
D03*
X526691Y520191D02*
D03*
X516691Y500191D02*
D03*
X526691Y480191D02*
D03*
X516691Y460191D02*
D03*
X526691Y40191D02*
D03*
X516691Y20191D02*
D03*
X766691Y520191D02*
D03*
X756691Y460191D02*
D03*
Y420191D02*
D03*
X766691Y320191D02*
D03*
Y280191D02*
D03*
X756691Y260191D02*
D03*
X766691Y240191D02*
D03*
X756691Y220191D02*
D03*
X766691Y200191D02*
D03*
X756691Y180191D02*
D03*
X766691Y160191D02*
D03*
X756691Y140191D02*
D03*
X766691Y120191D02*
D03*
X756691Y60191D02*
D03*
X736691Y580191D02*
D03*
X746691Y560191D02*
D03*
X736691Y540191D02*
D03*
X746691Y520191D02*
D03*
X736691Y500191D02*
D03*
X746691Y240191D02*
D03*
Y200191D02*
D03*
Y160191D02*
D03*
X736691Y140191D02*
D03*
X746691Y120191D02*
D03*
X736691Y100191D02*
D03*
X746691Y80191D02*
D03*
X736691Y60191D02*
D03*
X716691Y620191D02*
D03*
X726691Y600191D02*
D03*
X716691Y580191D02*
D03*
X726691Y560191D02*
D03*
X716691Y500191D02*
D03*
Y140191D02*
D03*
Y100191D02*
D03*
X726691Y80191D02*
D03*
X716691Y60191D02*
D03*
X726691Y40191D02*
D03*
X716691Y20191D02*
D03*
X696691Y620191D02*
D03*
X706691Y600191D02*
D03*
Y560191D02*
D03*
Y520191D02*
D03*
X696691Y500191D02*
D03*
Y460191D02*
D03*
X706691Y440191D02*
D03*
X696691Y420191D02*
D03*
Y140191D02*
D03*
X706691Y120191D02*
D03*
X696691Y100191D02*
D03*
X706691Y80191D02*
D03*
X696691Y60191D02*
D03*
X706691Y40191D02*
D03*
X696691Y20191D02*
D03*
X676691Y580191D02*
D03*
Y500191D02*
D03*
Y460191D02*
D03*
Y420191D02*
D03*
X686691Y160191D02*
D03*
X676691Y140191D02*
D03*
X686691Y120191D02*
D03*
X676691Y100191D02*
D03*
X686691Y80191D02*
D03*
X676691Y60191D02*
D03*
X686691Y40191D02*
D03*
X756691Y580191D02*
D03*
X356691Y460191D02*
D03*
X366691Y40191D02*
D03*
X356691Y20191D02*
D03*
X336691Y620191D02*
D03*
X346691Y600191D02*
D03*
Y480191D02*
D03*
X336691Y460191D02*
D03*
Y60191D02*
D03*
X346691Y40191D02*
D03*
X336691Y20191D02*
D03*
X316691Y620191D02*
D03*
X326691Y600191D02*
D03*
X316691Y580191D02*
D03*
Y540191D02*
D03*
Y500191D02*
D03*
X326691Y480191D02*
D03*
X316691Y460191D02*
D03*
Y420191D02*
D03*
X326691Y40191D02*
D03*
X316691Y20191D02*
D03*
X296691Y620191D02*
D03*
X306691Y600191D02*
D03*
X296691Y580191D02*
D03*
X306691Y560191D02*
D03*
X296691Y540191D02*
D03*
X306691Y520191D02*
D03*
X296691Y420191D02*
D03*
X306691Y80191D02*
D03*
X296691Y60191D02*
D03*
X306691Y40191D02*
D03*
X296691Y20191D02*
D03*
X276691Y620191D02*
D03*
X286691Y600191D02*
D03*
X276691Y580191D02*
D03*
X286691Y560191D02*
D03*
X276691Y540191D02*
D03*
X286691Y520191D02*
D03*
X276691Y420191D02*
D03*
X286691Y80191D02*
D03*
X276691Y60191D02*
D03*
Y20191D02*
D03*
X266691Y560191D02*
D03*
X256691Y540191D02*
D03*
Y380191D02*
D03*
X266691Y80191D02*
D03*
X256691Y60191D02*
D03*
Y20191D02*
D03*
X236691Y540191D02*
D03*
X246691Y80191D02*
D03*
X236691Y60191D02*
D03*
Y20191D02*
D03*
X216691Y540191D02*
D03*
Y100191D02*
D03*
X226691Y80191D02*
D03*
X216691Y60191D02*
D03*
Y20191D02*
D03*
X196691Y540191D02*
D03*
Y500191D02*
D03*
X206691Y120191D02*
D03*
X196691Y100191D02*
D03*
X206691Y80191D02*
D03*
X196691Y60191D02*
D03*
Y20191D02*
D03*
X496691Y620191D02*
D03*
Y580191D02*
D03*
X506691Y80191D02*
D03*
X496691Y60191D02*
D03*
X506691Y40191D02*
D03*
X496691Y20191D02*
D03*
X476691Y620191D02*
D03*
X486691Y600191D02*
D03*
X476691Y580191D02*
D03*
Y540191D02*
D03*
Y500191D02*
D03*
Y460191D02*
D03*
X486691Y80191D02*
D03*
X476691Y60191D02*
D03*
X486691Y40191D02*
D03*
X476691Y20191D02*
D03*
X456691Y620191D02*
D03*
X466691Y600191D02*
D03*
Y560191D02*
D03*
Y520191D02*
D03*
Y480191D02*
D03*
Y80191D02*
D03*
X456691Y60191D02*
D03*
X466691Y40191D02*
D03*
X456691Y20191D02*
D03*
X436691Y620191D02*
D03*
Y60191D02*
D03*
X446691Y40191D02*
D03*
X436691Y20191D02*
D03*
X416691Y620191D02*
D03*
Y580191D02*
D03*
Y540191D02*
D03*
Y500191D02*
D03*
Y60191D02*
D03*
X426691Y40191D02*
D03*
X416691Y20191D02*
D03*
X396691Y620191D02*
D03*
X406691Y600191D02*
D03*
Y560191D02*
D03*
Y520191D02*
D03*
X396691Y500191D02*
D03*
X406691Y480191D02*
D03*
X396691Y20191D02*
D03*
X376691Y620191D02*
D03*
X386691Y600191D02*
D03*
X376691Y580191D02*
D03*
X386691Y560191D02*
D03*
X376691Y540191D02*
D03*
Y500191D02*
D03*
X386691Y480191D02*
D03*
Y40191D02*
D03*
X376691Y20191D02*
D03*
X356691Y620191D02*
D03*
X366691Y600191D02*
D03*
X356691Y580191D02*
D03*
X366691Y560191D02*
D03*
X356691Y540191D02*
D03*
X366691Y520191D02*
D03*
X356691Y500191D02*
D03*
X366691Y480191D02*
D03*
X116691Y100191D02*
D03*
X126691Y80191D02*
D03*
X116691Y60191D02*
D03*
Y20191D02*
D03*
X96691Y540191D02*
D03*
X106691Y480191D02*
D03*
X96691Y460191D02*
D03*
Y220191D02*
D03*
Y180191D02*
D03*
Y140191D02*
D03*
X106691Y120191D02*
D03*
X96691Y100191D02*
D03*
X106691Y80191D02*
D03*
X96691Y20191D02*
D03*
X76691Y540191D02*
D03*
Y500191D02*
D03*
X86691Y480191D02*
D03*
X76691Y460191D02*
D03*
Y180191D02*
D03*
X86691Y160191D02*
D03*
X76691Y140191D02*
D03*
X86691Y120191D02*
D03*
X76691Y100191D02*
D03*
Y20191D02*
D03*
X56691Y620191D02*
D03*
Y540191D02*
D03*
X66691Y520191D02*
D03*
X56691Y500191D02*
D03*
X66691Y480191D02*
D03*
X56691Y220191D02*
D03*
Y180191D02*
D03*
X66691Y160191D02*
D03*
Y120191D02*
D03*
X56691Y100191D02*
D03*
Y20191D02*
D03*
X36691Y420191D02*
D03*
Y260191D02*
D03*
X16691Y580191D02*
D03*
X26691Y560191D02*
D03*
X16691Y540191D02*
D03*
X26691Y520191D02*
D03*
X16691Y500191D02*
D03*
X26691Y480191D02*
D03*
X16691Y460191D02*
D03*
Y420191D02*
D03*
X513455Y264535D02*
D03*
X83820Y312420D02*
D03*
X68580D02*
D03*
X76200Y308610D02*
D03*
X83820Y303530D02*
D03*
X68580D02*
D03*
X203200Y415290D02*
D03*
Y436880D02*
D03*
X196850Y426720D02*
D03*
X190500Y415290D02*
D03*
X189230Y436880D02*
D03*
X80010Y87630D02*
D03*
X171450Y231140D02*
D03*
X190500Y242570D02*
D03*
X299260Y131560D02*
D03*
X67310Y198120D02*
D03*
X90170Y226060D02*
D03*
X120650Y222250D02*
D03*
Y228600D02*
D03*
X129540D02*
D03*
Y222250D02*
D03*
X146817Y231154D02*
D03*
X154940Y220980D02*
D03*
Y212090D02*
D03*
X161290Y220980D02*
D03*
Y212090D02*
D03*
X213360D02*
D03*
Y204470D02*
D03*
Y241300D02*
D03*
X219710Y204470D02*
D03*
Y212090D02*
D03*
X255270Y205740D02*
D03*
X256540Y231140D02*
D03*
Y223520D02*
D03*
X264160D02*
D03*
Y231140D02*
D03*
X276860Y195930D02*
D03*
Y203200D02*
D03*
Y215900D02*
D03*
X325120Y187960D02*
D03*
X377190Y43180D02*
D03*
X406177Y39723D02*
D03*
X527050Y109220D02*
D03*
X533400Y113030D02*
D03*
X400050Y114300D02*
D03*
X448310D02*
D03*
X381017Y115570D02*
D03*
X439420Y123190D02*
D03*
X327660Y139320D02*
D03*
Y149860D02*
D03*
X328930Y170180D02*
D03*
X336550Y219710D02*
D03*
X345440Y193595D02*
D03*
Y200865D02*
D03*
X373380Y248920D02*
D03*
X375495Y187147D02*
D03*
X377190Y175260D02*
D03*
X409860Y133700D02*
D03*
X425450Y127000D02*
D03*
X532130Y215900D02*
D03*
X513080Y194310D02*
D03*
X527050Y149860D02*
D03*
Y208280D02*
D03*
X523240Y270510D02*
D03*
X166370Y261620D02*
D03*
X198361Y288290D02*
D03*
X44450Y289560D02*
D03*
X58420Y293370D02*
D03*
X94535Y293577D02*
D03*
X44450Y354330D02*
D03*
X64770Y336550D02*
D03*
X92710Y360680D02*
D03*
X104140Y313690D02*
D03*
X114300Y500380D02*
D03*
Y511810D02*
D03*
Y521970D02*
D03*
X124460D02*
D03*
Y500380D02*
D03*
Y511810D02*
D03*
X158750Y397510D02*
D03*
X171450D02*
D03*
X189230Y346710D02*
D03*
Y353060D02*
D03*
X196850Y346710D02*
D03*
Y353060D02*
D03*
X203200Y330200D02*
D03*
X204470Y346710D02*
D03*
Y353060D02*
D03*
X215900Y311150D02*
D03*
X222315Y268274D02*
D03*
X228600Y334010D02*
D03*
X237490Y293370D02*
D03*
X238760Y283210D02*
D03*
X364490Y248920D02*
D03*
X384810Y262890D02*
D03*
X386080Y320040D02*
D03*
Y327660D02*
D03*
Y335280D02*
D03*
X389913Y250213D02*
D03*
X395973Y327876D02*
D03*
X396240Y320040D02*
D03*
Y335280D02*
D03*
X405675Y250213D02*
D03*
X415290Y250190D02*
D03*
X462157Y290147D02*
D03*
X223520Y375920D02*
D03*
Y384810D02*
D03*
X236220Y375920D02*
D03*
Y384810D02*
D03*
X248920Y375920D02*
D03*
Y384810D02*
D03*
Y433070D02*
D03*
X326123Y546316D02*
D03*
X336283Y537426D02*
D03*
Y555206D02*
D03*
Y546316D02*
D03*
X346443D02*
D03*
X490220Y389890D02*
D03*
X499110D02*
D03*
X508000D02*
D03*
X543560Y369570D02*
D03*
X425647Y248723D02*
D03*
X432020Y171230D02*
D03*
X461010Y182690D02*
D03*
X463550Y207010D02*
D03*
X464820Y157480D02*
D03*
X466090Y231140D02*
D03*
X467520Y164230D02*
D03*
X471170Y237490D02*
D03*
X68580Y138430D02*
D03*
X698500Y170180D02*
D03*
X599440Y171450D02*
D03*
X604520Y181610D02*
D03*
X619760Y214630D02*
D03*
X621410Y301880D02*
D03*
X641350Y215900D02*
D03*
X698500Y186690D02*
D03*
X699770Y226060D02*
D03*
Y207010D02*
D03*
X704850Y212395D02*
D03*
Y219665D02*
D03*
X706120Y174295D02*
D03*
Y181565D02*
D03*
X742950Y312420D02*
D03*
Y322580D02*
D03*
X543560Y359410D02*
D03*
X545030Y499110D02*
D03*
Y509270D02*
D03*
X554990Y359410D02*
D03*
Y369570D02*
D03*
X555190Y499110D02*
D03*
Y509270D02*
D03*
X565150Y359410D02*
D03*
Y369570D02*
D03*
X566620Y509270D02*
D03*
Y499110D02*
D03*
X542290Y302260D02*
D03*
X571500Y222410D02*
D03*
Y236950D02*
D03*
X572037Y229700D02*
D03*
D122*
X200330Y272305D02*
D03*
D03*
Y260305D02*
D03*
D03*
Y266305D02*
D03*
X206330D02*
D03*
X194330D02*
D03*
D123*
X417830Y203200D02*
D03*
Y175260D02*
D03*
X403860Y189230D02*
D03*
X389890Y203200D02*
D03*
Y175260D02*
D03*
X373380Y287020D02*
D03*
X355600D02*
D03*
X285750Y99060D02*
D03*
X264750Y119380D02*
D03*
X275590Y144780D02*
D03*
X276860Y172720D02*
D03*
X99250Y246380D02*
D03*
X278130Y240030D02*
D03*
X297180Y219710D02*
D03*
X416560Y72370D02*
D03*
X369570Y83820D02*
D03*
X431800Y72370D02*
D03*
X447040D02*
D03*
X358140Y57000D02*
D03*
X491029Y217631D02*
D03*
X497840Y182880D02*
D03*
X510540Y147320D02*
D03*
X48260Y260350D02*
D03*
X76790Y280965D02*
D03*
X153670Y524510D02*
D03*
X154940Y347980D02*
D03*
Y356870D02*
D03*
X165100Y347980D02*
D03*
Y356870D02*
D03*
X171450Y468630D02*
D03*
X285750Y276860D02*
D03*
X287020Y355600D02*
D03*
X406400Y285750D02*
D03*
X436480Y274720D02*
D03*
X226060Y468630D02*
D03*
X248920Y401320D02*
D03*
X515620Y590550D02*
D03*
Y610870D02*
D03*
Y568960D02*
D03*
X448310Y147320D02*
D03*
X90170Y73660D02*
D03*
X656590Y337820D02*
D03*
X657860Y275590D02*
D03*
X670560Y337820D02*
D03*
X683260D02*
D03*
X704850Y196850D02*
D03*
Y234950D02*
D03*
Y298450D02*
D03*
X704915Y158815D02*
D03*
X744545Y336745D02*
D03*
X543560Y532130D02*
D03*
X589280Y508000D02*
D03*
X603250D02*
D03*
X614680D02*
D03*
X656590Y532130D02*
D03*
X661670Y405130D02*
D03*
Y388620D02*
D03*
X702310Y397510D02*
D03*
X704850Y450850D02*
D03*
X742950Y463550D02*
D03*
Y476250D02*
D03*
X744545Y349445D02*
D03*
Y362145D02*
D03*
Y438345D02*
D03*
X745490Y374650D02*
D03*
Y388620D02*
D03*
Y401320D02*
D03*
X746760Y419100D02*
D03*
D134*
X724730Y158880D02*
D03*
Y171580D02*
D03*
Y184280D02*
D03*
Y196980D02*
D03*
Y209680D02*
D03*
Y222380D02*
D03*
Y235080D02*
D03*
Y298580D02*
D03*
Y311280D02*
D03*
Y323980D02*
D03*
Y336680D02*
D03*
Y349380D02*
D03*
Y362080D02*
D03*
Y374780D02*
D03*
Y387480D02*
D03*
Y400180D02*
D03*
Y412880D02*
D03*
Y425580D02*
D03*
Y438280D02*
D03*
Y450980D02*
D03*
Y463680D02*
D03*
Y476380D02*
D03*
D135*
X156600Y368300D02*
D03*
X173600D02*
D03*
D136*
X70930Y226060D02*
D03*
X78930D02*
D03*
D137*
X21590Y67310D02*
Y354330D01*
X31750Y57150D02*
X44700D01*
X21590Y67310D02*
X31750Y57150D01*
X21590Y354330D02*
X61325Y394065D01*
X62001D01*
X65446Y397510D01*
X67310D01*
M02*
